{"glyphs":{"0":{"ha":872,"x_min":0,"x_max":0,"o":"m 106 504 b 543 1007 156 786 265 1007 b 803 504 821 1007 853 786 b 365 0 753 221 643 0 b 106 504 88 0 56 221 m 679 504 b 524 892 715 711 721 892 b 229 504 325 892 265 711 b 385 115 193 296 188 115 b 679 504 583 115 642 296 "},"1":{"ha":444,"x_min":0,"x_max":0,"o":"m 268 869 l 135 869 l 156 985 l 417 985 l 243 0 l 115 0 "},"2":{"ha":799,"x_min":0,"x_max":0,"o":"m 18 101 b 640 713 319 314 606 514 b 488 903 658 818 625 903 b 247 686 358 903 276 813 l 125 686 b 507 1011 171 900 326 1011 b 767 718 696 1011 799 900 b 211 117 724 475 417 263 l 689 117 l 671 11 l 1 11 "},"3":{"ha":818,"x_min":0,"x_max":0,"o":"m 144 751 b 524 1024 188 924 338 1024 b 779 765 719 1024 804 910 b 561 536 758 650 672 560 l 561 529 b 711 271 672 501 735 415 b 344 -7 682 115 554 -7 b 49 289 154 -7 29 94 l 171 289 b 361 100 164 182 228 100 b 593 282 494 100 575 179 b 347 478 617 424 528 478 l 314 478 l 333 583 l 368 583 b 656 753 536 585 635 636 b 500 915 672 849 621 915 b 268 751 382 915 299 849 l 144 751 "},"4":{"ha":874,"x_min":0,"x_max":0,"o":"m 539 224 l 24 224 l 40 319 l 647 994 l 799 994 l 683 333 l 822 333 l 801 224 l 663 224 l 624 0 l 499 0 m 564 333 l 657 863 l 190 333 "},"5":{"ha":872,"x_min":0,"x_max":0,"o":"m 833 1006 l 815 894 l 326 894 l 271 578 b 517 679 322 635 418 679 b 782 347 761 679 810 503 b 376 -3 747 153 611 -3 b 79 272 176 -3 75 110 l 201 272 b 396 104 207 167 279 104 b 661 344 549 104 636 207 b 481 571 686 488 626 571 b 249 439 378 571 296 518 l 129 439 l 229 1006 "},"6":{"ha":882,"x_min":0,"x_max":0,"o":"m 710 765 b 547 919 707 863 661 919 b 231 511 388 919 282 810 b 531 665 292 610 411 665 b 785 331 718 665 822 542 b 397 -3 753 147 618 -3 b 122 515 101 -3 68 211 b 568 1025 178 831 314 1025 b 826 765 758 1025 835 906 m 485 558 b 217 340 371 558 243 490 b 410 103 193 207 251 103 b 663 326 540 103 639 190 b 485 558 688 468 631 558 "},"7":{"ha":758,"x_min":0,"x_max":0,"o":"m 811 1001 l 793 906 l 247 0 l 108 0 l 668 894 l 133 894 l 151 1001 "},"8":{"ha":876,"x_min":0,"x_max":0,"o":"m 293 533 b 172 763 199 574 153 651 b 550 1031 199 911 332 1031 b 832 763 767 1031 858 910 b 629 533 813 654 736 571 b 774 276 738 497 796 407 b 363 -28 739 89 575 -28 b 61 276 151 -28 28 89 b 293 533 85 408 175 499 m 531 925 b 292 747 407 925 313 864 b 469 574 274 643 346 574 b 708 749 593 574 689 644 b 531 925 728 863 657 925 m 451 478 b 183 281 322 478 207 418 b 382 78 161 157 238 78 b 649 281 525 78 628 158 b 451 478 674 415 583 478 "},"9":{"ha":875,"x_min":0,"x_max":0,"o":"m 225 269 b 399 104 226 165 281 104 b 690 499 544 104 642 204 b 417 365 635 414 526 365 b 153 693 232 365 115 481 b 543 1024 186 885 325 1024 b 804 521 814 1024 858 832 b 372 -1 746 186 636 -1 b 108 269 172 -1 97 122 m 457 472 b 707 686 578 472 683 551 b 526 918 731 822 671 918 b 275 696 396 918 299 829 b 457 472 253 567 307 472 "},"\u0000":{"ha":0,"x_min":0,"x_max":0,"o":""},"\r":{"ha":414,"x_min":0,"x_max":0,"o":""}," ":{"ha":414,"x_min":0,"x_max":0,"o":""},"अ":{"ha":1149,"x_min":0,"x_max":0,"o":"m 410 622 b 617 778 532 622 603 701 b 474 942 635 881 568 942 b 268 782 375 942 283 881 l 160 782 b 492 1040 188 942 325 1040 b 724 793 653 1040 750 944 b 517 579 706 689 633 607 l 515 576 b 586 550 543 572 565 563 l 893 550 l 976 1028 l 1275 1028 l 1258 931 l 1076 931 l 911 0 l 796 0 l 875 454 l 656 456 b 661 342 667 421 668 381 b 332 74 632 179 501 74 b 72 356 151 74 43 188 l 182 356 b 342 174 164 250 231 174 b 556 351 456 174 538 246 b 543 456 563 388 558 425 l 539 456 l 539 463 b 393 528 515 500 469 528 l 338 528 l 354 622 l 410 622 "},"आ":{"ha":1554,"x_min":0,"x_max":0,"o":"m 410 622 b 617 778 532 622 603 701 b 474 942 635 881 568 942 b 268 782 375 942 283 881 l 160 782 b 492 1040 188 942 325 1040 b 724 793 653 1040 750 944 b 517 579 706 689 633 607 l 515 576 b 586 550 543 572 565 563 l 893 550 l 976 1028 l 1682 1028 l 1665 931 l 1483 931 l 1319 0 l 1203 0 l 1367 931 l 1076 931 l 911 0 l 796 0 l 875 454 l 656 456 b 661 342 667 421 668 381 b 332 74 632 179 501 74 b 72 356 151 74 43 188 l 182 356 b 342 174 164 250 231 174 b 556 351 456 174 538 246 b 543 456 563 388 558 425 l 539 456 l 539 463 b 393 528 515 500 469 528 l 338 528 l 354 622 l 410 622 "},"इ":{"ha":811,"x_min":0,"x_max":0,"o":"m 49 1028 l 957 1028 l 940 931 l 729 931 l 693 731 l 693 731 l 683 679 l 438 679 b 249 563 361 679 265 658 b 379 449 233 479 297 449 l 440 449 b 683 206 581 449 717 388 b 394 -19 661 79 563 -19 b 179 110 246 -18 190 68 l 142 -107 l 32 -107 l 94 249 l 199 249 b 379 69 192 146 250 69 b 574 214 494 69 560 136 b 404 365 594 332 503 365 l 332 365 b 133 567 213 368 110 429 b 422 764 158 717 294 764 l 586 764 l 617 931 l 33 931 "},"ई":{"ha":806,"x_min":0,"x_max":0,"o":"m 142 -107 l 32 -107 l 94 249 l 199 249 b 379 69 192 146 250 69 b 574 214 494 69 561 136 b 404 365 594 332 503 365 l 332 365 b 133 567 213 368 110 429 b 422 764 158 717 294 764 l 586 764 l 617 931 l 33 931 l 50 1028 l 636 1028 l 654 1131 b 933 1399 681 1283 767 1399 b 1114 1164 1076 1399 1143 1303 l 1013 1164 b 917 1300 1028 1246 992 1300 b 761 1131 832 1300 779 1243 l 744 1028 l 957 1028 l 942 931 l 731 931 l 694 731 l 693 731 l 683 679 l 438 679 b 249 563 361 679 265 658 b 379 449 233 479 297 449 l 440 449 b 683 206 581 449 717 388 b 394 -19 661 79 563 -19 b 179 110 246 -18 190 68 "},"उ":{"ha":799,"x_min":0,"x_max":0,"o":"m 53 1028 l 926 1028 l 908 931 l 740 931 l 715 786 b 524 575 694 671 614 590 l 522 572 b 672 303 639 546 694 435 b 314 4 640 129 506 4 b 36 315 119 4 3 132 l 146 315 b 328 108 125 197 204 108 b 564 311 450 108 542 193 b 390 518 581 408 543 518 l 326 518 l 343 621 l 393 621 b 604 793 514 621 588 694 l 628 931 l 36 931 "},"ऊ":{"ha":1200,"x_min":0,"x_max":0,"o":"m 53 1028 l 1328 1028 l 1311 931 l 740 931 l 715 786 b 524 575 694 671 614 590 l 522 572 l 810 572 b 1085 299 989 572 1118 494 b 769 38 1053 121 922 38 b 704 43 749 38 726 40 l 721 132 b 767 131 738 131 753 131 b 974 303 863 131 951 176 b 796 479 997 432 908 479 l 643 479 b 669 297 672 431 681 367 b 314 4 640 129 504 4 b 36 315 119 4 3 132 l 146 315 b 328 108 125 197 204 108 b 564 311 450 108 542 193 b 390 518 581 408 543 518 l 326 518 l 343 621 l 393 621 b 604 793 514 621 588 694 l 628 931 l 36 931 "},"ऋ":{"ha":1418,"x_min":0,"x_max":0,"o":"m 668 382 l 222 0 l 78 0 l 79 8 l 690 503 l 690 504 b 497 688 689 610 619 688 b 201 426 349 688 228 586 l 85 426 b 482 786 124 643 283 786 b 715 650 604 786 681 733 l 765 931 l 36 931 l 53 1028 l 1546 1028 l 1529 931 l 874 931 l 817 608 l 1065 608 b 1197 697 1142 608 1183 643 l 1214 794 l 1315 794 l 1229 303 l 1203 303 b 1015 156 1096 303 1029 238 b 1154 13 997 51 1065 13 b 1235 25 1182 13 1213 19 l 1218 -69 b 1124 -81 1194 -75 1154 -81 b 903 147 979 -81 875 -7 b 1140 371 924 265 1014 349 l 1171 547 b 1032 515 1131 526 1083 515 l 800 515 l 710 0 l 601 0 "},"ॠ":{"ha":1421,"x_min":0,"x_max":0,"o":"m 669 383 l 222 0 l 76 0 l 78 8 l 690 504 b 497 688 689 610 618 688 b 200 426 347 688 228 586 l 83 426 b 481 786 122 643 282 786 b 715 649 604 786 681 732 l 765 931 l 36 931 l 53 1028 l 1547 1028 l 1531 931 l 872 931 l 815 608 l 1064 608 b 1197 703 1143 608 1185 646 l 1204 736 l 1208 765 l 1208 765 l 1214 794 l 1315 794 l 1228 300 l 1174 300 b 1024 197 1106 300 1039 276 b 1143 96 1011 124 1068 96 l 1207 96 l 1192 8 l 1126 8 b 972 -97 1058 8 986 -15 b 1097 -200 958 -174 1021 -200 b 1236 -178 1151 -200 1210 -186 l 1221 -265 b 1064 -292 1183 -281 1121 -292 b 858 -108 942 -292 835 -239 b 1011 49 874 -22 939 33 l 1013 51 b 914 203 944 68 899 115 b 1140 368 936 325 1050 368 l 1171 549 b 1031 515 1131 526 1083 515 l 800 515 l 710 0 l 601 0 "},"ऌ":{"ha":1250,"x_min":0,"x_max":0,"o":"m 50 1028 l 1374 1028 l 1356 931 l 1006 931 l 974 753 b 1136 439 1100 725 1165 610 b 1089 300 1128 389 1113 342 l 1079 300 b 878 153 960 300 892 235 b 1019 11 860 50 929 11 b 1101 22 1047 11 1078 15 l 1085 -71 b 989 -83 1058 -78 1021 -83 b 767 147 843 -83 739 -8 b 1000 365 788 261 881 350 b 1021 440 1010 389 1017 414 b 883 654 1043 560 1000 654 b 653 401 757 654 674 551 l 647 376 l 551 376 l 554 401 b 422 654 574 549 543 654 b 197 438 297 654 219 563 b 375 200 171 294 232 200 b 417 203 386 200 400 201 l 399 101 b 350 100 379 100 364 100 b 79 439 132 100 46 242 b 422 758 114 639 251 758 b 625 556 565 758 619 653 l 629 556 b 863 754 665 643 740 735 l 894 931 l 32 931 "},"ॡ":{"ha":1263,"x_min":0,"x_max":0,"o":"m 56 1028 l 1386 1028 l 1368 931 l 1006 931 l 974 751 b 1136 439 1099 725 1167 608 b 1090 300 1128 389 1111 342 l 1039 300 b 889 197 972 300 904 276 b 1008 96 876 124 935 96 l 1074 96 l 1057 8 l 992 8 b 836 -97 922 8 851 -15 b 963 -200 824 -174 888 -200 b 1101 -178 1017 -200 1076 -186 l 1086 -265 b 931 -292 1050 -281 986 -292 b 724 -107 807 -292 701 -239 b 876 49 739 -22 806 33 l 878 51 b 779 203 810 68 764 115 b 1000 368 803 321 908 365 b 1021 440 1010 390 1017 415 b 883 654 1043 560 1000 654 b 653 401 757 654 672 551 l 647 376 l 551 376 l 554 401 b 422 654 574 549 543 654 b 197 438 297 654 218 563 b 375 200 171 294 232 200 b 417 203 386 200 400 201 l 399 101 b 350 100 379 100 364 100 b 79 439 132 100 46 242 b 422 758 114 639 251 758 b 625 556 565 758 619 653 l 629 556 b 864 754 667 643 739 735 l 894 931 l 39 931 "},"ए":{"ha":904,"x_min":0,"x_max":0,"o":"m 51 1028 l 1031 1028 l 1014 931 l 858 931 l 831 769 b 494 490 794 564 699 468 l 511 593 b 718 772 635 582 693 638 l 746 931 l 329 931 l 232 376 b 414 126 201 221 269 126 b 651 344 544 126 628 207 l 764 344 b 404 26 731 144 603 26 b 117 379 175 26 79 169 l 213 931 l 35 931 "},"ऐ":{"ha":904,"x_min":0,"x_max":0,"o":"m 404 26 b 117 379 175 26 79 169 l 213 931 l 35 931 l 51 1028 l 758 1028 b 476 1268 656 1249 613 1268 l 419 1268 l 436 1363 l 493 1363 b 868 1028 675 1363 742 1338 l 1031 1028 l 1014 931 l 858 931 l 831 769 b 494 490 794 564 699 468 l 511 593 b 718 772 635 582 693 638 l 746 931 l 329 931 l 232 376 b 414 126 201 221 269 126 b 651 344 544 126 628 207 l 764 344 b 404 26 731 144 603 26 "},"ओ":{"ha":1554,"x_min":0,"x_max":0,"o":"m 796 0 l 875 454 l 656 456 b 661 342 667 421 668 381 b 332 74 632 179 501 74 b 72 356 151 74 43 188 l 182 356 b 342 174 164 250 231 174 b 556 351 456 174 538 246 b 543 456 563 388 558 425 l 539 456 l 539 463 b 393 528 515 500 469 528 l 338 528 l 354 622 l 410 622 b 617 778 532 622 603 701 b 474 942 635 881 568 942 b 268 782 375 942 283 881 l 160 782 b 492 1040 188 942 325 1040 b 724 793 653 1040 750 944 b 517 579 706 689 633 607 l 515 576 b 586 550 543 572 565 563 l 893 550 l 976 1028 l 1458 1028 b 1178 1268 1356 1249 1313 1268 l 1119 1268 l 1136 1363 l 1193 1363 b 1568 1028 1376 1363 1440 1338 l 1682 1028 l 1665 931 l 1483 931 l 1319 0 l 1203 0 l 1367 931 l 1076 931 l 911 0 "},"औ":{"ha":1554,"x_min":0,"x_max":0,"o":"m 796 0 l 875 454 l 656 456 b 661 342 667 421 668 381 b 332 74 632 179 501 74 b 72 356 151 74 43 188 l 182 356 b 342 174 164 250 231 174 b 556 351 456 174 538 246 b 543 456 563 388 558 425 l 539 456 l 539 463 b 393 528 515 500 469 528 l 338 528 l 354 622 l 410 622 b 617 778 532 622 603 701 b 474 942 635 881 568 942 b 268 782 375 942 283 881 l 160 782 b 492 1040 188 942 325 1040 b 724 793 653 1040 750 944 b 517 579 706 689 633 607 l 515 576 b 586 550 543 572 565 563 l 893 550 l 976 1028 l 1465 1028 b 1150 1160 1328 1153 1297 1160 l 1090 1160 l 1104 1235 l 1161 1235 b 1460 1121 1300 1235 1344 1232 b 1190 1369 1369 1361 1310 1369 l 1129 1369 l 1142 1446 l 1200 1446 b 1568 1028 1382 1446 1432 1429 l 1682 1028 l 1665 931 l 1483 931 l 1319 0 l 1203 0 l 1367 931 l 1076 931 l 911 0 "},"ऍ":{"ha":906,"x_min":0,"x_max":0,"o":"m 536 1163 b 296 1408 339 1163 274 1281 l 396 1408 b 551 1251 382 1332 422 1251 b 761 1408 678 1251 747 1332 l 860 1408 b 536 1163 839 1281 732 1163 m 17 1028 l 996 1028 l 979 931 l 824 931 l 796 769 b 460 490 760 564 664 468 l 476 593 b 683 772 600 582 658 638 l 711 931 l 294 931 l 197 376 b 379 126 167 221 235 126 b 617 344 510 126 593 207 l 729 344 b 369 26 696 144 568 26 b 82 379 140 26 44 169 l 178 931 l 0 931 "},"ॲ":{"ha":1149,"x_min":0,"x_max":0,"o":"m 410 622 b 617 778 532 622 603 701 b 474 942 635 881 568 942 b 268 782 375 942 283 881 l 160 782 b 492 1040 188 942 325 1040 b 724 793 653 1040 750 944 b 517 579 706 689 633 607 l 515 576 b 586 550 543 572 565 563 l 893 550 l 976 1028 l 1275 1028 l 1258 931 l 1076 931 l 911 0 l 796 0 l 875 454 l 656 456 b 661 342 667 421 668 381 b 332 74 632 179 501 74 b 72 356 151 74 43 188 l 182 356 b 342 174 164 250 231 174 b 556 351 456 174 538 246 b 543 456 563 388 558 425 l 539 456 l 539 463 b 393 528 515 500 469 528 l 338 528 l 354 622 l 410 622 m 1161 1167 b 914 1411 964 1167 890 1285 l 1014 1411 b 1168 1256 1000 1335 1039 1256 b 1379 1411 1296 1256 1365 1335 l 1479 1411 b 1161 1167 1456 1285 1357 1167 "},"ऑ":{"ha":1554,"x_min":0,"x_max":0,"o":"m 410 622 b 617 778 532 622 603 701 b 474 942 635 881 568 942 b 268 782 375 942 283 881 l 160 782 b 492 1040 188 942 325 1040 b 724 793 653 1040 750 944 b 517 579 706 689 633 607 l 515 576 b 586 550 543 572 565 563 l 893 550 l 976 1028 l 1682 1028 l 1665 931 l 1483 931 l 1319 0 l 1203 0 l 1367 931 l 1076 931 l 911 0 l 796 0 l 875 454 l 656 456 b 661 342 667 421 668 381 b 332 74 632 179 501 74 b 72 356 151 74 43 188 l 182 356 b 342 174 164 250 231 174 b 556 351 456 174 538 246 b 543 456 563 388 558 425 l 539 456 l 539 463 b 393 528 515 500 469 528 l 338 528 l 354 622 l 410 622 m 1354 1163 b 1107 1407 1157 1163 1083 1281 l 1207 1407 b 1361 1251 1193 1331 1232 1251 b 1572 1407 1489 1251 1558 1331 l 1672 1407 b 1354 1163 1649 1281 1550 1163 "},"ा":{"ha":408,"x_min":0,"x_max":0,"o":"m 219 931 l 36 931 l 53 1028 l 535 1028 l 518 931 l 336 931 l 172 0 l 56 0 "},"ि":{"ha":408,"x_min":0,"x_max":0,"o":"m 171 0 l 54 0 l 219 931 l 36 931 l 53 1028 l 236 1028 b 833 1383 285 1285 556 1383 b 1303 1024 1111 1383 1346 1269 l 1299 1000 l 1183 1000 l 1186 1022 b 817 1288 1221 1224 1003 1288 b 350 1028 626 1288 383 1239 l 535 1028 l 518 931 l 336 931 "},"ी":{"ha":407,"x_min":0,"x_max":0,"o":"m -162 1081 b 154 1383 -132 1250 -39 1383 b 363 1081 351 1383 393 1250 l 353 1028 l 535 1028 l 518 931 l 336 931 l 171 0 l 56 0 l 219 931 l 36 931 l 53 1028 l 240 1028 l 250 1086 b 138 1286 268 1183 256 1286 b -49 1086 17 1286 -29 1183 l -65 1000 l -178 1000 "},"ु":{"ha":0,"x_min":0,"x_max":0,"o":"m -433 -417 b -706 -125 -601 -417 -747 -332 l -601 -125 b -424 -325 -632 -264 -546 -325 b -221 -179 -315 -325 -236 -272 b -328 -51 -208 -112 -243 -51 l -361 -51 l -344 40 l -311 40 b -119 -182 -171 40 -100 -57 b -433 -417 -142 -329 -262 -417 "},"ू":{"ha":0,"x_min":0,"x_max":0,"o":"m -389 -404 b -592 -187 -511 -404 -618 -328 b -297 38 -568 -46 -453 38 b -15 -350 -79 38 28 -126 b -26 -396 -19 -365 -22 -381 l -122 -396 l -111 -339 b -306 -51 -76 -164 -157 -51 b -497 -192 -404 -51 -483 -106 b -375 -319 -511 -271 -454 -319 b -332 -317 -362 -319 -347 -318 l -347 -403 b -389 -404 -360 -404 -374 -404 "},"ृ":{"ha":0,"x_min":0,"x_max":0,"o":"m -357 -431 b -579 -183 -481 -431 -607 -347 b -276 38 -556 -50 -444 38 l -231 38 l -243 -44 l -282 -44 b -467 -182 -386 -44 -454 -100 b -324 -336 -485 -282 -410 -336 b -218 -322 -282 -336 -242 -329 l -235 -412 b -357 -431 -268 -424 -315 -431 "},"ॄ":{"ha":0,"x_min":0,"x_max":0,"o":"m -394 -621 b -601 -433 -517 -621 -626 -564 b -447 -282 -586 -350 -521 -297 l -447 -278 b -546 -128 -517 -261 -562 -215 b -315 38 -524 -4 -410 38 l -231 38 l -242 -29 l -287 -29 b -435 -132 -353 -29 -421 -54 b -317 -235 -449 -206 -392 -235 l -251 -235 l -268 -321 l -332 -321 b -487 -424 -400 -321 -474 -344 b -361 -529 -503 -499 -437 -529 b -222 -508 -307 -529 -249 -517 l -239 -596 b -394 -621 -275 -610 -339 -621 "},"ॢ":{"ha":0,"x_min":0,"x_max":0,"o":"m -61 -643 b -228 -474 -169 -643 -247 -587 b -56 -311 -212 -389 -144 -325 b -44 -264 -50 -296 -47 -279 b -140 -111 -29 -176 -57 -111 b -303 -290 -229 -111 -282 -186 l -306 -308 l -383 -308 l -381 -290 b -474 -111 -360 -185 -390 -111 b -633 -265 -562 -111 -618 -175 b -507 -431 -651 -364 -607 -431 b -478 -428 -500 -431 -486 -431 l -493 -508 b -526 -510 -503 -510 -518 -510 b -728 -264 -686 -510 -751 -407 b -472 -29 -700 -115 -596 -29 b -325 -175 -367 -29 -329 -104 l -321 -175 b -112 -29 -290 -104 -225 -29 b 49 -264 7 -29 74 -118 b 17 -364 43 -299 32 -332 l 8 -364 b -139 -468 -79 -364 -129 -410 b -37 -569 -151 -539 -100 -569 b 24 -560 -15 -569 7 -565 l 10 -636 b -61 -643 -10 -640 -36 -643 "},"ॣ":{"ha":0,"x_min":0,"x_max":0,"o":"m 11 -779 b -103 -794 -15 -787 -61 -794 b -254 -661 -194 -794 -272 -758 b -143 -547 -243 -597 -196 -557 l -143 -544 b -214 -432 -193 -532 -225 -494 b -56 -308 -199 -346 -124 -311 b -43 -264 -50 -294 -46 -279 b -140 -111 -28 -176 -57 -111 b -301 -290 -229 -111 -281 -186 l -304 -308 l -383 -308 l -381 -290 b -474 -111 -360 -185 -390 -111 b -633 -265 -562 -111 -618 -175 b -507 -431 -651 -364 -607 -431 b -478 -428 -500 -431 -486 -431 l -492 -508 b -526 -510 -503 -510 -517 -510 b -726 -264 -686 -510 -751 -407 b -472 -29 -700 -115 -596 -29 b -324 -175 -367 -29 -329 -104 l -321 -175 b -112 -29 -290 -104 -225 -29 b 49 -264 7 -29 75 -118 b 17 -364 43 -299 32 -332 l -24 -364 b -128 -436 -71 -364 -119 -382 b -44 -508 -137 -489 -97 -508 l 3 -508 l -10 -579 l -54 -579 b -168 -653 -104 -579 -157 -593 b -78 -724 -176 -706 -132 -724 b 22 -708 -37 -724 4 -715 l 11 -779 "},"े":{"ha":0,"x_min":0,"x_max":0,"o":"m -167 1022 b -450 1268 -271 1249 -314 1268 l -508 1268 l -492 1363 l -435 1363 b -57 1022 -251 1363 -187 1338 l -167 1022 "},"ै":{"ha":0,"x_min":0,"x_max":0,"o":"m -161 1024 b -481 1160 -303 1153 -332 1160 l -540 1160 l -526 1235 l -469 1235 b -171 1121 -331 1235 -286 1232 b -440 1369 -261 1361 -321 1369 l -501 1369 l -489 1446 l -431 1446 b -61 1024 -249 1446 -199 1429 l -161 1024 "},"ो":{"ha":408,"x_min":0,"x_max":0,"o":"m 56 0 l 219 931 l 36 931 l 54 1028 l 239 1028 b -42 1268 136 1249 92 1268 l -100 1268 l -83 1363 l -28 1363 b 349 1028 156 1363 222 1338 l 535 1028 l 518 931 l 336 931 l 171 0 "},"ौ":{"ha":408,"x_min":0,"x_max":0,"o":"m 19 0 l 182 931 l -1 931 l 17 1028 l 208 1028 b -108 1160 69 1153 38 1160 l -167 1160 l -153 1235 l -97 1235 b 201 1121 40 1235 86 1232 b -69 1369 111 1361 51 1369 l -129 1369 l -117 1446 l -58 1446 b 311 1028 122 1446 175 1429 l 499 1028 l 481 931 l 297 931 l 135 0 "},"ॅ":{"ha":0,"x_min":0,"x_max":0,"o":"m -87 1136 b -335 1381 -285 1136 -358 1254 l -235 1381 b -81 1225 -249 1304 -210 1225 b 131 1381 47 1225 117 1304 l 231 1381 b -87 1136 207 1254 108 1136 "},"ॉ":{"ha":408,"x_min":0,"x_max":0,"o":"m 322 1136 b 75 1381 125 1136 51 1254 l 175 1381 b 329 1225 161 1304 200 1225 b 540 1381 457 1225 526 1304 l 640 1381 b 322 1136 617 1254 518 1136 m 219 931 l 36 931 l 53 1028 l 535 1028 l 518 931 l 336 931 l 172 0 l 56 0 "},"क":{"ha":1382,"x_min":0,"x_max":0,"o":"m 601 279 b 333 136 547 197 457 136 b 88 461 163 136 51 263 b 440 776 122 654 267 776 b 664 632 568 776 639 714 l 717 931 l 36 931 l 53 1028 l 1508 1028 l 1490 931 l 828 931 l 775 635 b 1036 776 828 715 915 776 b 1274 457 1203 776 1308 644 b 928 142 1238 254 1096 142 b 844 151 899 142 868 144 l 860 243 b 918 238 876 239 897 238 b 1158 458 1029 238 1133 318 b 990 676 1181 590 1107 676 b 746 468 853 676 774 574 l 664 0 l 553 0 m 381 233 b 629 436 524 235 606 343 l 635 463 b 457 676 650 564 606 676 b 206 458 340 676 229 593 b 381 233 181 317 260 233 "},"ख":{"ha":1296,"x_min":0,"x_max":0,"o":"m 997 303 b 769 189 950 239 875 189 b 718 194 751 189 735 190 b 371 -4 646 85 526 -4 b 85 338 161 -4 47 122 l 124 554 l 172 554 b 407 763 278 554 379 597 l 436 931 l 36 931 l 54 1028 l 1424 1028 l 1406 931 l 1224 931 l 1061 0 l 944 0 m 807 279 b 1028 474 938 279 1013 383 b 871 667 1044 563 1006 667 b 650 476 767 667 671 597 b 807 279 628 350 703 279 m 392 97 b 632 232 503 97 585 161 b 550 488 564 282 531 374 b 863 757 578 656 713 760 b 1058 643 971 756 1032 707 l 1108 931 l 553 931 l 521 749 b 224 468 483 538 356 468 l 199 325 b 392 97 174 189 246 97 "},"ग":{"ha":1036,"x_min":0,"x_max":0,"o":"m 846 931 l 599 931 l 533 556 b 268 311 511 422 429 311 b 72 549 119 311 47 410 l 81 590 l 194 590 l 186 547 b 276 411 174 481 190 411 b 417 551 369 411 406 483 l 483 931 l 36 931 l 53 1028 l 1163 1028 l 1146 931 l 963 931 l 799 0 l 683 0 "},"घ":{"ha":986,"x_min":0,"x_max":0,"o":"m 403 242 b 722 500 556 242 694 347 l 722 500 l 799 931 l 328 931 l 308 829 b 469 663 292 722 335 663 l 535 663 l 518 568 l 444 568 b 214 411 300 568 229 499 b 403 242 193 297 279 242 m 53 1028 l 1114 1028 l 1096 931 l 915 931 l 751 0 l 635 0 l 689 307 b 361 146 614 207 496 146 b 94 400 188 146 65 236 b 317 613 117 522 217 596 l 317 615 b 193 824 231 631 168 689 l 211 931 l 36 931 "},"ङ":{"ha":918,"x_min":0,"x_max":0,"o":"m 811 475 b 751 546 769 475 744 507 b 836 618 758 586 796 618 b 896 546 878 618 903 586 b 811 475 889 507 851 475 m 56 1028 l 1044 1028 l 1028 931 l 724 931 l 693 763 l 694 763 l 679 679 l 435 679 b 246 564 357 679 264 658 b 375 449 231 478 297 449 l 436 449 b 681 211 581 449 711 382 b 350 -19 656 75 543 -19 b 53 249 143 -19 28 92 l 168 249 b 358 69 151 146 214 69 b 569 215 478 69 556 132 b 401 365 590 331 500 365 l 346 365 b 131 567 233 365 104 415 b 415 763 156 713 289 763 l 582 763 l 611 931 l 39 931 "},"च":{"ha":1021,"x_min":0,"x_max":0,"o":"m 53 1028 l 1147 1028 l 1129 931 l 947 931 l 785 0 l 668 0 l 718 285 b 425 139 651 196 543 139 b 179 417 265 139 149 242 b 344 640 197 515 257 596 l 90 640 l 107 732 l 613 732 l 594 640 l 546 640 b 292 435 413 640 314 551 b 474 236 269 306 357 236 b 753 482 614 236 726 346 l 753 482 l 832 931 l 36 931 "},"छ":{"ha":1132,"x_min":0,"x_max":0,"o":"m 50 1028 l 1258 1028 l 1242 931 l 939 931 l 908 758 b 1061 475 1019 738 1090 643 b 465 38 1013 203 775 38 b 69 349 210 38 32 150 b 301 571 93 478 190 551 l 301 575 b 178 785 217 589 154 650 l 206 931 l 33 931 m 483 138 b 958 478 726 138 919 264 b 839 678 982 611 917 678 b 665 517 771 678 685 633 b 665 388 657 478 658 433 l 568 388 b 569 528 561 433 561 481 b 800 760 596 675 696 743 l 832 931 l 319 931 l 294 789 b 447 622 276 682 317 622 l 479 622 l 463 526 l 433 526 b 188 353 286 526 204 447 b 483 138 163 211 283 138 "},"ज":{"ha":1167,"x_min":0,"x_max":0,"o":"m 53 1028 l 1294 1028 l 1276 931 l 1096 931 l 931 0 l 815 0 l 919 593 l 657 593 l 633 461 b 317 182 604 297 488 181 b 96 465 156 182 67 300 l 136 693 l 253 693 l 213 464 b 332 283 193 357 238 283 b 519 464 429 283 500 357 l 561 693 l 938 693 l 979 931 l 36 931 "},"झ":{"ha":1189,"x_min":0,"x_max":0,"o":"m 917 449 l 1001 931 l 729 931 l 693 731 l 693 731 l 683 679 l 438 679 b 249 563 364 679 265 658 b 379 449 233 479 297 449 m 901 360 l 638 361 b 679 200 672 325 692 272 b 403 -10 658 83 564 -10 b 188 107 258 -10 201 75 l 150 -107 l 39 -107 l 101 238 l 206 238 b 386 78 201 151 256 78 b 574 214 501 78 561 140 b 406 365 590 307 532 365 l 332 365 b 133 569 213 368 108 428 b 422 764 158 718 294 764 l 586 764 l 617 931 l 46 931 l 64 1028 l 1317 1028 l 1299 931 l 1115 931 l 953 0 l 839 0 "},"ञ":{"ha":1125,"x_min":0,"x_max":0,"o":"m 53 1028 l 1251 1028 l 1235 931 l 1053 931 l 889 0 l 772 0 l 844 407 l 697 407 b 336 124 651 247 524 124 b 71 365 153 124 67 238 l 181 365 b 353 224 188 293 238 224 b 601 451 492 224 581 329 b 433 678 624 571 574 678 b 210 536 315 678 240 604 l 100 536 b 450 778 140 667 265 778 b 713 507 632 778 719 660 l 861 507 l 936 931 l 36 931 "},"ट":{"ha":899,"x_min":0,"x_max":0,"o":"m 50 1028 l 1025 1028 l 1008 931 l 714 931 l 667 671 l 528 671 b 189 410 365 671 221 586 b 408 160 163 264 256 160 b 707 421 564 160 682 268 l 818 421 b 394 60 781 206 621 60 b 72 414 178 60 36 204 b 538 769 115 653 303 769 l 571 769 l 600 931 l 32 931 "},"ठ":{"ha":933,"x_min":0,"x_max":0,"o":"m 401 164 b 703 411 547 164 676 265 b 490 665 729 557 642 665 b 190 418 344 665 217 565 b 401 164 164 272 253 164 m 389 65 b 75 422 182 65 38 210 b 449 761 111 619 268 740 l 479 931 l 31 931 l 49 1028 l 1061 1028 l 1043 931 l 593 931 l 563 760 b 818 407 735 735 853 603 b 389 65 781 197 599 65 "},"ड":{"ha":799,"x_min":0,"x_max":0,"o":"m 56 1028 l 926 1028 l 910 931 l 717 931 l 671 679 l 435 679 b 246 564 357 679 264 658 b 375 449 231 478 297 449 l 436 449 b 681 211 581 449 711 382 b 350 -19 656 75 543 -19 b 53 249 143 -19 28 92 l 168 249 b 358 69 151 146 214 69 b 569 215 478 69 556 132 b 401 365 590 331 500 365 l 346 365 b 131 567 233 365 104 415 b 415 763 156 713 289 763 l 574 763 l 604 931 l 39 931 "},"ढ":{"ha":889,"x_min":0,"x_max":0,"o":"m 53 1028 l 1017 1028 l 999 931 l 743 931 l 701 692 l 569 692 b 188 390 388 692 222 593 b 443 97 157 219 256 97 b 708 282 576 97 688 171 b 594 425 722 365 675 425 b 447 304 522 425 460 379 b 444 276 446 296 444 285 l 360 276 b 363 318 360 289 361 306 b 613 510 383 440 486 510 b 807 279 747 510 831 415 b 431 11 778 119 635 11 b 76 399 193 11 35 167 b 551 775 121 653 324 775 l 606 775 l 633 931 l 35 931 "},"ण":{"ha":1189,"x_min":0,"x_max":0,"o":"m 364 353 b 543 521 458 353 526 422 l 615 931 l 314 931 l 242 521 b 364 353 224 422 269 353 m 53 1028 l 1315 1028 l 1299 931 l 1115 931 l 951 0 l 836 0 l 1000 931 l 729 931 l 658 532 b 357 254 631 372 526 254 b 129 532 192 254 99 368 l 200 931 l 36 931 "},"त":{"ha":964,"x_min":0,"x_max":0,"o":"m 53 1028 l 1092 1028 l 1074 931 l 890 931 l 728 0 l 611 0 l 715 592 l 513 592 b 183 344 340 592 214 511 b 400 96 156 188 232 96 l 429 96 l 414 3 l 378 3 b 67 349 171 3 28 119 b 524 692 108 589 294 692 l 732 692 l 775 931 l 36 931 "},"थ":{"ha":1063,"x_min":0,"x_max":0,"o":"m 767 318 b 428 138 721 233 596 138 b 108 515 197 138 67 285 b 126 589 113 540 118 564 l 263 589 b 583 786 404 589 554 625 b 460 940 599 872 556 940 b 274 719 340 940 272 842 l 168 719 b 476 1040 171 899 288 1040 b 693 783 635 1040 719 933 b 289 504 658 590 496 504 b 219 504 261 504 239 504 b 461 235 189 346 274 235 b 803 526 619 235 771 346 l 890 1028 l 1190 1028 l 1174 931 l 990 931 l 826 0 l 710 0 "},"द":{"ha":849,"x_min":0,"x_max":0,"o":"m 56 1028 l 975 1028 l 957 931 l 758 931 l 714 678 l 508 678 b 206 453 363 678 233 604 b 386 231 183 319 256 231 b 617 419 476 231 593 288 l 722 419 l 646 -22 l 532 -22 l 579 247 b 340 138 529 181 440 138 b 89 460 169 138 54 261 b 515 778 128 681 311 778 l 615 778 l 642 931 l 38 931 "},"ध":{"ha":992,"x_min":0,"x_max":0,"o":"m 354 136 b 97 381 193 136 69 224 b 303 579 121 506 219 567 l 303 583 b 165 814 215 604 142 679 b 436 1040 188 949 294 1040 b 624 774 593 1040 669 936 l 535 774 b 426 943 561 874 524 943 b 264 800 344 943 276 879 b 431 631 243 693 307 631 l 524 631 l 507 536 l 433 536 b 217 392 306 536 231 476 b 399 233 199 288 282 233 b 733 515 561 233 704 347 l 733 515 l 808 931 l 807 931 l 822 1028 l 1119 1028 l 1103 931 l 922 931 l 758 0 l 642 0 l 696 306 b 354 136 622 201 500 136 "},"न":{"ha":1096,"x_min":0,"x_max":0,"o":"m 328 261 b 531 432 428 261 513 336 b 388 603 549 531 489 603 b 178 431 282 603 197 532 b 328 261 161 331 221 261 m 53 1028 l 1224 1028 l 1207 931 l 1024 931 l 860 0 l 744 0 l 851 603 l 579 603 b 622 418 615 561 636 499 b 314 163 596 260 463 163 b 72 436 149 163 44 278 b 413 700 103 606 239 700 l 868 700 l 908 931 l 36 931 "},"प":{"ha":910,"x_min":0,"x_max":0,"o":"m 421 372 b 657 565 546 372 629 458 l 721 931 l 306 931 l 251 618 b 421 372 225 468 281 372 m 53 1028 l 1036 1028 l 1019 931 l 836 931 l 674 0 l 558 0 l 626 388 b 382 274 571 318 488 274 b 135 618 189 274 99 413 l 192 931 l 36 931 "},"फ":{"ha":1368,"x_min":0,"x_max":0,"o":"m 407 372 b 635 586 532 372 615 471 l 635 586 l 696 931 l 306 931 l 251 613 b 407 372 224 465 269 372 m 53 1028 l 1496 1028 l 1478 931 l 811 931 l 758 631 b 1031 776 813 714 904 776 b 1264 464 1197 776 1297 649 b 917 142 1228 260 1083 142 b 829 153 885 142 853 146 l 844 243 b 906 236 863 239 886 236 b 1146 458 1022 236 1121 319 b 979 676 1169 592 1094 676 b 726 454 835 676 754 565 l 647 0 l 532 0 l 600 388 b 365 274 546 318 465 274 b 135 613 178 274 99 408 l 192 931 l 36 931 "},"ब":{"ha":957,"x_min":0,"x_max":0,"o":"m 658 276 b 368 126 601 192 500 126 b 89 463 182 126 53 261 b 476 790 124 665 285 790 b 722 642 611 790 690 724 l 772 931 l 36 931 l 53 1028 l 1083 1028 l 1067 931 l 883 931 l 721 0 l 610 0 m 488 711 b 303 649 421 711 356 689 l 626 315 b 696 461 664 360 688 413 b 488 711 718 582 654 711 m 403 213 b 585 275 476 213 538 238 l 261 608 b 190 458 225 568 200 518 b 403 213 163 303 264 213 "},"भ":{"ha":1103,"x_min":0,"x_max":0,"o":"m 311 239 b 488 422 403 239 468 307 l 507 535 l 382 535 b 190 386 285 535 207 479 b 311 239 174 296 228 239 m 299 140 b 82 386 146 140 57 239 b 394 631 111 544 240 631 l 524 631 l 547 761 b 451 940 567 869 542 940 b 299 794 376 940 317 886 b 296 742 296 779 294 761 l 181 742 b 183 799 179 760 181 781 b 463 1040 208 943 313 1040 b 653 743 635 1040 685 918 l 633 631 l 861 631 l 931 1028 l 1231 1028 l 1214 931 l 1031 931 l 865 0 l 750 0 l 844 535 l 617 535 l 599 428 b 299 140 565 243 460 140 "},"म":{"ha":1092,"x_min":0,"x_max":0,"o":"m 274 239 b 450 422 367 239 429 307 l 469 535 l 342 535 b 153 386 246 535 168 479 b 274 239 136 296 192 239 m 903 931 l 649 931 l 596 631 l 850 631 m 53 1028 l 1218 1028 l 1201 931 l 1019 931 l 856 0 l 739 0 l 833 535 l 579 535 l 560 428 b 261 140 528 243 421 140 b 44 386 107 140 18 240 b 356 631 71 544 203 631 l 488 631 l 540 931 l 36 931 "},"य":{"ha":1024,"x_min":0,"x_max":0,"o":"m 446 253 b 763 517 603 253 736 360 l 763 515 l 836 931 l 556 931 l 536 815 b 215 546 504 636 392 553 b 214 536 215 543 214 539 b 446 253 182 363 272 253 m 53 1028 l 1151 1028 l 1133 931 l 951 931 l 788 0 l 672 0 l 725 300 b 413 156 663 218 556 156 b 101 547 183 156 58 310 b 117 613 104 567 111 590 l 138 613 b 425 835 290 613 394 668 l 442 931 l 36 931 "},"र":{"ha":744,"x_min":0,"x_max":0,"o":"m 54 1028 l 872 1028 l 854 931 l 690 931 l 667 797 b 293 471 629 592 508 471 l 224 471 l 190 281 b 321 88 168 168 213 88 b 503 267 418 88 485 160 l 507 293 l 619 293 b 617 269 618 283 617 275 b 313 -12 588 99 479 -12 b 76 288 129 -12 42 114 l 125 565 l 271 565 b 550 797 429 565 522 643 l 574 931 l 38 931 "},"ल":{"ha":1247,"x_min":0,"x_max":0,"o":"m 1136 429 b 749 96 1101 235 967 93 b 699 99 735 96 714 97 l 717 200 b 757 197 729 199 744 197 b 1019 433 900 197 994 296 b 879 651 1040 556 997 651 b 647 397 753 651 674 547 l 643 376 l 547 376 l 549 397 b 415 651 578 544 539 651 b 192 433 290 651 214 558 b 372 197 167 297 225 197 b 411 200 385 197 397 199 l 393 99 b 351 96 376 97 365 96 b 75 440 132 96 40 247 b 413 754 110 640 243 754 b 624 553 561 754 617 649 l 626 553 b 869 751 665 642 740 735 l 901 931 l 28 931 l 46 1028 l 1375 1028 l 1357 931 l 1015 931 l 982 746 b 1136 429 1103 713 1165 594 "},"व":{"ha":936,"x_min":0,"x_max":0,"o":"m 393 226 b 667 456 556 226 647 351 b 474 688 688 567 638 688 b 201 458 344 688 226 600 b 393 226 176 314 260 226 m 864 931 l 700 0 l 588 0 l 636 276 b 354 133 576 193 481 133 b 90 469 168 133 51 261 b 454 782 124 661 274 782 b 700 642 585 782 664 722 l 750 931 l 36 931 l 53 1028 l 1064 1028 l 1046 931 "},"श":{"ha":1131,"x_min":0,"x_max":0,"o":"m 336 -11 b 86 300 144 -11 53 113 l 129 543 l 332 543 b 638 754 476 543 611 608 b 497 939 657 868 597 939 b 288 694 368 939 288 831 l 172 694 b 508 1040 179 903 315 1040 b 753 743 675 1040 788 928 b 353 444 715 542 549 444 l 229 444 l 203 292 b 343 89 182 176 221 89 b 544 293 450 89 525 168 l 658 293 b 336 -11 633 115 525 -11 m 958 1028 l 1258 1028 l 1240 931 l 1058 931 l 894 0 l 778 0 "},"ष":{"ha":918,"x_min":0,"x_max":0,"o":"m 422 365 b 643 504 525 365 603 424 l 288 840 l 247 615 b 422 365 219 463 286 365 m 671 588 l 732 931 l 304 931 l 671 585 l 671 588 m 53 1028 l 1046 1028 l 1028 931 l 846 931 l 682 0 l 568 0 l 636 385 b 385 267 579 313 494 267 b 135 618 196 267 97 407 l 192 931 l 36 931 "},"स":{"ha":1138,"x_min":0,"x_max":0,"o":"m 647 804 b 522 581 629 700 581 628 l 888 581 l 950 931 l 669 931 l 647 804 m 54 1028 l 1265 1028 l 1247 931 l 1065 931 l 901 0 l 786 0 l 871 485 l 225 485 l 189 282 b 324 88 169 168 211 88 b 510 283 431 88 493 171 l 622 283 b 314 -12 600 110 492 -12 b 75 293 131 -12 44 117 l 125 571 l 254 571 b 532 804 413 571 507 663 l 554 931 l 36 931 "},"ह":{"ha":826,"x_min":0,"x_max":0,"o":"m 671 86 b 331 -144 633 -32 513 -144 b 57 168 125 -144 26 -4 b 250 424 76 282 149 375 b 164 593 193 453 149 507 b 421 768 186 711 289 768 l 600 768 l 631 931 l 50 931 l 67 1028 l 954 1028 l 938 931 l 740 931 l 713 768 l 696 683 l 443 683 b 275 571 365 683 289 654 b 351 457 264 513 297 475 b 429 464 376 461 403 464 b 699 235 621 464 700 340 l 586 235 b 413 371 582 296 532 371 b 168 161 282 371 189 275 b 340 -47 146 43 206 -47 b 560 86 454 -47 531 22 l 671 86 "},"ळ":{"ha":1375,"x_min":0,"x_max":0,"o":"m 363 232 b 611 444 488 232 589 319 b 438 663 633 572 564 663 b 188 443 315 663 210 576 b 363 232 164 317 240 232 m 900 232 b 1151 443 1022 232 1129 317 b 976 663 1174 576 1100 663 b 726 444 850 663 750 572 b 900 232 704 319 774 232 m 901 132 b 650 326 757 132 667 217 l 646 326 b 332 132 593 217 476 132 b 74 444 156 132 40 258 b 438 763 107 638 263 763 b 690 571 582 763 664 679 l 693 571 b 968 761 749 669 842 747 l 999 931 l 25 931 l 43 1028 l 1501 1028 l 1483 931 l 1111 931 l 1079 754 b 1264 444 1213 725 1293 610 b 901 132 1232 258 1078 132 "},"क़":{"ha":1382,"x_min":0,"x_max":0,"o":"m 601 279 b 333 136 547 197 457 136 b 88 461 163 136 51 263 b 440 776 122 654 267 776 b 664 632 568 776 639 714 l 717 931 l 36 931 l 53 1028 l 1508 1028 l 1490 931 l 828 931 l 775 635 b 1036 776 828 715 915 776 b 1274 457 1203 776 1308 644 b 928 142 1238 254 1096 142 b 844 151 899 142 868 144 l 860 243 b 918 238 876 239 897 238 b 1158 458 1029 238 1133 318 b 990 676 1181 590 1107 676 b 746 468 853 676 774 574 l 664 0 l 553 0 m 381 233 b 629 436 524 235 606 343 l 635 463 b 457 676 650 564 606 676 b 206 458 340 676 229 593 b 381 233 181 317 260 233 m 261 -132 b 196 -56 217 -132 189 -99 b 288 24 203 -11 243 24 b 351 -56 331 24 358 -11 b 261 -132 344 -99 304 -132 "},"ख़":{"ha":1296,"x_min":0,"x_max":0,"o":"m 997 303 b 769 189 950 239 875 189 b 718 194 751 189 735 190 b 371 -4 646 85 526 -4 b 85 338 161 -4 47 122 l 124 554 l 172 554 b 407 763 278 554 379 597 l 436 931 l 36 931 l 54 1028 l 1424 1028 l 1406 931 l 1224 931 l 1061 0 l 944 0 m 301 -268 b 236 -192 257 -268 229 -235 b 328 -112 243 -147 283 -112 b 392 -192 371 -112 399 -147 b 301 -268 385 -235 344 -268 m 807 279 b 1028 474 938 279 1013 383 b 871 667 1044 563 1006 667 b 650 476 767 667 671 597 b 807 279 628 350 703 279 m 392 97 b 632 232 503 97 585 161 b 550 488 564 282 531 374 b 863 757 578 656 713 760 b 1058 643 971 756 1032 707 l 1108 931 l 553 931 l 521 749 b 224 468 483 538 356 468 l 199 325 b 392 97 174 189 246 97 "},"ग़":{"ha":1036,"x_min":0,"x_max":0,"o":"m 846 931 l 599 931 l 533 556 b 268 311 511 422 429 311 b 72 549 119 311 47 410 l 81 590 l 194 590 l 186 547 b 276 411 174 481 190 411 b 417 551 369 411 406 483 l 483 931 l 36 931 l 53 1028 l 1163 1028 l 1146 931 l 963 931 l 799 0 l 683 0 m 222 39 b 157 115 178 39 150 72 b 249 194 164 160 204 194 b 313 115 292 194 319 160 b 222 39 306 72 265 39 "},"ज़":{"ha":1167,"x_min":0,"x_max":0,"o":"m 53 1028 l 1294 1028 l 1276 931 l 1096 931 l 931 0 l 815 0 l 919 593 l 657 593 l 633 461 b 317 182 604 297 488 181 b 96 465 156 182 67 300 l 136 693 l 253 693 l 213 464 b 332 283 193 357 238 283 b 519 464 429 283 500 357 l 561 693 l 938 693 l 979 931 l 36 931 m 274 -83 b 208 -7 229 -83 201 -50 b 300 72 215 38 256 72 b 364 -7 343 72 371 38 b 274 -83 357 -50 317 -83 "},"ड़":{"ha":799,"x_min":0,"x_max":0,"o":"m 56 1028 l 926 1028 l 910 931 l 717 931 l 671 679 l 435 679 b 246 564 357 679 264 658 b 375 449 231 478 297 449 l 436 449 b 681 211 581 449 711 382 b 350 -19 656 75 543 -19 b 53 249 143 -19 28 92 l 168 249 b 358 69 151 146 214 69 b 569 215 478 69 556 132 b 401 365 590 331 500 365 l 346 365 b 131 567 233 365 104 415 b 415 763 156 713 289 763 l 574 763 l 604 931 l 39 931 m 293 -286 b 228 -210 249 -286 221 -253 b 319 -131 235 -165 275 -131 b 383 -210 363 -131 390 -165 b 293 -286 376 -253 336 -286 "},"ढ़":{"ha":889,"x_min":0,"x_max":0,"o":"m 53 1028 l 1017 1028 l 999 931 l 743 931 l 701 692 l 569 692 b 188 390 388 692 222 593 b 443 97 157 219 256 97 b 708 282 576 97 688 171 b 594 425 722 365 675 425 b 447 304 522 425 460 379 b 444 276 446 296 444 285 l 360 276 b 363 318 360 289 361 306 b 613 510 383 440 486 510 b 807 279 747 510 831 415 b 431 11 778 119 635 11 b 76 399 193 11 35 167 b 551 775 121 653 324 775 l 606 775 l 633 931 l 35 931 m 346 -254 b 281 -178 301 -254 274 -221 b 372 -99 288 -133 328 -99 b 436 -178 415 -99 443 -133 b 346 -254 429 -221 389 -254 "},"फ़":{"ha":1368,"x_min":0,"x_max":0,"o":"m 407 372 b 635 586 532 372 615 471 l 635 586 l 696 931 l 306 931 l 251 613 b 407 372 224 465 269 372 m 53 1028 l 1496 1028 l 1478 931 l 811 931 l 758 631 b 1031 776 813 714 904 776 b 1264 464 1197 776 1297 649 b 917 142 1228 260 1083 142 b 829 153 885 142 853 146 l 844 243 b 906 236 863 239 886 236 b 1146 458 1022 236 1121 319 b 979 676 1169 592 1094 676 b 726 454 835 676 754 565 l 647 0 l 532 0 l 600 388 b 365 274 546 318 465 274 b 135 613 178 274 99 408 l 192 931 l 36 931 m 274 13 b 208 89 229 13 201 46 b 300 168 215 133 256 168 b 364 89 343 168 371 133 b 274 13 357 46 317 13 "},"ऱ":{"ha":744,"x_min":0,"x_max":0,"o":"m 54 1028 l 872 1028 l 854 931 l 690 931 l 667 797 b 293 471 629 592 508 471 l 224 471 l 190 281 b 321 88 168 168 213 88 b 503 267 418 88 485 160 l 507 293 l 619 293 b 617 269 618 283 617 275 b 313 -12 588 99 479 -12 b 76 288 129 -12 42 114 l 125 565 l 271 565 b 550 797 429 565 522 643 l 574 931 l 38 931 m 40 -222 b -25 -146 -4 -222 -32 -189 b 67 -67 -18 -101 22 -67 b 131 -146 110 -67 138 -101 b 40 -222 124 -189 83 -222 "},"ं":{"ha":0,"x_min":0,"x_max":0,"o":"m -90 1160 b -156 1238 -135 1160 -162 1194 b -65 1315 -149 1281 -108 1315 b 0 1238 -19 1315 7 1281 b -90 1160 -7 1194 -47 1160 "},"ँ":{"ha":0,"x_min":0,"x_max":0,"o":"m -87 1136 b -335 1381 -269 1136 -360 1249 l -242 1381 b -82 1221 -254 1303 -210 1221 b 136 1381 47 1221 122 1303 l 231 1381 b -87 1136 206 1249 101 1136 m -56 1364 b -103 1421 -89 1364 -108 1389 b -35 1479 -97 1453 -68 1479 b 13 1421 -1 1479 19 1453 b -56 1364 7 1389 -22 1364 "},"ः":{"ha":322,"x_min":0,"x_max":0,"o":"m 185 606 b 121 683 142 606 113 639 b 213 761 128 726 168 761 b 276 683 256 761 283 726 b 185 606 268 639 229 606 m 111 183 b 46 261 67 183 39 218 b 138 339 54 304 93 339 b 201 261 181 339 210 304 b 111 183 194 218 154 183 "},"ऽ":{"ha":800,"x_min":0,"x_max":0,"o":"m 49 185 l 381 185 b 503 272 453 185 496 222 b 232 767 531 424 190 539 b 471 933 253 888 356 933 l 753 933 l 736 835 l 482 835 b 347 750 426 835 360 819 b 618 256 319 594 657 479 b 390 85 601 161 525 85 l 31 85 "},"्":{"ha":0,"x_min":0,"x_max":0,"o":"m -361 -85 l -246 -85 l -124 -361 l -242 -361 "},"़":{"ha":0,"x_min":0,"x_max":0,"o":"m -511 -206 b -576 -129 -556 -206 -583 -172 b -485 -50 -569 -85 -529 -50 b -421 -129 -442 -50 -414 -85 b -511 -206 -428 -172 -468 -206 "},"०":{"ha":872,"x_min":0,"x_max":0,"o":"m 106 504 b 543 1007 156 786 265 1007 b 803 504 821 1007 853 786 b 365 0 753 221 643 0 b 106 504 88 0 56 221 m 679 504 b 524 892 715 711 721 892 b 229 504 325 892 265 711 b 385 115 193 296 188 115 b 679 504 583 115 642 296 "},"१":{"ha":444,"x_min":0,"x_max":0,"o":"m 268 869 l 135 869 l 156 985 l 417 985 l 243 0 l 115 0 "},"२":{"ha":799,"x_min":0,"x_max":0,"o":"m 18 101 b 640 713 319 314 606 514 b 488 903 658 818 625 903 b 247 686 358 903 276 813 l 125 686 b 507 1011 171 900 326 1011 b 767 718 696 1011 799 900 b 211 117 724 475 417 263 l 689 117 l 671 11 l 1 11 "},"३":{"ha":818,"x_min":0,"x_max":0,"o":"m 144 751 b 524 1024 188 924 338 1024 b 779 765 719 1024 804 910 b 561 536 758 650 672 560 l 561 529 b 711 271 672 501 735 415 b 344 -7 682 115 554 -7 b 49 289 154 -7 29 94 l 171 289 b 361 100 164 182 228 100 b 593 282 494 100 575 179 b 347 478 617 424 528 478 l 314 478 l 333 583 l 368 583 b 656 753 536 585 635 636 b 500 915 672 849 621 915 b 268 751 382 915 299 849 l 144 751 "},"४":{"ha":874,"x_min":0,"x_max":0,"o":"m 539 224 l 24 224 l 40 319 l 647 994 l 799 994 l 683 333 l 822 333 l 801 224 l 663 224 l 624 0 l 499 0 m 564 333 l 657 863 l 190 333 "},"५":{"ha":872,"x_min":0,"x_max":0,"o":"m 833 1006 l 815 894 l 326 894 l 271 578 b 517 679 322 635 418 679 b 782 347 761 679 810 503 b 376 -3 747 153 611 -3 b 79 272 176 -3 75 110 l 201 272 b 396 104 207 167 279 104 b 661 344 549 104 636 207 b 481 571 686 488 626 571 b 249 439 378 571 296 518 l 129 439 l 229 1006 "},"६":{"ha":882,"x_min":0,"x_max":0,"o":"m 710 765 b 547 919 707 863 661 919 b 231 511 388 919 282 810 b 531 665 292 610 411 665 b 785 331 718 665 822 542 b 397 -3 753 147 618 -3 b 122 515 101 -3 68 211 b 568 1025 178 831 314 1025 b 826 765 758 1025 835 906 m 485 558 b 217 340 371 558 243 490 b 410 103 193 207 251 103 b 663 326 540 103 639 190 b 485 558 688 468 631 558 "},"७":{"ha":758,"x_min":0,"x_max":0,"o":"m 811 1001 l 793 906 l 247 0 l 108 0 l 668 894 l 133 894 l 151 1001 "},"८":{"ha":876,"x_min":0,"x_max":0,"o":"m 293 533 b 172 763 199 574 153 651 b 550 1031 199 911 332 1031 b 832 763 767 1031 858 910 b 629 533 813 654 736 571 b 774 276 738 497 796 407 b 363 -28 739 89 575 -28 b 61 276 151 -28 28 89 b 293 533 85 408 175 499 m 531 925 b 292 747 407 925 313 864 b 469 574 274 643 346 574 b 708 749 593 574 689 644 b 531 925 728 863 657 925 m 451 478 b 183 281 322 478 207 418 b 382 78 161 157 238 78 b 649 281 525 78 628 158 b 451 478 674 415 583 478 "},"९":{"ha":875,"x_min":0,"x_max":0,"o":"m 225 269 b 399 104 226 165 281 104 b 690 499 544 104 642 204 b 417 365 635 414 526 365 b 153 693 232 365 115 481 b 543 1024 186 885 325 1024 b 804 521 814 1024 858 832 b 372 -1 746 186 636 -1 b 108 269 172 -1 97 122 m 457 472 b 707 686 578 472 683 551 b 526 918 731 822 671 918 b 275 696 396 918 299 829 b 457 472 253 567 307 472 "},"ॐ":{"ha":1467,"x_min":0,"x_max":0,"o":"m 297 17 b 40 299 117 17 11 131 l 150 299 b 310 117 131 193 197 117 b 526 304 421 117 506 193 b 361 485 540 389 503 485 l 307 485 l 325 583 l 379 583 b 588 747 500 583 574 665 b 444 919 607 856 539 919 b 242 761 346 919 258 858 l 132 761 b 464 1018 161 919 297 1018 b 699 763 626 1018 725 918 b 489 539 678 653 606 565 l 489 535 b 542 517 508 531 526 525 l 625 517 b 813 679 718 517 789 553 b 1122 953 842 842 926 953 b 1332 610 1321 953 1369 818 l 1299 421 b 878 35 1254 169 1126 35 b 743 49 836 35 792 40 l 760 146 b 876 135 803 139 843 135 b 1186 424 1078 135 1154 244 l 1222 624 b 1104 854 1246 763 1224 854 b 921 678 989 854 938 775 b 624 425 888 493 796 425 l 622 425 b 632 293 638 386 639 340 b 297 17 601 125 468 17 m 874 1033 b 619 1278 676 1033 596 1150 l 714 1278 b 879 1119 700 1201 747 1119 b 1090 1278 1011 1119 1076 1201 l 1185 1278 b 874 1033 1164 1146 1065 1033 m 899 1261 b 851 1319 867 1261 846 1286 b 918 1378 856 1351 886 1378 b 967 1319 951 1378 972 1351 b 899 1261 961 1286 932 1261 "},"॰":{"ha":685,"x_min":0,"x_max":0,"o":"m 383 708 b 574 482 517 708 596 615 b 308 260 550 353 443 260 b 113 485 172 260 89 354 b 383 708 136 615 246 708 m 372 636 b 186 485 279 636 201 574 b 319 333 171 396 226 333 b 497 482 408 333 482 394 b 372 636 513 572 463 636 "},"।":{"ha":392,"x_min":0,"x_max":0,"o":"m 242 0 l 128 0 l 308 1029 l 422 1029 "},"॥":{"ha":685,"x_min":0,"x_max":0,"o":"m 242 0 l 128 0 l 308 1029 l 422 1029 m 535 0 l 419 0 l 600 1029 l 715 1029 "},"₨":{"ha":1540,"x_min":0,"x_max":0,"o":"m 675 683 b 503 868 694 796 647 868 l 317 868 l 251 500 l 438 500 b 675 683 582 500 656 575 m 521 968 b 804 683 749 968 832 842 b 504 406 782 554 688 435 l 697 0 l 543 0 l 358 400 l 235 400 l 163 0 l 36 0 l 208 968 m 876 550 b 1200 774 899 674 1022 774 b 1440 532 1364 774 1457 682 l 1311 532 b 1174 672 1318 614 1275 672 b 1000 554 1076 672 1014 622 b 1392 206 967 358 1443 496 b 1075 -12 1368 78 1238 -12 b 817 231 904 -12 801 75 l 947 231 b 1093 89 939 147 990 89 b 1268 208 1192 89 1256 139 b 876 550 1303 406 828 274 "},"₹":{"ha":882,"x_min":0,"x_max":0,"o":"m 171 969 l 926 969 l 910 876 l 731 876 l 708 750 b 704 726 707 742 706 735 l 883 726 l 867 635 l 682 635 b 249 383 622 446 507 383 l 229 274 b 361 86 210 164 239 86 b 553 267 475 86 533 156 l 671 267 b 342 -14 635 79 518 -14 b 111 276 156 -14 81 96 l 146 472 b 564 635 439 472 521 489 l 111 635 l 128 726 l 586 726 b 590 751 588 735 589 743 l 613 876 l 154 876 "},"‌":{"ha":0,"x_min":0,"x_max":0,"o":"m -32 -319 l -32 1126 l 33 1126 l 33 -319 "},"‍":{"ha":0,"x_min":0,"x_max":0,"o":"m 132 778 l 32 882 l 32 -319 l -33 -319 l -33 882 l -129 781 l -175 826 l -46 956 l -178 1088 l -132 1133 l 0 1001 l 133 1133 l 178 1089 l 44 956 l 178 824 "},"◌":{"ha":904,"x_min":0,"x_max":0,"o":"m 774 568 b 714 510 774 533 749 510 b 654 568 679 510 654 533 b 714 626 654 603 679 626 b 774 568 749 626 774 603 m 251 171 b 192 113 251 136 226 113 b 132 171 157 113 132 136 b 192 229 132 206 157 229 b 251 171 226 229 251 206 m 388 65 b 328 7 388 31 363 7 b 268 65 293 7 268 31 b 328 124 268 100 293 124 b 388 65 363 124 388 100 m 189 328 b 129 269 189 293 164 269 b 69 328 94 269 69 293 b 129 386 69 363 94 386 b 189 328 164 386 189 363 m 560 46 b 500 -12 560 11 535 -12 b 440 46 465 -12 440 11 b 500 104 440 81 465 104 b 560 46 535 104 560 81 m 210 496 b 150 438 210 461 185 438 b 90 496 115 438 90 461 b 150 554 90 531 115 554 b 210 496 185 554 210 531 m 719 110 b 660 51 719 75 694 51 b 600 110 625 51 600 75 b 660 168 600 144 625 168 b 719 110 694 168 719 144 m 315 633 b 256 575 315 599 290 575 b 196 633 221 575 196 599 b 256 692 196 668 221 692 b 315 633 290 692 315 668 m 821 243 b 761 185 821 208 796 185 b 701 243 726 185 701 208 b 761 301 701 278 726 301 b 821 243 796 301 821 278 m 478 692 b 418 633 478 657 453 633 b 358 692 383 633 358 657 b 418 750 358 726 383 750 b 478 692 453 750 478 726 m 835 410 b 775 351 835 375 810 351 b 715 410 740 351 715 375 b 775 468 715 444 740 468 b 835 410 810 468 835 444 m 646 671 b 586 613 646 636 621 613 b 526 671 551 613 526 636 b 586 729 526 706 551 729 b 646 671 621 729 646 706 "},"!":{"ha":414,"x_min":0,"x_max":0,"o":"m 236 968 l 371 968 l 233 274 l 128 274 m 236 78 b 136 -8 228 29 183 -8 b 65 78 88 -8 57 29 b 167 164 74 126 118 164 b 236 78 214 164 244 126 "},"\"":{"ha":406,"x_min":0,"x_max":0,"o":"m 174 1106 l 293 1106 l 229 829 l 142 829 m 361 1106 l 479 1106 l 417 829 l 329 829 "},"#":{"ha":1167,"x_min":0,"x_max":0,"o":"m 796 639 l 504 639 l 406 389 l 697 389 m 654 278 l 363 278 l 254 0 l 133 0 l 242 278 l 25 278 l 44 389 l 285 389 l 383 639 l 167 639 l 188 750 l 426 750 l 535 1028 l 656 1028 l 547 750 l 839 750 l 947 1028 l 1068 1028 l 960 750 l 1153 750 l 1133 639 l 917 639 l 818 389 l 1011 389 l 990 278 l 775 278 l 667 0 l 546 0 "},"$":{"ha":864,"x_min":0,"x_max":0,"o":"m 300 -8 b 58 251 135 6 35 104 l 193 251 b 318 96 188 179 221 111 l 379 443 b 139 711 247 479 104 518 b 474 979 164 863 297 968 l 494 1094 l 569 1094 l 549 979 b 778 732 704 964 788 872 l 643 732 b 531 871 646 790 611 853 l 471 533 b 708 265 603 499 743 458 b 375 -8 686 136 567 4 l 356 -121 l 281 -121 m 581 258 b 451 422 597 357 535 394 l 393 94 b 581 258 499 107 565 175 m 268 718 b 400 554 250 619 315 581 l 456 875 b 268 718 361 868 285 817 "},"%":{"ha":938,"x_min":0,"x_max":0,"o":"m 124 778 b 363 982 146 904 246 982 b 529 778 478 982 551 904 b 290 572 507 651 406 572 b 124 778 174 572 101 651 m 349 904 b 224 778 286 904 238 861 b 304 651 208 694 242 651 b 429 778 365 651 414 694 b 349 904 443 861 410 904 m 788 969 l 913 969 l 179 0 l 53 0 m 440 192 b 679 397 463 319 563 397 b 844 192 793 397 867 319 b 607 -14 822 65 722 -14 b 440 192 490 -14 418 65 m 664 318 b 539 192 603 318 554 276 b 619 67 524 108 558 67 b 744 192 681 67 729 108 b 664 318 758 276 725 318 "},"&":{"ha":1042,"x_min":0,"x_max":0,"o":"m 638 772 b 639 793 639 779 639 786 b 536 883 639 850 597 883 b 390 746 451 883 390 821 b 460 596 390 700 414 657 l 699 306 b 731 346 708 318 719 332 l 854 503 l 990 503 l 842 306 b 769 218 818 274 794 244 l 949 0 l 785 0 l 681 128 b 324 -17 571 31 458 -17 b 29 231 143 -17 29 76 b 315 579 29 390 146 515 b 261 725 278 632 261 676 b 556 988 261 879 382 988 b 767 810 688 988 767 911 b 764 772 767 797 765 785 m 342 92 b 613 213 440 92 525 131 l 379 497 b 158 249 249 450 158 367 b 342 92 158 157 229 92 "},"'":{"ha":221,"x_min":0,"x_max":0,"o":"m 174 1106 l 296 1106 l 231 829 l 143 829 "},"(":{"ha":632,"x_min":0,"x_max":0,"o":"m 319 -258 b 153 276 213 -129 153 58 b 614 1297 153 658 325 1068 l 746 1297 l 744 1285 b 278 301 457 1051 278 669 b 453 -246 278 96 336 -96 l 451 -258 "},")":{"ha":631,"x_min":0,"x_max":0,"o":"m 524 740 b 88 -258 524 369 357 -31 l -44 -258 l -43 -246 b 400 718 235 -4 400 361 b 206 1285 400 929 340 1132 l 208 1297 l 340 1297 b 524 740 463 1163 524 964 "},"*":{"ha":675,"x_min":0,"x_max":0,"o":"m 439 808 l 631 931 l 665 840 l 457 760 l 636 679 l 571 588 l 422 710 l 408 500 l 306 500 l 363 710 l 171 586 l 133 681 l 342 761 l 164 840 l 229 931 l 381 808 l 396 1019 l 500 1019 "},"+":{"ha":949,"x_min":0,"x_max":0,"o":"m 617 863 l 564 564 l 858 564 l 838 451 l 544 451 l 492 154 l 371 154 l 424 451 l 131 451 l 150 564 l 443 564 l 496 863 "},",":{"ha":275,"x_min":0,"x_max":0,"o":"m 58 175 l 197 175 l -24 -199 l -108 -199 "},"-":{"ha":765,"x_min":0,"x_max":0,"o":"m 110 563 l 664 563 l 644 456 l 90 456 "},".":{"ha":292,"x_min":0,"x_max":0,"o":"m 175 78 b 75 -8 167 29 122 -8 b 4 78 26 -8 -4 29 b 106 164 13 126 57 164 b 175 78 153 164 183 126 "},"/":{"ha":661,"x_min":0,"x_max":0,"o":"m 613 1308 l 739 1308 l 86 -236 l -39 -236 "},":":{"ha":296,"x_min":0,"x_max":0,"o":"m 175 78 b 75 -8 167 29 122 -8 b 4 78 26 -8 -4 29 b 106 164 13 126 57 164 b 175 78 153 164 183 126 m 175 672 b 75 586 167 624 122 586 b 4 672 26 586 -4 624 b 106 758 13 721 57 758 b 175 672 153 758 183 721 "},";":{"ha":367,"x_min":0,"x_max":0,"o":"m 321 674 b 221 588 313 625 268 588 b 150 674 172 588 142 625 b 251 760 158 722 203 760 b 321 674 299 760 329 722 m 93 175 l 232 175 l 11 -199 l -74 -199 "},"<":{"ha":771,"x_min":0,"x_max":0,"o":"m 574 189 l 415 189 l 136 508 l 526 826 l 686 826 l 294 508 "},"=":{"ha":1004,"x_min":0,"x_max":0,"o":"m 143 415 l 865 415 l 846 303 l 124 303 m 196 714 l 918 714 l 899 601 l 176 601 "},">":{"ha":749,"x_min":0,"x_max":0,"o":"m 486 508 l 207 826 l 365 826 l 644 508 l 254 189 l 94 189 "},"?":{"ha":728,"x_min":0,"x_max":0,"o":"m 104 701 b 457 981 133 869 276 981 b 714 694 639 981 746 871 b 329 408 678 492 522 408 l 300 276 l 190 276 l 224 496 l 264 496 b 593 694 424 496 563 526 b 440 875 613 806 553 875 b 224 701 326 875 243 810 l 104 701 m 294 78 b 194 -8 286 29 242 -8 b 124 78 146 -8 115 29 b 225 164 132 126 176 164 b 294 78 272 164 303 126 "},"@":{"ha":1404,"x_min":0,"x_max":0,"o":"m 1000 -10 b 849 119 906 -10 857 42 b 601 -10 792 39 699 -10 b 375 229 458 -10 375 85 b 715 624 375 436 514 624 b 893 524 803 624 863 590 l 908 610 l 1019 610 l 949 208 b 1018 76 936 129 949 76 b 1199 419 1139 76 1199 274 b 781 801 1199 661 1046 801 b 200 196 446 801 200 536 b 619 -186 200 -51 357 -186 b 849 -139 696 -186 779 -172 l 867 -225 b 593 -276 782 -260 689 -276 b 96 185 294 -276 96 -97 b 797 890 96 579 389 890 b 1301 426 1110 890 1301 701 b 1000 -10 1301 213 1193 -10 m 867 343 b 715 526 874 444 824 526 b 493 249 576 526 493 386 b 639 89 493 154 540 89 b 867 343 761 89 858 200 "},"A":{"ha":936,"x_min":0,"x_max":0,"o":"m 647 215 l 224 215 l 108 0 l -25 0 l 494 963 l 640 963 l 819 0 l 686 0 m 540 808 l 276 314 l 629 314 "},"B":{"ha":851,"x_min":0,"x_max":0,"o":"m 633 272 b 461 447 654 379 583 447 l 242 447 l 181 100 l 404 100 b 633 272 529 100 615 165 m 686 707 b 526 868 704 806 649 868 l 317 868 l 260 547 l 472 547 b 686 707 590 547 669 608 m 758 260 b 397 0 733 114 597 0 l 36 0 l 208 968 l 556 968 b 817 722 760 968 842 857 b 608 499 796 600 708 529 b 758 260 711 481 779 379 "},"C":{"ha":1072,"x_min":0,"x_max":0,"o":"m 75 485 b 644 981 126 775 375 981 b 1043 688 854 981 1003 875 l 892 688 b 625 865 858 800 767 865 b 204 485 422 865 246 718 b 490 106 164 253 289 106 b 819 282 632 106 747 171 l 971 282 b 471 -8 865 96 681 -8 b 75 485 200 -8 24 194 "},"D":{"ha":982,"x_min":0,"x_max":0,"o":"m 510 968 b 936 482 826 968 990 782 b 338 0 883 182 656 0 l 36 0 l 208 968 l 510 968 m 356 97 b 807 482 608 97 765 246 b 492 865 849 718 743 865 l 317 865 l 181 97 "},"E":{"ha":713,"x_min":0,"x_max":0,"o":"m 710 869 l 317 869 l 258 538 l 610 538 l 593 440 l 242 440 l 181 100 l 575 100 l 557 0 l 36 0 l 208 969 l 728 969 "},"F":{"ha":700,"x_min":0,"x_max":0,"o":"m 208 968 l 754 968 l 736 869 l 317 869 l 258 538 l 600 538 l 582 439 l 240 439 l 163 0 l 36 0 "},"G":{"ha":1081,"x_min":0,"x_max":0,"o":"m 75 485 b 647 979 126 775 375 979 b 1043 688 853 979 1003 874 l 892 688 b 628 865 858 800 764 865 b 204 485 424 865 246 718 b 493 106 164 253 289 106 b 890 422 685 106 838 228 l 504 422 l 522 522 l 1043 522 l 1025 425 b 474 -8 961 185 736 -8 b 75 485 201 -8 24 194 "},"H":{"ha":960,"x_min":0,"x_max":0,"o":"m 733 442 l 242 442 l 163 0 l 36 0 l 208 968 l 335 968 l 258 540 l 751 540 l 826 968 l 953 968 l 782 0 l 656 0 "},"I":{"ha":342,"x_min":0,"x_max":0,"o":"m 208 968 l 335 968 l 163 0 l 36 0 "},"J":{"ha":736,"x_min":0,"x_max":0,"o":"m 567 968 l 694 968 l 568 253 b 254 -10 539 92 414 -10 b 33 263 93 -10 3 93 l 160 263 b 275 103 144 174 174 103 b 442 253 374 103 426 172 "},"K":{"ha":832,"x_min":0,"x_max":0,"o":"m 242 442 l 163 0 l 36 0 l 208 968 l 335 968 l 256 521 l 735 968 l 893 968 l 369 483 l 726 0 l 561 0 "},"L":{"ha":600,"x_min":0,"x_max":0,"o":"m 335 968 l 181 97 l 519 97 l 501 0 l 36 0 l 208 968 "},"M":{"ha":1196,"x_min":0,"x_max":0,"o":"m 207 961 l 343 961 l 558 167 l 1053 961 l 1188 961 l 1018 0 l 892 0 l 1018 717 l 572 0 l 483 0 l 289 714 l 163 0 l 36 0 "},"N":{"ha":976,"x_min":0,"x_max":0,"o":"m 969 969 l 797 0 l 671 0 l 300 771 l 163 0 l 36 0 l 208 969 l 335 969 l 707 200 l 843 969 "},"O":{"ha":1092,"x_min":0,"x_max":0,"o":"m 1050 578 b 478 -10 1050 244 807 -10 b 72 393 233 -10 72 156 b 643 979 72 725 317 979 b 1050 578 890 979 1050 814 m 203 401 b 496 104 203 218 315 104 b 919 569 746 104 919 319 b 625 865 919 753 807 865 b 203 401 374 865 203 650 "},"P":{"ha":804,"x_min":0,"x_max":0,"o":"m 439 504 b 675 685 583 504 656 576 b 503 868 696 797 647 868 l 317 868 l 253 504 m 804 685 b 421 404 779 538 660 404 l 235 404 l 163 0 l 36 0 l 208 968 l 521 968 b 804 685 749 968 832 843 "},"Q":{"ha":1094,"x_min":0,"x_max":0,"o":"m 203 401 b 496 104 203 218 315 104 b 919 569 746 104 919 319 b 625 865 919 753 807 865 b 203 401 374 865 203 650 m 1050 578 b 746 54 1050 344 931 150 l 944 -183 l 781 -183 l 624 8 b 478 -10 578 -4 529 -10 b 72 393 233 -10 72 156 b 643 979 72 725 317 979 b 1050 578 890 979 1050 814 "},"R":{"ha":844,"x_min":0,"x_max":0,"o":"m 675 683 b 501 868 696 796 646 868 l 317 868 l 251 497 l 438 497 b 675 683 579 497 656 575 m 519 968 b 806 683 747 968 833 842 b 526 406 783 560 694 442 l 697 0 l 546 0 l 385 396 l 233 396 l 163 0 l 36 0 l 208 968 "},"S":{"ha":808,"x_min":0,"x_max":0,"o":"m 708 256 b 367 -10 703 104 571 -10 b 65 258 176 -10 47 94 l 190 258 b 372 93 185 176 239 93 b 578 246 493 93 572 147 b 125 707 593 479 115 400 b 460 981 126 871 264 981 b 757 732 654 981 764 874 l 625 732 b 453 876 631 803 574 876 b 253 728 339 876 258 821 b 708 256 239 508 724 571 "},"T":{"ha":751,"x_min":0,"x_max":0,"o":"m 149 968 l 803 968 l 785 869 l 521 869 l 368 0 l 242 0 l 394 869 l 131 869 "},"U":{"ha":938,"x_min":0,"x_max":0,"o":"m 206 968 l 332 968 l 224 357 b 417 103 193 181 275 103 b 700 357 561 103 668 181 l 808 968 l 935 968 l 826 357 b 396 -10 782 106 596 -10 b 97 357 196 -10 53 106 "},"V":{"ha":939,"x_min":0,"x_max":0,"o":"m 131 968 l 267 968 l 421 136 l 872 968 l 1008 968 l 471 0 l 325 0 "},"W":{"ha":1356,"x_min":0,"x_max":0,"o":"m 132 968 l 268 968 l 335 150 l 711 968 l 854 968 l 932 153 l 1288 968 l 1424 968 l 972 0 l 831 0 l 743 779 l 374 0 l 232 -1 "},"X":{"ha":863,"x_min":0,"x_max":0,"o":"m 421 379 l 133 0 l -8 0 l 375 485 l 164 968 l 306 968 l 471 590 l 760 968 l 901 968 l 518 483 l 729 0 l 586 0 "},"Y":{"ha":811,"x_min":0,"x_max":0,"o":"m 126 968 l 268 968 l 419 481 l 743 968 l 886 968 l 464 365 l 399 0 l 272 0 l 338 365 "},"Z":{"ha":751,"x_min":0,"x_max":0,"o":"m 765 868 l 163 110 l 636 110 l 615 0 l -7 0 l 11 100 l 614 858 l 149 858 l 169 968 l 783 968 "},"[":{"ha":588,"x_min":0,"x_max":0,"o":"m 344 1308 l 594 1308 l 576 1203 l 444 1203 l 208 -142 l 339 -142 l 319 -247 l 69 -247 "},"\\":{"ha":707,"x_min":0,"x_max":0,"o":"m 492 -236 l 368 -236 l 247 1308 l 372 1308 "},"]":{"ha":588,"x_min":0,"x_max":0,"o":"m 564 1297 l 290 -258 l 40 -258 l 58 -153 l 189 -153 l 428 1193 l 296 1193 l 314 1297 "},"^":{"ha":874,"x_min":0,"x_max":0,"o":"m 511 807 l 153 235 l 22 235 l 478 963 l 594 963 l 794 235 l 663 235 "},"_":{"ha":1018,"x_min":0,"x_max":0,"o":"m 65 -53 l 806 -53 l 785 -169 l 46 -169 "},"`":{"ha":357,"x_min":0,"x_max":0,"o":"m 146 1086 l 410 913 l 393 818 l 126 976 "},"a":{"ha":939,"x_min":0,"x_max":0,"o":"m 56 383 b 488 774 97 621 282 774 b 743 622 629 774 713 701 l 768 761 l 896 761 l 761 0 l 633 0 l 660 142 b 347 -12 599 60 488 -12 b 56 383 144 -12 14 147 m 701 382 b 493 664 733 558 632 664 b 186 383 354 664 217 563 b 393 99 154 204 254 99 b 701 382 532 99 669 203 "},"b":{"ha":939,"x_min":0,"x_max":0,"o":"m 272 619 b 583 774 336 704 449 774 b 876 383 790 774 918 621 b 446 -12 835 147 650 -12 b 188 140 307 -12 221 57 l 163 0 l 36 0 l 218 1028 l 344 1028 l 272 619 m 747 383 b 539 664 779 563 679 664 b 231 382 401 664 263 558 b 439 99 199 203 301 99 b 747 383 579 99 715 204 "},"c":{"ha":843,"x_min":0,"x_max":0,"o":"m 56 382 b 497 774 99 621 281 774 b 803 517 686 774 792 676 l 667 517 b 478 667 657 608 590 667 b 186 382 339 667 218 568 b 378 94 153 193 239 94 b 618 244 489 94 574 149 l 754 244 b 358 -12 689 93 547 -12 b 56 382 142 -12 13 140 "},"d":{"ha":939,"x_min":0,"x_max":0,"o":"m 56 383 b 489 774 97 621 282 774 b 744 625 608 774 706 713 l 815 1028 l 943 1028 l 761 0 l 633 0 l 660 143 b 349 -12 599 58 488 -12 b 56 383 144 -12 14 147 m 701 382 b 493 664 733 558 632 664 b 186 383 354 664 217 563 b 393 99 154 204 254 99 b 701 382 532 99 669 203 "},"e":{"ha":861,"x_min":0,"x_max":0,"o":"m 478 667 b 194 429 353 667 233 582 l 676 429 b 478 667 704 585 608 667 m 757 235 b 364 -12 693 96 553 -12 b 56 382 147 -12 13 140 b 501 774 99 622 281 774 b 804 413 722 774 840 618 b 786 338 800 386 794 364 l 178 338 b 383 94 158 182 251 94 b 621 235 497 94 579 153 l 757 235 "},"f":{"ha":457,"x_min":0,"x_max":0,"o":"m 175 657 l 78 657 l 96 761 l 193 761 l 203 815 b 525 1061 233 985 329 1061 l 507 956 b 331 815 393 956 347 914 l 321 761 l 481 761 l 463 657 l 303 657 l 186 0 l 60 0 "},"g":{"ha":939,"x_min":0,"x_max":0,"o":"m 56 383 b 488 774 97 621 282 774 b 743 622 625 774 714 704 l 768 761 l 896 761 l 758 -17 b 332 -375 721 -226 554 -375 b 10 -111 132 -375 6 -274 l 136 -111 b 351 -265 147 -203 226 -265 b 632 -17 486 -265 603 -179 l 660 143 b 349 -12 599 61 488 -12 b 56 383 144 -12 14 147 m 701 382 b 493 664 733 558 632 664 b 186 383 354 664 217 563 b 393 99 154 204 254 99 b 701 382 532 99 669 203 "},"h":{"ha":889,"x_min":0,"x_max":0,"o":"m 218 1028 l 344 1028 l 278 651 b 551 775 342 731 444 775 b 797 449 721 775 836 667 l 718 0 l 593 0 l 669 431 b 499 665 696 586 626 665 b 238 421 369 665 267 585 l 238 424 l 163 0 l 36 0 "},"i":{"ha":342,"x_min":0,"x_max":0,"o":"m 171 761 l 297 761 l 163 0 l 36 0 m 257 885 b 188 971 210 885 179 922 b 288 1057 196 1019 240 1057 b 357 971 335 1057 365 1019 b 257 885 349 922 304 885 "},"j":{"ha":344,"x_min":0,"x_max":0,"o":"m 261 885 b 190 971 213 885 182 922 b 290 1057 199 1019 243 1057 b 360 971 338 1057 368 1019 b 261 885 351 922 307 885 m 301 761 l 138 -165 b -97 -361 114 -303 32 -361 l -172 -361 l -153 -254 l -100 -254 b 11 -162 -31 -254 0 -229 l 175 761 "},"k":{"ha":715,"x_min":0,"x_max":0,"o":"m 218 1028 l 344 1028 l 238 425 l 590 761 l 765 761 l 342 381 l 633 0 l 461 0 l 222 335 l 163 0 l 36 0 "},"l":{"ha":342,"x_min":0,"x_max":0,"o":"m 218 1028 l 344 1028 l 163 0 l 36 0 "},"m":{"ha":1431,"x_min":0,"x_max":0,"o":"m 1211 431 b 1044 665 1238 586 1169 665 b 790 440 922 665 824 590 l 711 0 l 586 0 l 663 431 b 496 665 690 586 622 665 b 238 419 368 665 265 583 l 238 422 l 163 0 l 36 0 l 171 761 l 297 761 l 278 651 b 540 775 342 732 440 775 b 789 606 665 775 760 718 b 1089 775 853 715 972 775 b 1339 449 1261 775 1378 667 l 1260 0 l 1135 0 "},"n":{"ha":889,"x_min":0,"x_max":0,"o":"m 669 431 b 499 665 696 586 626 665 b 238 421 369 665 267 585 l 238 424 l 163 0 l 36 0 l 171 761 l 297 761 l 278 651 b 544 775 342 732 442 775 b 797 449 719 775 836 667 l 718 0 l 593 0 "},"o":{"ha":889,"x_min":0,"x_max":0,"o":"m 833 456 b 371 -12 833 194 633 -12 b 49 304 178 -12 49 114 b 507 774 49 564 243 774 b 833 456 700 774 833 649 m 179 310 b 386 94 179 167 272 94 b 703 449 571 94 703 263 b 489 667 703 596 604 667 b 179 310 303 667 179 499 "},"p":{"ha":939,"x_min":0,"x_max":0,"o":"m 272 621 b 583 774 333 701 446 774 b 876 383 789 774 918 621 b 446 -12 835 147 650 -12 b 188 140 307 -12 222 63 l 100 -361 l -26 -361 l 171 761 l 297 761 l 272 621 m 747 383 b 539 664 779 563 679 664 b 231 382 401 664 263 558 b 439 99 199 203 301 99 b 747 383 579 99 715 204 "},"q":{"ha":939,"x_min":0,"x_max":0,"o":"m 56 383 b 489 774 97 621 282 774 b 743 622 628 774 714 701 l 768 761 l 896 761 l 697 -361 l 571 -361 l 658 140 b 346 -12 603 63 488 -12 b 56 383 144 -12 14 147 m 701 382 b 493 664 733 558 632 664 b 186 383 354 664 217 563 b 393 99 154 204 254 99 b 701 382 532 99 669 203 "},"r":{"ha":518,"x_min":0,"x_max":0,"o":"m 236 414 l 163 0 l 36 0 l 171 761 l 297 761 l 272 617 b 546 775 332 714 425 775 l 522 644 l 489 644 b 236 414 368 644 268 590 "},"s":{"ha":725,"x_min":0,"x_max":0,"o":"m 610 207 b 304 -12 610 71 479 -12 b 33 224 139 -12 17 79 l 157 224 b 311 89 150 146 206 89 b 485 203 411 89 485 129 b 100 556 485 358 100 307 b 390 774 100 686 221 774 b 656 535 556 774 674 678 l 535 535 b 382 672 544 618 481 672 b 226 560 292 672 226 629 b 610 207 226 396 610 446 "},"t":{"ha":506,"x_min":0,"x_max":0,"o":"m 179 657 l 82 657 l 100 761 l 199 761 l 232 953 l 360 953 l 326 761 l 524 761 l 506 657 l 307 657 l 228 208 b 315 107 214 133 238 107 l 408 107 l 389 0 l 275 0 b 100 208 140 0 74 56 "},"u":{"ha":889,"x_min":0,"x_max":0,"o":"m 711 0 l 585 0 l 604 111 b 340 -11 542 32 440 -11 b 85 315 165 -11 47 97 l 164 761 l 289 761 l 214 332 b 385 99 188 178 257 99 b 644 343 514 99 618 179 l 644 339 l 719 761 l 846 761 "},"v":{"ha":779,"x_min":0,"x_max":0,"o":"m 217 761 l 340 119 l 690 761 l 826 761 l 393 0 l 244 0 l 81 761 "},"w":{"ha":1139,"x_min":0,"x_max":0,"o":"m 81 761 l 210 761 l 272 122 l 572 761 l 703 761 l 775 126 l 1060 761 l 1185 761 l 813 0 l 682 0 l 607 606 l 315 0 l 185 0 "},"x":{"ha":665,"x_min":0,"x_max":0,"o":"m 303 283 l 79 0 l -54 0 l 260 378 l 82 761 l 225 761 l 354 481 l 576 761 l 710 761 l 399 385 l 576 0 l 433 0 "},"y":{"ha":782,"x_min":0,"x_max":0,"o":"m 81 761 l 221 761 l 350 147 l 696 761 l 826 761 l 171 -358 l 39 -358 l 254 8 "},"z":{"ha":632,"x_min":0,"x_max":0,"o":"m 617 658 l 150 104 l 524 104 l 504 0 l -14 0 l 4 104 l 472 658 l 106 658 l 124 761 l 635 761 "},"{":{"ha":642,"x_min":0,"x_max":0,"o":"m 282 364 b 161 469 282 424 244 454 l 179 568 b 347 714 283 586 333 639 b 386 1092 367 822 364 974 b 628 1297 410 1228 506 1297 l 708 1297 l 689 1188 l 632 1188 b 507 1083 563 1188 521 1158 b 468 710 489 978 489 825 b 288 521 451 613 396 542 l 286 518 b 406 386 369 497 406 457 b 306 -82 406 290 306 -7 b 397 -150 306 -128 338 -150 l 454 -150 l 433 -260 l 353 -260 b 179 -103 247 -260 179 -207 b 282 364 179 1 282 283 "},"|":{"ha":404,"x_min":0,"x_max":0,"o":"m 390 1104 l 168 -147 l 42 -147 l 264 1104 "},"}":{"ha":642,"x_min":0,"x_max":0,"o":"m 511 469 b 344 324 404 450 356 393 b 304 -54 324 215 326 64 b 63 -260 281 -190 183 -260 l -18 -260 l 1 -150 l 58 -150 b 182 -46 128 -150 169 -121 b 222 328 201 60 201 213 b 406 518 239 422 296 494 l 407 521 b 289 710 304 543 274 615 b 382 1083 310 825 364 978 b 293 1188 394 1158 363 1188 l 238 1188 l 256 1297 l 336 1297 b 507 1092 458 1297 531 1228 b 413 714 485 974 432 822 b 529 568 400 644 428 588 "},"~":{"ha":721,"x_min":0,"x_max":0,"o":"m 42 344 b 274 547 92 483 174 547 b 492 457 379 547 411 457 b 600 546 536 457 582 489 l 694 546 b 461 343 646 406 561 343 b 244 433 356 343 326 433 b 135 344 199 433 154 400 l 42 344 "}," ":{"ha":414,"x_min":0,"x_max":0,"o":""},"¡":{"ha":465,"x_min":0,"x_max":0,"o":"m 199 -193 l 64 -193 l 201 501 l 307 501 m 199 697 b 299 783 207 746 251 783 b 369 697 347 783 378 746 b 268 611 361 649 317 611 b 199 697 221 611 190 649 "},"¢":{"ha":924,"x_min":0,"x_max":0,"o":"m 747 256 b 413 7 706 121 579 19 l 389 -124 l 314 -124 l 338 7 b 83 364 136 25 51 172 b 463 721 117 556 256 703 l 485 849 l 560 849 l 538 721 b 785 474 700 708 793 608 l 667 474 b 486 618 661 561 601 618 b 203 364 349 618 233 528 b 397 111 174 200 260 111 b 629 256 513 111 592 167 l 747 256 "},"£":{"ha":861,"x_min":0,"x_max":0,"o":"m 204 706 b 558 999 236 885 379 999 b 807 710 758 999 828 865 l 692 710 b 540 892 707 814 663 892 b 324 700 440 892 347 836 b 331 517 313 632 321 574 l 600 517 l 585 428 l 343 428 b 340 342 344 400 344 371 b 199 103 324 250 278 174 l 704 103 l 686 -3 l 67 -3 l 57 69 b 221 342 140 146 199 215 b 224 428 226 372 226 401 l 67 428 l 82 517 l 208 517 b 204 706 199 569 192 628 "},"¤":{"ha":746,"x_min":0,"x_max":0,"o":"m 539 524 b 424 693 558 633 500 693 b 251 524 346 693 271 633 b 363 354 232 413 285 354 b 539 524 438 354 519 413 m 501 319 b 349 278 456 293 403 278 b 214 318 294 278 249 292 l 117 236 l 68 294 l 165 376 b 150 524 146 417 140 467 b 219 672 160 582 185 633 l 150 756 l 219 814 l 289 729 b 438 769 333 756 383 769 b 574 729 492 769 538 756 l 674 814 l 721 756 l 622 672 b 642 524 643 633 651 582 b 571 376 632 467 606 417 l 639 294 l 571 236 "},"¥":{"ha":826,"x_min":0,"x_max":0,"o":"m 321 438 l 82 440 l 97 532 l 288 532 l 135 968 l 276 968 l 428 481 l 751 968 l 894 968 l 589 532 l 779 532 l 764 440 l 524 438 l 472 365 l 463 311 l 740 311 l 724 218 l 446 218 l 407 0 l 281 0 l 319 218 l 42 218 l 58 311 l 336 311 l 346 365 "},"¦":{"ha":404,"x_min":0,"x_max":0,"o":"m 263 379 l 168 -147 l 42 -147 l 136 379 m 171 579 l 264 1104 l 390 1104 l 297 579 "},"§":{"ha":799,"x_min":0,"x_max":0,"o":"m 171 771 b 494 989 192 890 315 989 b 746 758 661 989 767 906 l 619 758 b 479 899 626 833 590 899 b 300 782 382 899 314 860 b 494 618 288 711 331 675 b 728 358 657 563 753 496 b 496 132 710 257 632 172 b 613 -54 574 93 631 40 b 292 -272 592 -174 469 -272 b 39 -43 125 -272 17 -190 l 165 -43 b 308 -183 158 -121 196 -183 b 485 -64 404 -183 471 -144 b 290 97 497 6 453 40 b 56 358 128 154 32 219 b 289 583 74 460 156 547 b 171 771 211 624 154 676 m 599 358 b 418 517 615 449 547 517 b 185 358 288 517 200 443 b 367 199 169 269 236 199 b 599 358 497 199 583 274 "},"¨":{"ha":436,"x_min":0,"x_max":0,"o":"m 188 864 b 125 924 151 864 125 889 b 213 1010 125 969 167 1010 b 274 950 249 1010 274 983 b 188 864 274 903 231 864 m 414 864 b 351 924 376 864 351 889 b 439 1010 351 969 393 1010 b 500 950 474 1010 500 983 b 414 864 500 903 457 864 "},"©":{"ha":1100,"x_min":0,"x_max":0,"o":"m 653 978 b 1047 485 938 978 1099 774 b 479 -8 996 196 764 -8 b 83 485 193 -8 33 196 b 653 978 135 774 367 978 m 644 924 b 143 485 383 924 189 747 b 489 44 97 224 229 44 b 988 485 747 44 942 224 b 644 924 1035 747 903 924 m 621 807 b 263 486 454 807 299 686 b 507 164 228 286 340 164 b 828 371 647 164 769 246 l 711 371 b 524 256 672 297 610 256 b 375 485 418 256 349 333 b 604 715 403 638 499 715 b 751 600 683 715 742 675 l 868 600 b 621 807 856 732 760 807 "},"ª":{"ha":625,"x_min":0,"x_max":0,"o":"m 106 736 b 381 985 131 883 249 985 b 544 878 472 985 528 940 l 561 976 l 661 976 l 576 490 l 476 490 l 493 589 b 293 482 456 526 385 482 b 106 736 161 482 79 588 m 518 733 b 393 906 539 843 478 906 b 208 735 310 906 228 844 b 332 561 189 625 250 561 b 518 733 418 561 500 624 "},"«":{"ha":640,"x_min":0,"x_max":0,"o":"m 279 167 l 154 167 l 64 410 l 240 653 l 364 653 l 183 410 m 529 167 l 404 167 l 314 410 l 490 653 l 615 653 l 435 410 "},"¬":{"ha":1025,"x_min":0,"x_max":0,"o":"m 99 600 l 989 600 l 936 306 l 811 306 l 846 500 l 81 500 "},"­":{"ha":765,"x_min":0,"x_max":0,"o":"m 110 563 l 664 563 l 644 456 l 90 456 "},"®":{"ha":707,"x_min":0,"x_max":0,"o":"m 451 926 b 188 697 315 926 211 832 b 369 468 164 563 233 468 b 633 697 504 468 610 563 b 451 926 657 832 586 926 m 360 413 b 128 697 194 413 99 533 b 461 981 157 861 296 981 b 692 697 625 981 719 861 b 360 413 661 533 524 413 m 544 756 b 464 667 538 711 507 679 l 521 551 l 435 550 l 386 661 l 364 661 l 343 550 l 271 550 l 324 849 l 458 849 b 544 756 519 849 554 813 m 385 782 l 375 724 l 431 724 b 469 753 450 724 465 733 b 440 782 472 772 460 782 "},"¯":{"ha":538,"x_min":0,"x_max":0,"o":"m 128 985 l 617 985 l 600 890 l 111 890 "},"°":{"ha":569,"x_min":0,"x_max":0,"o":"m 97 728 b 386 971 124 876 243 971 b 588 728 528 971 614 876 b 297 482 561 579 440 482 b 97 728 154 482 71 579 m 485 728 b 371 897 504 838 450 897 b 199 728 293 897 218 838 b 310 558 179 615 231 558 b 485 728 388 558 465 615 "},"±":{"ha":953,"x_min":0,"x_max":0,"o":"m 619 867 l 578 633 l 871 633 l 850 519 l 558 519 l 514 274 l 807 274 l 788 161 l 81 161 l 100 274 l 393 274 l 438 519 l 143 519 l 164 633 l 457 633 l 499 867 "},"²":{"ha":458,"x_min":0,"x_max":0,"o":"m 119 838 b 325 986 139 922 211 986 b 474 833 433 986 488 917 b 311 649 460 760 408 711 l 188 571 l 432 571 l 417 489 l 60 489 l 72 561 l 246 683 b 367 829 307 728 356 771 b 308 908 375 881 349 908 b 221 838 264 908 233 882 l 119 838 "},"³":{"ha":461,"x_min":0,"x_max":0,"o":"m 117 849 b 331 986 139 929 221 986 b 488 843 433 986 501 924 b 382 735 478 786 435 749 l 382 732 b 451 617 428 715 461 676 b 238 482 439 543 353 482 b 74 631 126 482 63 536 l 172 631 b 249 557 171 579 201 557 b 346 629 300 557 339 585 b 271 701 354 675 322 701 l 211 701 l 224 768 l 281 768 b 379 838 332 768 371 792 b 310 910 388 881 361 910 b 213 849 260 910 228 885 l 117 849 "},"´":{"ha":343,"x_min":0,"x_max":0,"o":"m 442 1086 l 422 976 l 97 818 l 114 913 "},"µ":{"ha":896,"x_min":0,"x_max":0,"o":"m 718 0 l 592 0 l 617 138 b 338 -12 550 38 446 -12 b 175 74 269 -12 206 11 l 99 -361 l -26 -361 l 171 761 l 296 761 l 222 344 b 394 96 193 179 267 96 b 651 340 522 96 624 178 l 651 339 l 726 761 l 853 761 "},"¶":{"ha":828,"x_min":0,"x_max":0,"o":"m 819 961 l 649 0 l 536 0 l 689 863 l 582 863 l 429 0 l 317 0 l 386 397 l 372 397 b 93 678 144 397 65 521 b 471 961 121 836 247 961 "},"·":{"ha":294,"x_min":0,"x_max":0,"o":"m 179 474 b 79 388 171 425 126 388 b 8 474 31 388 0 425 b 110 560 17 522 61 560 b 179 474 157 560 188 522 "},"¸":{"ha":378,"x_min":0,"x_max":0,"o":"m 90 -81 b 244 -218 196 -79 261 -126 b 50 -361 229 -306 149 -361 l -110 -361 l -96 -279 l 39 -279 b 139 -218 99 -279 131 -262 b 61 -158 147 -175 121 -158 l -10 -158 l 21 10 l 106 10 "},"¹":{"ha":272,"x_min":0,"x_max":0,"o":"m 197 900 l 122 900 l 136 978 l 311 978 l 225 489 l 125 489 "},"º":{"ha":606,"x_min":0,"x_max":0,"o":"m 104 733 b 403 985 132 886 257 985 b 618 733 550 985 646 886 b 319 481 592 582 465 481 b 104 733 172 481 78 582 m 515 732 b 390 908 536 849 472 908 b 208 732 308 908 229 849 b 332 558 188 617 250 558 b 515 732 413 558 496 617 "},"»":{"ha":640,"x_min":0,"x_max":0,"o":"m 279 167 l 458 410 l 364 653 l 489 653 l 579 410 l 403 167 m 28 167 l 208 410 l 114 653 l 238 653 l 328 410 l 151 167 "},"¼":{"ha":889,"x_min":0,"x_max":0,"o":"m 706 969 l 825 969 l 135 0 l 15 0 m 793 161 l 782 96 l 715 96 l 699 0 l 599 0 l 615 96 l 361 96 l 372 154 l 650 490 l 786 490 l 726 161 m 629 161 l 672 404 l 475 161 m 218 900 l 143 900 l 157 978 l 332 978 l 246 489 l 146 489 "},"½":{"ha":938,"x_min":0,"x_max":0,"o":"m 688 969 l 808 969 l 129 0 l 8 0 m 219 900 l 144 900 l 158 978 l 333 978 l 247 489 l 147 489 m 596 347 b 801 496 615 432 688 496 b 950 343 910 496 964 426 b 788 158 936 269 885 221 l 664 81 l 908 81 l 893 -1 l 536 -1 l 549 71 l 722 193 b 843 339 783 238 832 281 b 785 418 851 390 825 418 b 697 347 740 418 710 392 l 596 347 "},"¾":{"ha":960,"x_min":0,"x_max":0,"o":"m 822 969 l 942 969 l 231 0 l 111 0 m 876 161 l 865 96 l 799 96 l 782 0 l 682 0 l 699 96 l 446 96 l 456 154 l 733 490 l 869 490 l 811 161 m 713 161 l 756 404 l 558 161 m 138 849 b 351 986 160 929 242 986 b 508 843 454 986 522 924 b 403 735 499 786 456 749 l 403 732 b 472 617 449 715 482 676 b 258 482 460 543 374 482 b 94 631 147 482 83 536 l 193 631 b 269 557 192 579 222 557 b 367 629 321 557 360 585 b 292 701 375 675 343 701 l 232 701 l 244 768 l 301 768 b 400 838 353 768 392 792 b 331 910 408 881 382 910 b 233 849 281 910 249 885 l 138 849 "},"¿":{"ha":721,"x_min":0,"x_max":0,"o":"m 621 63 b 268 -217 592 -106 449 -217 b 11 69 86 -217 -21 -107 b 396 356 47 272 203 356 l 425 488 l 535 488 l 501 268 l 461 268 b 132 69 301 268 163 238 b 285 -111 113 -42 172 -111 b 501 63 399 -111 482 -46 l 621 63 m 431 686 b 531 772 439 735 483 772 b 601 686 579 772 610 735 b 500 600 593 638 549 600 b 431 686 453 600 422 638 "},"À":{"ha":936,"x_min":0,"x_max":0,"o":"m 647 215 l 224 215 l 108 0 l -25 0 l 494 963 l 640 963 l 819 0 l 686 0 m 465 1288 l 729 1114 l 713 1019 l 446 1178 m 540 808 l 276 314 l 629 314 "},"Á":{"ha":936,"x_min":0,"x_max":0,"o":"m 647 215 l 224 215 l 108 0 l -25 0 l 494 963 l 640 963 l 819 0 l 686 0 m 761 1288 l 742 1178 l 417 1019 l 433 1114 m 540 808 l 276 314 l 629 314 "},"Â":{"ha":936,"x_min":0,"x_max":0,"o":"m 647 215 l 224 215 l 108 0 l -25 0 l 494 963 l 640 963 l 819 0 l 686 0 m 772 1038 l 601 1156 l 389 1038 l 406 1138 l 619 1253 l 790 1138 m 540 808 l 276 314 l 629 314 "},"Ã":{"ha":936,"x_min":0,"x_max":0,"o":"m 647 215 l 224 215 l 108 0 l -25 0 l 494 963 l 640 963 l 819 0 l 686 0 m 379 1044 b 543 1190 408 1140 471 1190 b 690 1126 617 1190 632 1126 b 761 1186 721 1126 749 1146 l 835 1186 b 669 1042 806 1092 742 1042 b 522 1106 594 1042 578 1106 b 453 1044 492 1106 465 1086 l 379 1044 m 540 808 l 276 314 l 629 314 "},"Ä":{"ha":936,"x_min":0,"x_max":0,"o":"m 647 215 l 224 215 l 108 0 l -25 0 l 494 963 l 640 963 l 819 0 l 686 0 m 474 1065 b 411 1125 438 1065 411 1090 b 499 1211 411 1171 453 1211 b 560 1151 535 1211 560 1185 b 474 1065 560 1104 517 1065 m 700 1065 b 638 1125 663 1065 638 1090 b 725 1211 638 1171 679 1211 b 786 1151 760 1211 786 1185 b 700 1065 786 1104 743 1065 m 540 808 l 276 314 l 629 314 "},"Å":{"ha":936,"x_min":0,"x_max":0,"o":"m 647 215 l 224 215 l 108 0 l -25 0 l 494 963 l 640 963 l 819 0 l 686 0 m 686 1192 b 621 1269 694 1239 665 1269 b 531 1192 578 1269 539 1239 b 593 1113 522 1144 551 1113 b 686 1192 638 1113 678 1144 m 463 1190 b 633 1336 479 1281 554 1336 b 753 1190 715 1336 768 1281 b 582 1044 736 1100 663 1044 b 463 1190 503 1044 447 1100 m 540 808 l 276 314 l 629 314 "},"Æ":{"ha":1250,"x_min":0,"x_max":0,"o":"m 315 314 l 631 314 l 729 874 m 854 869 l 796 538 l 1147 538 l 1131 440 l 779 440 l 719 100 l 1111 100 l 1093 0 l 575 0 l 613 215 l 243 215 l 83 0 l -56 0 l 665 969 l 1265 969 l 1247 869 "},"Ç":{"ha":1072,"x_min":0,"x_max":0,"o":"m 75 485 b 644 981 126 775 375 981 b 1043 688 854 981 1003 875 l 892 688 b 625 865 858 800 767 865 b 204 485 422 865 246 718 b 490 106 164 253 289 106 b 819 282 632 106 747 171 l 971 282 b 521 -7 874 111 710 8 l 508 -81 b 663 -218 614 -79 679 -126 b 468 -361 647 -306 567 -361 l 308 -361 l 322 -279 l 457 -279 b 557 -218 517 -279 549 -262 b 479 -158 565 -175 539 -158 l 408 -158 l 436 -7 b 75 485 185 10 26 207 "},"È":{"ha":713,"x_min":0,"x_max":0,"o":"m 710 869 l 317 869 l 258 538 l 610 538 l 593 440 l 242 440 l 181 100 l 575 100 l 557 0 l 36 0 l 208 969 l 728 969 m 351 1288 l 615 1114 l 599 1019 l 332 1178 "},"É":{"ha":713,"x_min":0,"x_max":0,"o":"m 710 869 l 317 869 l 258 538 l 610 538 l 593 440 l 242 440 l 181 100 l 575 100 l 557 0 l 36 0 l 208 969 l 728 969 m 647 1288 l 628 1178 l 303 1019 l 319 1114 "},"Ê":{"ha":713,"x_min":0,"x_max":0,"o":"m 710 869 l 317 869 l 258 538 l 610 538 l 593 440 l 242 440 l 181 100 l 575 100 l 557 0 l 36 0 l 208 969 l 728 969 m 658 1038 l 488 1156 l 275 1038 l 292 1138 l 506 1253 l 676 1138 "},"Ë":{"ha":713,"x_min":0,"x_max":0,"o":"m 710 869 l 317 869 l 258 538 l 610 538 l 593 440 l 242 440 l 181 100 l 575 100 l 557 0 l 36 0 l 208 969 l 728 969 m 360 1065 b 297 1125 324 1065 297 1090 b 385 1211 297 1171 339 1211 b 446 1151 421 1211 446 1185 b 360 1065 446 1104 403 1065 m 586 1065 b 524 1125 549 1065 524 1090 b 611 1211 524 1171 565 1211 b 672 1151 646 1211 672 1185 b 586 1065 672 1104 629 1065 "},"Ì":{"ha":342,"x_min":0,"x_max":0,"o":"m 208 968 l 335 968 l 163 0 l 36 0 m 168 1288 l 432 1114 l 415 1019 l 149 1178 "},"Í":{"ha":342,"x_min":0,"x_max":0,"o":"m 208 968 l 335 968 l 163 0 l 36 0 m 464 1288 l 444 1178 l 119 1019 l 136 1114 "},"Î":{"ha":342,"x_min":0,"x_max":0,"o":"m 208 968 l 335 968 l 163 0 l 36 0 m 475 1038 l 304 1156 l 92 1038 l 108 1138 l 322 1253 l 493 1138 "},"Ï":{"ha":342,"x_min":0,"x_max":0,"o":"m 208 968 l 335 968 l 163 0 l 36 0 m 176 1065 b 114 1125 140 1065 114 1090 b 201 1211 114 1171 156 1211 b 263 1151 238 1211 263 1185 b 176 1065 263 1104 219 1065 m 403 1065 b 340 1125 365 1065 340 1090 b 428 1211 340 1171 382 1211 b 489 1151 463 1211 489 1185 b 403 1065 489 1104 446 1065 "},"Ð":{"ha":1007,"x_min":0,"x_max":0,"o":"m 535 968 b 961 482 853 968 1015 782 b 364 0 908 182 681 0 l 63 0 l 138 424 l 17 424 l 39 540 l 158 540 l 233 968 l 535 968 m 382 97 b 832 482 633 97 790 246 b 517 865 874 718 768 865 l 343 865 l 286 540 l 551 540 l 531 424 l 265 424 l 207 97 "},"Ñ":{"ha":976,"x_min":0,"x_max":0,"o":"m 969 969 l 797 0 l 671 0 l 300 771 l 163 0 l 36 0 l 208 969 l 335 969 l 707 200 l 843 969 m 400 1044 b 564 1190 429 1140 492 1190 b 711 1126 638 1190 653 1126 b 782 1186 742 1126 769 1146 l 856 1186 b 690 1042 826 1092 763 1042 b 543 1106 615 1042 599 1106 b 474 1044 513 1106 486 1086 l 400 1044 "},"Ò":{"ha":1092,"x_min":0,"x_max":0,"o":"m 1050 578 b 478 -10 1050 244 807 -10 b 72 393 233 -10 72 156 b 643 979 72 725 317 979 b 1050 578 890 979 1050 814 m 203 401 b 496 104 203 218 315 104 b 919 569 746 104 919 319 b 625 865 919 753 807 865 b 203 401 374 865 203 650 m 544 1296 l 808 1122 l 792 1028 l 525 1186 "},"Ó":{"ha":1092,"x_min":0,"x_max":0,"o":"m 1050 578 b 478 -10 1050 244 807 -10 b 72 393 233 -10 72 156 b 643 979 72 725 317 979 b 1050 578 890 979 1050 814 m 203 401 b 496 104 203 218 315 104 b 919 569 746 104 919 319 b 625 865 919 753 807 865 b 203 401 374 865 203 650 m 840 1296 l 821 1186 l 496 1028 l 513 1122 "},"Ô":{"ha":1092,"x_min":0,"x_max":0,"o":"m 1050 578 b 478 -10 1050 244 807 -10 b 72 393 233 -10 72 156 b 643 979 72 725 317 979 b 1050 578 890 979 1050 814 m 203 401 b 496 104 203 218 315 104 b 919 569 746 104 919 319 b 625 865 919 753 807 865 b 203 401 374 865 203 650 m 850 1046 l 679 1164 l 467 1046 l 483 1146 l 697 1261 l 868 1146 "},"Õ":{"ha":1092,"x_min":0,"x_max":0,"o":"m 1050 578 b 478 -10 1050 244 807 -10 b 72 393 233 -10 72 156 b 643 979 72 725 317 979 b 1050 578 890 979 1050 814 m 203 401 b 496 104 203 218 315 104 b 919 569 746 104 919 319 b 625 865 919 753 807 865 b 203 401 374 865 203 650 m 457 1053 b 621 1199 486 1149 549 1199 b 768 1135 694 1199 710 1135 b 839 1194 799 1135 826 1154 l 913 1194 b 747 1050 883 1100 819 1050 b 600 1114 672 1050 656 1114 b 531 1053 569 1114 543 1094 l 457 1053 "},"Ö":{"ha":1092,"x_min":0,"x_max":0,"o":"m 1050 578 b 478 -10 1050 244 807 -10 b 72 393 233 -10 72 156 b 643 979 72 725 317 979 b 1050 578 890 979 1050 814 m 203 401 b 496 104 203 218 315 104 b 919 569 746 104 919 319 b 625 865 919 753 807 865 b 203 401 374 865 203 650 m 551 1074 b 489 1133 515 1074 489 1099 b 576 1219 489 1179 531 1219 b 638 1160 613 1219 638 1193 b 551 1074 638 1113 594 1074 m 778 1074 b 715 1133 740 1074 715 1099 b 803 1219 715 1179 757 1219 b 864 1160 838 1219 864 1193 b 778 1074 864 1113 821 1074 "},"×":{"ha":893,"x_min":0,"x_max":0,"o":"m 124 292 l 385 513 l 206 729 l 301 811 l 481 594 l 736 811 l 804 728 l 549 511 l 731 289 l 635 208 l 453 429 l 193 208 "},"Ø":{"ha":1092,"x_min":0,"x_max":0,"o":"m 1050 578 b 478 -10 1050 244 807 -10 b 188 99 358 -10 258 29 l 81 0 l -22 0 l 143 151 b 72 393 97 217 72 299 b 643 979 72 725 317 979 b 933 872 764 979 864 940 l 1040 969 l 1144 969 l 979 819 b 1050 578 1025 754 1050 671 m 203 401 b 240 240 203 339 215 285 l 840 786 b 625 865 789 838 715 865 b 203 401 374 865 203 650 m 496 104 b 919 569 746 104 919 319 b 882 731 919 632 907 686 l 282 183 b 496 104 333 132 406 104 "},"Ù":{"ha":938,"x_min":0,"x_max":0,"o":"m 206 968 l 332 968 l 224 357 b 417 103 193 181 275 103 b 700 357 561 103 668 181 l 808 968 l 935 968 l 826 357 b 396 -10 782 106 596 -10 b 97 357 196 -10 53 106 m 467 1288 l 731 1114 l 714 1019 l 447 1178 "},"Ú":{"ha":938,"x_min":0,"x_max":0,"o":"m 206 968 l 332 968 l 224 357 b 417 103 193 181 275 103 b 700 357 561 103 668 181 l 808 968 l 935 968 l 826 357 b 396 -10 782 106 596 -10 b 97 357 196 -10 53 106 m 763 1288 l 743 1178 l 418 1019 l 435 1114 "},"Û":{"ha":938,"x_min":0,"x_max":0,"o":"m 206 968 l 332 968 l 224 357 b 417 103 193 181 275 103 b 700 357 561 103 668 181 l 808 968 l 935 968 l 826 357 b 396 -10 782 106 596 -10 b 97 357 196 -10 53 106 m 772 1038 l 601 1156 l 389 1038 l 406 1138 l 619 1253 l 790 1138 "},"Ü":{"ha":938,"x_min":0,"x_max":0,"o":"m 206 968 l 332 968 l 224 357 b 417 103 193 181 275 103 b 700 357 561 103 668 181 l 808 968 l 935 968 l 826 357 b 396 -10 782 106 596 -10 b 97 357 196 -10 53 106 m 474 1065 b 411 1125 438 1065 411 1090 b 499 1211 411 1171 453 1211 b 560 1151 535 1211 560 1185 b 474 1065 560 1104 517 1065 m 700 1065 b 638 1125 663 1065 638 1090 b 725 1211 638 1171 679 1211 b 786 1151 760 1211 786 1185 b 700 1065 786 1104 743 1065 "},"Ý":{"ha":811,"x_min":0,"x_max":0,"o":"m 126 968 l 268 968 l 419 481 l 743 968 l 886 968 l 464 365 l 399 0 l 272 0 l 338 365 m 700 1288 l 681 1178 l 356 1019 l 372 1114 "},"Þ":{"ha":804,"x_min":0,"x_max":0,"o":"m 403 304 b 640 485 547 304 621 376 b 468 668 660 596 613 668 l 282 668 l 217 304 m 769 485 b 385 203 743 336 624 203 l 199 203 l 163 0 l 36 0 l 208 969 l 333 969 l 297 768 l 485 768 b 769 485 713 768 797 643 "},"ß":{"ha":915,"x_min":0,"x_max":0,"o":"m 154 779 b 531 1071 183 942 307 1071 b 799 875 711 1071 799 981 b 546 525 799 678 546 613 b 682 432 546 494 568 472 b 840 242 793 394 840 338 b 536 -14 840 92 710 -14 b 293 236 371 -14 276 85 l 421 236 b 550 88 411 146 457 88 b 707 226 644 88 707 139 b 592 336 707 276 675 307 b 414 497 471 379 414 422 b 669 856 414 656 669 711 b 511 964 669 924 611 964 b 278 764 369 964 300 889 l 144 0 l 18 0 "},"à":{"ha":939,"x_min":0,"x_max":0,"o":"m 56 383 b 488 774 97 621 282 774 b 743 622 629 774 713 701 l 768 761 l 896 761 l 761 0 l 633 0 l 660 142 b 347 -12 599 60 488 -12 b 56 383 144 -12 14 147 m 701 382 b 493 664 733 558 632 664 b 186 383 354 664 217 563 b 393 99 154 204 254 99 b 701 382 532 99 669 203 m 432 1086 l 696 913 l 679 818 l 413 976 "},"á":{"ha":939,"x_min":0,"x_max":0,"o":"m 56 383 b 488 774 97 621 282 774 b 743 622 629 774 713 701 l 768 761 l 896 761 l 761 0 l 633 0 l 660 142 b 347 -12 599 60 488 -12 b 56 383 144 -12 14 147 m 701 382 b 493 664 733 558 632 664 b 186 383 354 664 217 563 b 393 99 154 204 254 99 b 701 382 532 99 669 203 m 728 1086 l 708 976 l 383 818 l 400 913 "},"â":{"ha":939,"x_min":0,"x_max":0,"o":"m 56 383 b 488 774 97 621 282 774 b 743 622 629 774 713 701 l 768 761 l 896 761 l 761 0 l 633 0 l 660 142 b 347 -12 599 60 488 -12 b 56 383 144 -12 14 147 m 701 382 b 493 664 733 558 632 664 b 186 383 354 664 217 563 b 393 99 154 204 254 99 b 701 382 532 99 669 203 m 739 836 l 568 954 l 356 836 l 372 936 l 586 1051 l 757 936 "},"ã":{"ha":939,"x_min":0,"x_max":0,"o":"m 56 383 b 488 774 97 621 282 774 b 743 622 629 774 713 701 l 768 761 l 896 761 l 761 0 l 633 0 l 660 142 b 347 -12 599 60 488 -12 b 56 383 144 -12 14 147 m 701 382 b 493 664 733 558 632 664 b 186 383 354 664 217 563 b 393 99 154 204 254 99 b 701 382 532 99 669 203 m 346 843 b 510 989 375 939 438 989 b 657 925 583 989 599 925 b 728 985 688 925 715 944 l 801 985 b 636 840 772 890 708 840 b 489 904 561 840 544 904 b 419 843 458 904 432 885 l 346 843 "},"ä":{"ha":939,"x_min":0,"x_max":0,"o":"m 56 383 b 488 774 97 621 282 774 b 743 622 629 774 713 701 l 768 761 l 896 761 l 761 0 l 633 0 l 660 142 b 347 -12 599 60 488 -12 b 56 383 144 -12 14 147 m 701 382 b 493 664 733 558 632 664 b 186 383 354 664 217 563 b 393 99 154 204 254 99 b 701 382 532 99 669 203 m 440 864 b 378 924 404 864 378 889 b 465 1010 378 969 419 1010 b 526 950 501 1010 526 983 b 440 864 526 903 483 864 m 667 864 b 604 924 629 864 604 889 b 692 1010 604 969 646 1010 b 753 950 726 1010 753 983 b 667 864 753 903 710 864 "},"å":{"ha":939,"x_min":0,"x_max":0,"o":"m 56 383 b 488 774 97 621 282 774 b 743 622 629 774 713 701 l 768 761 l 896 761 l 761 0 l 633 0 l 660 142 b 347 -12 599 60 488 -12 b 56 383 144 -12 14 147 m 701 382 b 493 664 733 558 632 664 b 186 383 354 664 217 563 b 393 99 154 204 254 99 b 701 382 532 99 669 203 m 429 989 b 600 1135 446 1079 521 1135 b 719 989 682 1135 735 1079 b 549 843 703 899 629 843 b 429 989 469 843 414 899 m 653 990 b 588 1068 661 1038 632 1068 b 497 990 544 1068 506 1038 b 560 911 489 943 518 911 b 653 990 604 911 644 943 "},"æ":{"ha":1524,"x_min":0,"x_max":0,"o":"m 1136 667 b 839 429 1007 667 881 579 l 1340 429 b 1136 667 1368 581 1271 667 m 1419 235 b 1036 -12 1357 96 1218 -12 b 779 147 913 -12 813 50 l 754 0 l 635 0 l 661 146 b 349 -12 593 57 481 -12 b 56 383 144 -12 14 147 b 493 774 97 621 282 774 b 744 621 619 774 706 718 l 769 761 l 888 761 l 864 621 b 1175 774 947 728 1054 774 b 1468 413 1392 774 1503 614 b 1449 338 1463 386 1457 364 l 822 338 b 1035 94 807 175 917 94 b 1283 235 1156 94 1243 151 l 1419 235 m 186 383 b 393 99 154 204 254 99 b 701 382 532 99 669 203 b 493 664 733 558 632 664 b 186 383 354 664 217 563 "},"ç":{"ha":843,"x_min":0,"x_max":0,"o":"m 56 382 b 497 774 99 621 281 774 b 803 517 686 774 792 676 l 667 517 b 478 667 657 608 590 667 b 186 382 339 667 218 568 b 378 94 153 193 239 94 b 618 244 489 94 574 149 l 754 244 b 397 -11 693 104 567 3 l 386 -81 b 540 -218 492 -79 557 -126 b 346 -361 525 -306 444 -361 l 186 -361 l 200 -279 l 335 -279 b 435 -218 394 -279 426 -262 b 357 -158 443 -175 417 -158 l 286 -158 l 313 -10 b 56 382 124 10 15 157 "},"è":{"ha":861,"x_min":0,"x_max":0,"o":"m 478 667 b 194 429 353 667 233 582 l 676 429 b 478 667 704 585 608 667 m 757 235 b 364 -12 693 96 553 -12 b 56 382 147 -12 13 140 b 501 774 99 622 281 774 b 804 413 722 774 840 618 b 786 338 800 386 794 364 l 178 338 b 383 94 158 182 251 94 b 621 235 497 94 579 153 l 757 235 m 393 1086 l 657 913 l 640 818 l 374 976 "},"é":{"ha":861,"x_min":0,"x_max":0,"o":"m 478 667 b 194 429 353 667 233 582 l 676 429 b 478 667 704 585 608 667 m 757 235 b 364 -12 693 96 553 -12 b 56 382 147 -12 13 140 b 501 774 99 622 281 774 b 804 413 722 774 840 618 b 786 338 800 386 794 364 l 178 338 b 383 94 158 182 251 94 b 621 235 497 94 579 153 l 757 235 m 689 1086 l 669 976 l 344 818 l 361 913 "},"ê":{"ha":861,"x_min":0,"x_max":0,"o":"m 478 667 b 194 429 353 667 233 582 l 676 429 b 478 667 704 585 608 667 m 757 235 b 364 -12 693 96 553 -12 b 56 382 147 -12 13 140 b 501 774 99 622 281 774 b 804 413 722 774 840 618 b 786 338 800 386 794 364 l 178 338 b 383 94 158 182 251 94 b 621 235 497 94 579 153 l 757 235 m 700 836 l 529 954 l 317 836 l 333 936 l 547 1051 l 718 936 "},"ë":{"ha":861,"x_min":0,"x_max":0,"o":"m 478 667 b 194 429 353 667 233 582 l 676 429 b 478 667 704 585 608 667 m 757 235 b 364 -12 693 96 553 -12 b 56 382 147 -12 13 140 b 501 774 99 622 281 774 b 804 413 722 774 840 618 b 786 338 800 386 794 364 l 178 338 b 383 94 158 182 251 94 b 621 235 497 94 579 153 l 757 235 m 400 864 b 338 924 364 864 338 889 b 425 1010 338 969 379 1010 b 486 950 461 1010 486 983 b 400 864 486 903 443 864 m 626 864 b 564 924 589 864 564 889 b 651 1010 564 969 606 1010 b 713 950 686 1010 713 983 b 626 864 713 903 669 864 "},"ì":{"ha":342,"x_min":0,"x_max":0,"o":"m 171 761 l 297 761 l 163 0 l 36 0 m 132 1086 l 396 913 l 379 818 l 113 976 "},"í":{"ha":342,"x_min":0,"x_max":0,"o":"m 171 761 l 297 761 l 163 0 l 36 0 m 428 1086 l 408 976 l 83 818 l 100 913 "},"î":{"ha":342,"x_min":0,"x_max":0,"o":"m 171 761 l 297 761 l 163 0 l 36 0 m 439 836 l 268 954 l 56 836 l 72 936 l 286 1051 l 457 936 "},"ï":{"ha":342,"x_min":0,"x_max":0,"o":"m 171 761 l 297 761 l 163 0 l 36 0 m 140 864 b 78 924 104 864 78 889 b 165 1010 78 969 119 1010 b 226 950 201 1010 226 983 b 140 864 226 903 183 864 m 367 864 b 304 924 329 864 304 889 b 392 1010 304 969 346 1010 b 453 950 426 1010 453 983 b 367 864 453 903 410 864 "},"ð":{"ha":886,"x_min":0,"x_max":0,"o":"m 588 939 b 503 1028 564 968 535 997 l 632 1028 b 686 971 651 1008 669 990 l 878 1032 l 867 961 l 728 917 b 833 438 829 776 867 619 b 367 -12 781 139 589 -12 b 57 386 144 -12 14 146 b 499 775 99 622 288 775 b 726 647 606 775 685 733 b 629 886 714 733 685 810 l 438 825 l 450 894 m 186 386 b 386 94 153 196 247 94 b 694 382 521 94 661 194 b 489 668 728 571 624 668 b 186 386 353 668 219 572 "},"ñ":{"ha":889,"x_min":0,"x_max":0,"o":"m 669 431 b 499 665 696 586 626 665 b 238 421 369 665 267 585 l 238 424 l 163 0 l 36 0 l 171 761 l 297 761 l 278 651 b 544 775 342 732 442 775 b 797 449 719 775 836 667 l 718 0 l 593 0 m 322 843 b 486 989 351 939 414 989 b 633 925 560 989 575 925 b 704 985 664 925 692 944 l 778 985 b 613 840 749 890 685 840 b 465 904 538 840 521 904 b 396 843 435 904 408 885 l 322 843 "},"ò":{"ha":889,"x_min":0,"x_max":0,"o":"m 833 456 b 371 -12 833 194 633 -12 b 49 304 178 -12 49 114 b 507 774 49 564 243 774 b 833 456 700 774 833 649 m 179 310 b 386 94 179 167 272 94 b 703 449 571 94 703 263 b 489 667 703 596 604 667 b 179 310 303 667 179 499 m 406 1099 l 669 925 l 653 831 l 386 989 "},"ó":{"ha":889,"x_min":0,"x_max":0,"o":"m 833 456 b 371 -12 833 194 633 -12 b 49 304 178 -12 49 114 b 507 774 49 564 243 774 b 833 456 700 774 833 649 m 179 310 b 386 94 179 167 272 94 b 703 449 571 94 703 263 b 489 667 703 596 604 667 b 179 310 303 667 179 499 m 701 1099 l 682 989 l 357 831 l 374 925 "},"ô":{"ha":889,"x_min":0,"x_max":0,"o":"m 833 456 b 371 -12 833 194 633 -12 b 49 304 178 -12 49 114 b 507 774 49 564 243 774 b 833 456 700 774 833 649 m 179 310 b 386 94 179 167 272 94 b 703 449 571 94 703 263 b 489 667 703 596 604 667 b 179 310 303 667 179 499 m 713 849 l 542 967 l 329 849 l 346 949 l 560 1064 l 731 949 "},"õ":{"ha":889,"x_min":0,"x_max":0,"o":"m 833 456 b 371 -12 833 194 633 -12 b 49 304 178 -12 49 114 b 507 774 49 564 243 774 b 833 456 700 774 833 649 m 179 310 b 386 94 179 167 272 94 b 703 449 571 94 703 263 b 489 667 703 596 604 667 b 179 310 303 667 179 499 m 319 856 b 483 1001 349 951 411 1001 b 631 938 557 1001 572 938 b 701 997 661 938 689 957 l 775 997 b 610 853 746 903 682 853 b 463 917 535 853 518 917 b 393 856 432 917 406 897 l 319 856 "},"ö":{"ha":889,"x_min":0,"x_max":0,"o":"m 833 456 b 371 -12 833 194 633 -12 b 49 304 178 -12 49 114 b 507 774 49 564 243 774 b 833 456 700 774 833 649 m 179 310 b 386 94 179 167 272 94 b 703 449 571 94 703 263 b 489 667 703 596 604 667 b 179 310 303 667 179 499 m 414 876 b 351 936 378 876 351 901 b 439 1022 351 982 393 1022 b 500 963 475 1022 500 996 b 414 876 500 915 457 876 m 640 876 b 578 936 603 876 578 901 b 665 1022 578 982 619 1022 b 726 963 700 1022 726 996 b 640 876 726 915 683 876 "},"÷":{"ha":913,"x_min":0,"x_max":0,"o":"m 138 564 l 846 564 l 825 453 l 117 453 m 501 213 b 401 126 493 164 449 126 b 331 213 353 126 322 164 b 432 299 339 261 383 299 b 501 213 479 299 510 261 m 606 808 b 506 722 597 760 553 722 b 435 808 457 722 426 760 b 536 894 443 857 488 894 b 606 808 583 894 614 857 "},"ø":{"ha":889,"x_min":0,"x_max":0,"o":"m 833 456 b 371 -12 833 194 633 -12 b 146 67 279 -12 201 17 l 72 0 l -18 0 l 104 113 b 49 304 68 164 49 229 b 507 774 49 564 243 774 b 736 693 600 774 679 744 l 811 761 l 901 761 l 776 647 b 833 456 813 596 833 531 m 179 310 b 201 201 179 268 188 232 l 644 608 b 489 667 604 647 549 667 b 179 310 303 667 179 499 m 386 94 b 703 449 571 94 703 263 b 679 558 703 492 694 528 l 238 151 b 386 94 275 114 328 94 "},"ù":{"ha":889,"x_min":0,"x_max":0,"o":"m 711 0 l 585 0 l 604 111 b 340 -11 542 32 440 -11 b 85 315 165 -11 47 97 l 164 761 l 289 761 l 214 332 b 385 99 188 178 257 99 b 644 343 514 99 618 179 l 644 339 l 719 761 l 846 761 m 407 1086 l 671 913 l 654 818 l 388 976 "},"ú":{"ha":889,"x_min":0,"x_max":0,"o":"m 711 0 l 585 0 l 604 111 b 340 -11 542 32 440 -11 b 85 315 165 -11 47 97 l 164 761 l 289 761 l 214 332 b 385 99 188 178 257 99 b 644 343 514 99 618 179 l 644 339 l 719 761 l 846 761 m 703 1086 l 683 976 l 358 818 l 375 913 "},"û":{"ha":889,"x_min":0,"x_max":0,"o":"m 711 0 l 585 0 l 604 111 b 340 -11 542 32 440 -11 b 85 315 165 -11 47 97 l 164 761 l 289 761 l 214 332 b 385 99 188 178 257 99 b 644 343 514 99 618 179 l 644 339 l 719 761 l 846 761 m 714 836 l 543 954 l 331 836 l 347 936 l 561 1051 l 732 936 "},"ü":{"ha":889,"x_min":0,"x_max":0,"o":"m 711 0 l 585 0 l 604 111 b 340 -11 542 32 440 -11 b 85 315 165 -11 47 97 l 164 761 l 289 761 l 214 332 b 385 99 188 178 257 99 b 644 343 514 99 618 179 l 644 339 l 719 761 l 846 761 m 415 864 b 353 924 379 864 353 889 b 440 1010 353 969 394 1010 b 501 950 476 1010 501 983 b 415 864 501 903 458 864 m 642 864 b 579 924 604 864 579 889 b 667 1010 579 969 621 1010 b 728 950 701 1010 728 983 b 642 864 728 903 685 864 "},"ý":{"ha":782,"x_min":0,"x_max":0,"o":"m 81 761 l 221 761 l 350 147 l 696 761 l 826 761 l 171 -358 l 39 -358 l 254 8 m 649 1086 l 629 976 l 304 818 l 321 913 "},"þ":{"ha":939,"x_min":0,"x_max":0,"o":"m 269 600 b 583 774 333 699 444 774 b 876 383 789 774 918 621 b 446 -12 835 147 650 -12 b 192 167 307 -12 222 64 l 100 -361 l -26 -361 l 218 1028 l 344 1028 l 269 600 m 747 383 b 539 664 779 563 679 664 b 231 382 401 664 263 558 b 439 99 199 203 301 99 b 747 383 579 99 715 204 "},"ÿ":{"ha":782,"x_min":0,"x_max":0,"o":"m 81 761 l 221 761 l 350 147 l 696 761 l 826 761 l 171 -358 l 39 -358 l 254 8 m 361 864 b 299 924 325 864 299 889 b 386 1010 299 969 340 1010 b 447 950 422 1010 447 983 b 361 864 447 903 404 864 m 588 864 b 525 924 550 864 525 889 b 613 1010 525 969 567 1010 b 674 950 647 1010 674 983 b 588 864 674 903 631 864 "},"Ā":{"ha":936,"x_min":0,"x_max":0,"o":"m 647 215 l 224 215 l 108 0 l -25 0 l 494 963 l 640 963 l 819 0 l 686 0 m 364 1186 l 853 1186 l 836 1092 l 347 1092 m 540 808 l 276 314 l 629 314 "},"ā":{"ha":939,"x_min":0,"x_max":0,"o":"m 56 383 b 488 774 97 621 282 774 b 743 622 629 774 713 701 l 768 761 l 896 761 l 761 0 l 633 0 l 660 142 b 347 -12 599 60 488 -12 b 56 383 144 -12 14 147 m 701 382 b 493 664 733 558 632 664 b 186 383 354 664 217 563 b 393 99 154 204 254 99 b 701 382 532 99 669 203 m 331 985 l 819 985 l 803 890 l 314 890 "},"Ă":{"ha":936,"x_min":0,"x_max":0,"o":"m 647 215 l 224 215 l 108 0 l -25 0 l 494 963 l 640 963 l 819 0 l 686 0 m 814 1229 b 585 1049 796 1126 713 1049 b 418 1231 457 1049 401 1128 l 422 1254 l 497 1254 b 601 1149 486 1188 513 1149 b 743 1254 690 1149 731 1188 l 818 1254 l 814 1229 m 540 808 l 276 314 l 629 314 "},"ă":{"ha":939,"x_min":0,"x_max":0,"o":"m 56 383 b 488 774 97 621 282 774 b 743 622 629 774 713 701 l 768 761 l 896 761 l 761 0 l 633 0 l 660 142 b 347 -12 599 60 488 -12 b 56 383 144 -12 14 147 m 701 382 b 493 664 733 558 632 664 b 186 383 354 664 217 563 b 393 99 154 204 254 99 b 701 382 532 99 669 203 m 779 1028 b 550 847 761 925 678 847 b 383 1029 422 847 367 926 l 388 1053 l 463 1053 b 567 947 451 986 478 947 b 708 1053 656 947 696 986 l 783 1053 l 779 1028 "},"Ą":{"ha":936,"x_min":0,"x_max":0,"o":"m 640 963 l 819 0 l 738 -37 b 636 -135 669 -68 643 -100 b 706 -201 629 -178 657 -201 b 801 -183 733 -201 767 -194 l 786 -267 b 676 -286 753 -278 713 -286 b 529 -146 593 -286 511 -249 b 682 26 540 -87 582 -25 l 647 215 l 224 215 l 108 0 l -25 0 l 494 963 m 540 808 l 276 314 l 629 314 "},"ą":{"ha":939,"x_min":0,"x_max":0,"o":"m 56 383 b 488 774 97 621 282 774 b 743 622 629 774 713 701 l 768 761 l 896 761 l 761 0 l 679 -37 b 578 -135 611 -68 585 -100 b 647 -201 571 -178 599 -201 b 742 -183 674 -201 708 -194 l 728 -267 b 617 -286 693 -278 654 -286 b 472 -147 533 -286 454 -249 b 638 24 482 -86 529 -29 l 660 142 b 347 -12 599 60 488 -12 b 56 383 144 -12 14 147 m 701 382 b 493 664 733 558 632 664 b 186 383 354 664 217 563 b 393 99 154 204 254 99 b 701 382 532 99 669 203 "},"Ć":{"ha":1072,"x_min":0,"x_max":0,"o":"m 75 485 b 644 981 126 775 375 981 b 1043 688 854 981 1003 875 l 892 688 b 625 865 858 800 767 865 b 204 485 422 865 246 718 b 490 106 164 253 289 106 b 819 282 632 106 747 171 l 971 282 b 471 -8 865 96 681 -8 b 75 485 200 -8 24 194 m 838 1288 l 818 1178 l 493 1019 l 510 1114 "},"ć":{"ha":843,"x_min":0,"x_max":0,"o":"m 56 382 b 497 774 99 621 281 774 b 803 517 686 774 792 676 l 667 517 b 478 667 657 608 590 667 b 186 382 339 667 218 568 b 378 94 153 193 239 94 b 618 244 489 94 574 149 l 754 244 b 358 -12 689 93 547 -12 b 56 382 142 -12 13 140 m 681 1086 l 661 976 l 336 818 l 353 913 "},"Ċ":{"ha":1072,"x_min":0,"x_max":0,"o":"m 75 485 b 644 981 126 775 375 981 b 1043 688 854 981 1003 875 l 892 688 b 625 865 858 800 767 865 b 204 485 422 865 246 718 b 490 106 164 253 289 106 b 819 282 632 106 747 171 l 971 282 b 471 -8 865 96 681 -8 b 75 485 200 -8 24 194 m 661 1057 b 600 1129 619 1057 593 1089 b 686 1203 607 1169 646 1203 b 746 1129 726 1203 754 1169 b 661 1057 739 1089 701 1057 "},"ċ":{"ha":843,"x_min":0,"x_max":0,"o":"m 56 382 b 497 774 99 621 281 774 b 803 517 686 774 792 676 l 667 517 b 478 667 657 608 590 667 b 186 382 339 667 218 568 b 378 94 153 193 239 94 b 618 244 489 94 574 149 l 754 244 b 358 -12 689 93 547 -12 b 56 382 142 -12 13 140 m 503 857 b 442 929 461 857 435 889 b 528 1003 449 969 488 1003 b 588 929 568 1003 596 969 b 503 857 581 889 543 857 "},"Č":{"ha":1072,"x_min":0,"x_max":0,"o":"m 75 485 b 644 981 126 775 375 981 b 1043 688 854 981 1003 875 l 892 688 b 625 865 858 800 767 865 b 204 485 422 865 246 718 b 490 106 164 253 289 106 b 819 282 632 106 747 171 l 971 282 b 471 -8 865 96 681 -8 b 75 485 200 -8 24 194 m 888 1251 l 869 1151 l 657 1036 l 485 1151 l 503 1251 l 675 1133 "},"č":{"ha":843,"x_min":0,"x_max":0,"o":"m 56 382 b 497 774 99 621 281 774 b 803 517 686 774 792 676 l 667 517 b 478 667 657 608 590 667 b 186 382 339 667 218 568 b 378 94 153 193 239 94 b 618 244 489 94 574 149 l 754 244 b 358 -12 689 93 547 -12 b 56 382 142 -12 13 140 m 729 1050 l 711 950 l 499 835 l 326 950 l 344 1050 l 517 932 "},"Ď":{"ha":982,"x_min":0,"x_max":0,"o":"m 510 968 b 936 482 826 968 990 782 b 338 0 883 182 656 0 l 36 0 l 208 968 l 510 968 m 356 97 b 807 482 608 97 765 246 b 492 865 849 718 743 865 l 317 865 l 181 97 m 831 1251 l 813 1151 l 600 1036 l 428 1151 l 446 1251 l 618 1133 "},"ď":{"ha":1047,"x_min":0,"x_max":0,"o":"m 1143 1028 b 1136 900 1144 979 1142 938 b 967 743 1117 792 1058 743 l 976 803 b 1057 876 1025 803 1047 828 l 1063 908 l 994 908 l 1015 1028 m 56 383 b 489 774 97 621 282 774 b 744 625 608 774 706 713 l 815 1028 l 943 1028 l 761 0 l 633 0 l 660 143 b 349 -12 599 58 488 -12 b 56 383 144 -12 14 147 m 701 382 b 493 664 733 558 632 664 b 186 383 354 664 217 563 b 393 99 154 204 254 99 b 701 382 532 99 669 203 "},"Đ":{"ha":1007,"x_min":0,"x_max":0,"o":"m 535 968 b 961 482 853 968 1015 782 b 364 0 908 182 681 0 l 63 0 l 138 424 l 17 424 l 39 540 l 158 540 l 233 968 l 535 968 m 382 97 b 832 482 633 97 790 246 b 517 865 874 718 768 865 l 343 865 l 286 540 l 551 540 l 531 424 l 265 424 l 207 97 "},"đ":{"ha":938,"x_min":0,"x_max":0,"o":"m 56 383 b 489 774 97 621 282 774 b 744 625 608 774 706 713 l 782 840 l 626 840 l 640 915 l 796 915 l 815 1028 l 943 1028 l 924 915 l 1008 915 l 994 840 l 910 840 l 761 0 l 633 0 l 660 143 b 349 -12 599 58 488 -12 b 56 383 144 -12 14 147 m 701 382 b 493 664 733 558 632 664 b 186 383 354 664 217 563 b 393 99 154 204 254 99 b 701 382 532 99 669 203 "},"Ē":{"ha":713,"x_min":0,"x_max":0,"o":"m 710 869 l 317 869 l 258 538 l 610 538 l 593 440 l 242 440 l 181 100 l 575 100 l 557 0 l 36 0 l 208 969 l 728 969 m 249 1186 l 738 1186 l 721 1092 l 232 1092 "},"ē":{"ha":861,"x_min":0,"x_max":0,"o":"m 478 667 b 194 429 353 667 233 582 l 676 429 b 478 667 704 585 608 667 m 757 235 b 364 -12 693 96 553 -12 b 56 382 147 -12 13 140 b 501 774 99 622 281 774 b 804 413 722 774 840 618 b 786 338 800 386 794 364 l 178 338 b 383 94 158 182 251 94 b 621 235 497 94 579 153 l 757 235 m 290 985 l 779 985 l 763 890 l 274 890 "},"Ĕ":{"ha":713,"x_min":0,"x_max":0,"o":"m 710 869 l 317 869 l 258 538 l 610 538 l 593 440 l 242 440 l 181 100 l 575 100 l 557 0 l 36 0 l 208 969 l 728 969 m 699 1229 b 469 1049 681 1126 597 1049 b 303 1231 342 1049 286 1128 l 307 1254 l 382 1254 b 486 1149 371 1188 397 1149 b 628 1254 575 1149 615 1188 l 703 1254 l 699 1229 "},"ĕ":{"ha":861,"x_min":0,"x_max":0,"o":"m 478 667 b 194 429 353 667 233 582 l 676 429 b 478 667 704 585 608 667 m 757 235 b 364 -12 693 96 553 -12 b 56 382 147 -12 13 140 b 501 774 99 622 281 774 b 804 413 722 774 840 618 b 786 338 800 386 794 364 l 178 338 b 383 94 158 182 251 94 b 621 235 497 94 579 153 l 757 235 m 740 1028 b 511 847 722 925 639 847 b 344 1029 383 847 328 926 l 349 1053 l 424 1053 b 528 947 413 986 439 947 b 669 1053 617 947 657 986 l 744 1053 l 740 1028 "},"Ė":{"ha":713,"x_min":0,"x_max":0,"o":"m 710 869 l 317 869 l 258 538 l 610 538 l 593 440 l 242 440 l 181 100 l 575 100 l 557 0 l 36 0 l 208 969 l 728 969 m 471 1057 b 410 1129 429 1057 403 1089 b 496 1203 417 1169 456 1203 b 556 1129 536 1203 564 1169 b 471 1057 549 1089 511 1057 "},"ė":{"ha":861,"x_min":0,"x_max":0,"o":"m 478 667 b 194 429 353 667 233 582 l 676 429 b 478 667 704 585 608 667 m 757 235 b 364 -12 693 96 553 -12 b 56 382 147 -12 13 140 b 501 774 99 622 281 774 b 804 413 722 774 840 618 b 786 338 800 386 794 364 l 178 338 b 383 94 158 182 251 94 b 621 235 497 94 579 153 l 757 235 m 513 857 b 451 929 471 857 444 889 b 538 1003 458 969 497 1003 b 597 929 578 1003 606 969 b 513 857 590 889 553 857 "},"Ę":{"ha":713,"x_min":0,"x_max":0,"o":"m 710 869 l 317 869 l 258 538 l 610 538 l 593 440 l 242 440 l 181 100 l 575 100 l 557 0 l 475 -37 b 374 -135 407 -68 381 -100 b 443 -201 367 -178 394 -201 b 538 -183 469 -201 504 -194 l 524 -267 b 413 -286 489 -278 450 -286 b 268 -147 329 -286 250 -249 b 389 0 276 -94 313 -46 l 36 0 l 208 969 l 728 969 "},"ę":{"ha":861,"x_min":0,"x_max":0,"o":"m 478 667 b 194 429 353 667 233 582 l 676 429 b 478 667 704 585 608 667 m 483 -247 b 372 -267 449 -258 410 -267 b 228 -128 289 -267 210 -229 b 307 -8 235 -86 258 -46 b 56 382 125 15 17 163 b 501 774 99 622 281 774 b 804 413 722 774 840 618 b 786 338 800 386 794 364 l 178 338 b 383 94 158 182 251 94 b 621 235 497 94 579 153 l 757 235 b 478 1 707 125 608 35 l 435 -18 b 333 -115 367 -49 340 -81 b 403 -182 326 -158 354 -182 b 497 -164 429 -182 464 -175 l 483 -247 "},"Ě":{"ha":713,"x_min":0,"x_max":0,"o":"m 710 869 l 317 869 l 258 538 l 610 538 l 593 440 l 242 440 l 181 100 l 575 100 l 557 0 l 36 0 l 208 969 l 728 969 m 697 1251 l 679 1151 l 467 1036 l 294 1151 l 313 1251 l 485 1133 "},"ě":{"ha":861,"x_min":0,"x_max":0,"o":"m 478 667 b 194 429 353 667 233 582 l 676 429 b 478 667 704 585 608 667 m 757 235 b 364 -12 693 96 553 -12 b 56 382 147 -12 13 140 b 501 774 99 622 281 774 b 804 413 722 774 840 618 b 786 338 800 386 794 364 l 178 338 b 383 94 158 182 251 94 b 621 235 497 94 579 153 l 757 235 m 739 1050 l 721 950 l 508 835 l 336 950 l 354 1050 l 526 932 "},"Ğ":{"ha":1081,"x_min":0,"x_max":0,"o":"m 75 485 b 647 979 126 775 375 979 b 1043 688 853 979 1003 874 l 892 688 b 628 865 858 800 764 865 b 204 485 424 865 246 718 b 493 106 164 253 289 106 b 890 422 685 106 838 228 l 504 422 l 522 522 l 1043 522 l 1025 425 b 474 -8 961 185 736 -8 b 75 485 201 -8 24 194 m 889 1229 b 660 1049 871 1126 788 1049 b 493 1231 532 1049 476 1128 l 497 1254 l 572 1254 b 676 1149 561 1188 588 1149 b 818 1254 765 1149 806 1188 l 893 1254 l 889 1229 "},"ğ":{"ha":939,"x_min":0,"x_max":0,"o":"m 56 383 b 488 774 97 621 282 774 b 743 622 625 774 714 704 l 768 761 l 896 761 l 758 -17 b 332 -375 721 -226 554 -375 b 10 -111 132 -375 6 -274 l 136 -111 b 351 -265 147 -203 226 -265 b 632 -17 486 -265 603 -179 l 660 143 b 349 -12 599 61 488 -12 b 56 383 144 -12 14 147 m 701 382 b 493 664 733 558 632 664 b 186 383 354 664 217 563 b 393 99 154 204 254 99 b 701 382 532 99 669 203 m 779 1028 b 550 847 761 925 678 847 b 383 1029 422 847 367 926 l 388 1053 l 463 1053 b 567 947 451 986 478 947 b 708 1053 656 947 696 986 l 783 1053 l 779 1028 "},"Ġ":{"ha":1081,"x_min":0,"x_max":0,"o":"m 75 485 b 647 979 126 775 375 979 b 1043 688 853 979 1003 874 l 892 688 b 628 865 858 800 764 865 b 204 485 424 865 246 718 b 493 106 164 253 289 106 b 890 422 685 106 838 228 l 504 422 l 522 522 l 1043 522 l 1025 425 b 474 -8 961 185 736 -8 b 75 485 201 -8 24 194 m 661 1057 b 600 1129 619 1057 593 1089 b 686 1203 607 1169 646 1203 b 746 1129 726 1203 754 1169 b 661 1057 739 1089 701 1057 "},"ġ":{"ha":939,"x_min":0,"x_max":0,"o":"m 56 383 b 488 774 97 621 282 774 b 743 622 625 774 714 704 l 768 761 l 896 761 l 758 -17 b 332 -375 721 -226 554 -375 b 10 -111 132 -375 6 -274 l 136 -111 b 351 -265 147 -203 226 -265 b 632 -17 486 -265 603 -179 l 660 143 b 349 -12 599 61 488 -12 b 56 383 144 -12 14 147 m 701 382 b 493 664 733 558 632 664 b 186 383 354 664 217 563 b 393 99 154 204 254 99 b 701 382 532 99 669 203 m 551 857 b 490 929 510 857 483 889 b 576 1003 497 969 536 1003 b 636 929 617 1003 644 969 b 551 857 629 889 592 857 "},"Ģ":{"ha":1081,"x_min":0,"x_max":0,"o":"m 519 -68 b 515 -183 522 -110 521 -149 b 346 -343 494 -294 436 -343 l 357 -285 b 436 -207 403 -285 426 -257 l 440 -182 l 374 -182 l 394 -68 m 75 485 b 647 979 126 775 375 979 b 1043 688 853 979 1003 874 l 892 688 b 628 865 858 800 764 865 b 204 485 424 865 246 718 b 493 106 164 253 289 106 b 890 422 685 106 838 228 l 504 422 l 522 522 l 1043 522 l 1025 425 b 474 -8 961 185 736 -8 b 75 485 201 -8 24 194 "},"ģ":{"ha":939,"x_min":0,"x_max":0,"o":"m 481 828 b 488 956 478 876 481 918 b 656 1113 507 1064 564 1113 l 644 1054 b 565 979 597 1054 575 1028 l 561 947 l 628 947 l 607 828 m 56 383 b 488 774 97 621 282 774 b 743 622 625 774 714 704 l 768 761 l 896 761 l 758 -17 b 332 -375 721 -226 554 -375 b 10 -111 132 -375 6 -274 l 136 -111 b 351 -265 147 -203 226 -265 b 632 -17 486 -265 603 -179 l 660 143 b 349 -12 599 61 488 -12 b 56 383 144 -12 14 147 m 701 382 b 493 664 733 558 632 664 b 186 383 354 664 217 563 b 393 99 154 204 254 99 b 701 382 532 99 669 203 "},"Ĩ":{"ha":342,"x_min":0,"x_max":0,"o":"m 208 968 l 335 968 l 163 0 l 36 0 m 82 1044 b 246 1190 111 1140 174 1190 b 393 1126 319 1190 335 1126 b 464 1186 424 1126 451 1146 l 538 1186 b 372 1042 508 1092 444 1042 b 225 1106 297 1042 281 1106 b 156 1044 194 1106 168 1086 l 82 1044 "},"ĩ":{"ha":342,"x_min":0,"x_max":0,"o":"m 171 761 l 297 761 l 163 0 l 36 0 m 46 843 b 210 989 75 939 138 989 b 357 925 283 989 299 925 b 428 985 388 925 415 944 l 501 985 b 336 840 472 890 408 840 b 189 904 261 840 244 904 b 119 843 158 904 132 885 l 46 843 "},"Ī":{"ha":342,"x_min":0,"x_max":0,"o":"m 208 968 l 335 968 l 163 0 l 36 0 m 65 1186 l 554 1186 l 538 1092 l 49 1092 "},"ī":{"ha":342,"x_min":0,"x_max":0,"o":"m 171 761 l 297 761 l 163 0 l 36 0 m 29 985 l 518 985 l 501 890 l 13 890 "},"Ĭ":{"ha":342,"x_min":0,"x_max":0,"o":"m 208 968 l 335 968 l 163 0 l 36 0 m 515 1229 b 286 1049 497 1126 414 1049 b 119 1231 158 1049 103 1128 l 124 1254 l 199 1254 b 303 1149 188 1188 214 1149 b 444 1254 392 1149 432 1188 l 519 1254 l 515 1229 "},"ĭ":{"ha":342,"x_min":0,"x_max":0,"o":"m 171 761 l 297 761 l 163 0 l 36 0 m 479 1028 b 250 847 461 925 378 847 b 83 1029 122 847 67 926 l 88 1053 l 163 1053 b 267 947 151 986 178 947 b 408 1053 356 947 396 986 l 483 1053 l 479 1028 "},"Į":{"ha":342,"x_min":0,"x_max":0,"o":"m 131 -265 b 19 -285 96 -276 57 -285 b -125 -146 -64 -285 -143 -247 b 40 25 -115 -85 -68 -28 l 208 968 l 335 968 l 163 4 l 164 1 l 163 1 l 163 0 l 161 0 l 82 -36 b -19 -133 14 -67 -12 -99 b 50 -200 -26 -176 1 -200 b 144 -182 76 -200 111 -193 l 131 -265 "},"į":{"ha":342,"x_min":0,"x_max":0,"o":"m 131 -265 b 19 -285 96 -276 57 -285 b -125 -146 -64 -285 -143 -247 b 40 25 -115 -85 -68 -28 l 171 761 l 297 761 l 163 4 l 164 1 l 163 1 l 163 0 l 161 0 l 82 -36 b -19 -133 14 -67 -12 -99 b 50 -200 -26 -176 1 -200 b 144 -182 76 -200 111 -193 l 131 -265 m 257 885 b 188 971 210 885 179 922 b 288 1057 196 1019 240 1057 b 357 971 335 1057 365 1019 b 257 885 349 922 304 885 "},"İ":{"ha":342,"x_min":0,"x_max":0,"o":"m 208 968 l 335 968 l 163 0 l 36 0 m 288 1057 b 226 1129 246 1057 219 1089 b 313 1203 233 1169 272 1203 b 372 1129 353 1203 381 1169 b 288 1057 365 1089 328 1057 "},"ı":{"ha":342,"x_min":0,"x_max":0,"o":"m 171 761 l 297 761 l 163 0 l 36 0 "},"Ķ":{"ha":832,"x_min":0,"x_max":0,"o":"m 392 -68 b 388 -183 396 -110 393 -149 b 219 -343 367 -294 308 -343 l 231 -285 b 308 -207 275 -285 299 -257 l 313 -182 l 246 -182 l 265 -68 m 242 442 l 163 0 l 36 0 l 208 968 l 335 968 l 256 521 l 735 968 l 893 968 l 369 483 l 726 0 l 561 0 "},"ķ":{"ha":715,"x_min":0,"x_max":0,"o":"m 338 -68 b 332 -183 340 -110 338 -149 b 164 -343 311 -294 253 -343 l 175 -285 b 254 -207 219 -285 244 -257 l 257 -182 l 192 -182 l 211 -68 m 218 1028 l 344 1028 l 238 425 l 590 761 l 765 761 l 342 381 l 633 0 l 461 0 l 222 335 l 163 0 l 36 0 "},"Ĺ":{"ha":600,"x_min":0,"x_max":0,"o":"m 335 968 l 181 97 l 519 97 l 501 0 l 36 0 l 208 968 m 594 1288 l 575 1178 l 250 1019 l 267 1114 "},"ĺ":{"ha":342,"x_min":0,"x_max":0,"o":"m 218 1028 l 344 1028 l 163 0 l 36 0 m 476 1353 l 457 1243 l 132 1085 l 149 1179 "},"Ļ":{"ha":600,"x_min":0,"x_max":0,"o":"m 315 -68 b 311 -183 319 -110 317 -149 b 142 -343 292 -294 233 -343 l 153 -285 b 232 -207 200 -285 224 -257 l 236 -182 l 169 -182 l 190 -68 m 335 968 l 181 97 l 519 97 l 501 0 l 36 0 l 208 968 "},"ļ":{"ha":342,"x_min":0,"x_max":0,"o":"m 147 -68 b 143 -183 150 -110 149 -149 b -26 -343 124 -294 64 -343 l -15 -285 b 64 -207 32 -285 56 -257 l 68 -182 l 1 -182 l 22 -68 m 218 1028 l 344 1028 l 163 0 l 36 0 "},"Ľ":{"ha":619,"x_min":0,"x_max":0,"o":"m 618 968 b 611 842 621 919 618 878 b 443 683 593 732 535 683 l 454 743 b 532 818 500 743 525 768 l 539 850 l 469 850 l 492 968 m 335 968 l 181 97 l 519 97 l 501 0 l 36 0 l 208 968 "},"ľ":{"ha":513,"x_min":0,"x_max":0,"o":"m 574 1028 b 567 900 576 979 572 938 b 399 743 549 792 489 743 l 408 803 b 488 876 456 803 479 828 l 494 908 l 425 908 l 446 1028 m 218 1028 l 344 1028 l 163 0 l 36 0 "},"Ŀ":{"ha":600,"x_min":0,"x_max":0,"o":"m 335 968 l 181 97 l 519 97 l 501 0 l 36 0 l 208 968 m 418 1057 b 357 1129 376 1057 350 1089 b 443 1203 364 1169 403 1203 b 503 1129 483 1203 511 1169 b 418 1057 496 1089 458 1057 "},"ŀ":{"ha":342,"x_min":0,"x_max":0,"o":"m 290 1076 b 231 1149 249 1076 222 1108 b 315 1222 238 1189 275 1222 b 376 1149 356 1222 383 1189 b 290 1076 369 1108 329 1076 m 218 1028 l 344 1028 l 163 0 l 36 0 "},"Ł":{"ha":607,"x_min":0,"x_max":0,"o":"m 354 968 l 286 588 l 447 642 l 426 522 l 265 468 l 200 97 l 538 97 l 519 0 l 56 0 l 131 422 l 10 382 l 31 500 l 151 540 l 226 968 "},"ł":{"ha":349,"x_min":0,"x_max":0,"o":"m 121 454 l 15 415 l 36 533 l 142 571 l 222 1028 l 349 1028 l 276 621 l 382 658 l 361 542 l 256 503 l 167 0 l 40 0 "},"Ń":{"ha":976,"x_min":0,"x_max":0,"o":"m 969 969 l 797 0 l 671 0 l 300 771 l 163 0 l 36 0 l 208 969 l 335 969 l 707 200 l 843 969 m 782 1288 l 763 1178 l 438 1019 l 454 1114 "},"ń":{"ha":889,"x_min":0,"x_max":0,"o":"m 704 1086 l 685 976 l 360 818 l 376 913 m 669 431 b 499 665 696 586 626 665 b 238 421 369 665 267 585 l 238 424 l 163 0 l 36 0 l 171 761 l 297 761 l 278 651 b 544 775 342 732 442 775 b 797 449 719 775 836 667 l 718 0 l 593 0 "},"Ņ":{"ha":976,"x_min":0,"x_max":0,"o":"m 465 -68 b 461 -183 468 -110 467 -149 b 293 -343 440 -294 382 -343 l 303 -285 b 382 -207 349 -285 372 -257 l 385 -182 l 319 -182 l 339 -68 m 969 969 l 797 0 l 671 0 l 300 771 l 163 0 l 36 0 l 208 969 l 335 969 l 707 200 l 843 969 "},"ņ":{"ha":889,"x_min":0,"x_max":0,"o":"m 424 -68 b 419 -183 428 -110 425 -149 b 251 -343 399 -294 342 -343 l 263 -285 b 340 -207 307 -285 331 -257 l 344 -182 l 278 -182 l 299 -68 m 669 431 b 499 665 696 586 626 665 b 238 421 369 665 267 585 l 238 424 l 163 0 l 36 0 l 171 761 l 297 761 l 278 651 b 544 775 342 732 442 775 b 797 449 719 775 836 667 l 718 0 l 593 0 "},"Ň":{"ha":976,"x_min":0,"x_max":0,"o":"m 969 969 l 797 0 l 671 0 l 300 771 l 163 0 l 36 0 l 208 969 l 335 969 l 707 200 l 843 969 m 832 1251 l 814 1151 l 601 1036 l 429 1151 l 447 1251 l 619 1133 "},"ň":{"ha":889,"x_min":0,"x_max":0,"o":"m 669 431 b 499 665 696 586 626 665 b 238 421 369 665 267 585 l 238 424 l 163 0 l 36 0 l 171 761 l 297 761 l 278 651 b 544 775 342 732 442 775 b 797 449 719 775 836 667 l 718 0 l 593 0 m 754 1050 l 736 950 l 524 835 l 351 950 l 369 1050 l 542 932 "},"Ō":{"ha":1092,"x_min":0,"x_max":0,"o":"m 1050 578 b 478 -10 1050 244 807 -10 b 72 393 233 -10 72 156 b 643 979 72 725 317 979 b 1050 578 890 979 1050 814 m 203 401 b 496 104 203 218 315 104 b 919 569 746 104 919 319 b 625 865 919 753 807 865 b 203 401 374 865 203 650 m 442 1194 l 931 1194 l 914 1100 l 425 1100 "},"ō":{"ha":889,"x_min":0,"x_max":0,"o":"m 833 456 b 371 -12 833 194 633 -12 b 49 304 178 -12 49 114 b 507 774 49 564 243 774 b 833 456 700 774 833 649 m 179 310 b 386 94 179 167 272 94 b 703 449 571 94 703 263 b 489 667 703 596 604 667 b 179 310 303 667 179 499 m 303 997 l 792 997 l 775 903 l 286 903 "},"Ŏ":{"ha":1092,"x_min":0,"x_max":0,"o":"m 1050 578 b 478 -10 1050 244 807 -10 b 72 393 233 -10 72 156 b 643 979 72 725 317 979 b 1050 578 890 979 1050 814 m 203 401 b 496 104 203 218 315 104 b 919 569 746 104 919 319 b 625 865 919 753 807 865 b 203 401 374 865 203 650 m 892 1238 b 663 1057 874 1135 790 1057 b 496 1239 535 1057 479 1136 l 500 1263 l 575 1263 b 679 1157 564 1196 590 1157 b 821 1263 768 1157 808 1196 l 896 1263 l 892 1238 "},"ŏ":{"ha":889,"x_min":0,"x_max":0,"o":"m 833 456 b 371 -12 833 194 633 -12 b 49 304 178 -12 49 114 b 507 774 49 564 243 774 b 833 456 700 774 833 649 m 179 310 b 386 94 179 167 272 94 b 703 449 571 94 703 263 b 489 667 703 596 604 667 b 179 310 303 667 179 499 m 753 1040 b 524 860 735 938 651 860 b 357 1042 396 860 340 939 l 361 1065 l 436 1065 b 540 960 425 999 451 960 b 682 1065 629 960 669 999 l 757 1065 l 753 1040 "},"Ő":{"ha":1092,"x_min":0,"x_max":0,"o":"m 1050 578 b 478 -10 1050 244 807 -10 b 72 393 233 -10 72 156 b 643 979 72 725 317 979 b 1050 578 890 979 1050 814 m 203 401 b 496 104 203 218 315 104 b 919 569 746 104 919 319 b 625 865 919 753 807 865 b 203 401 374 865 203 650 m 968 1258 l 794 1044 l 710 1044 l 858 1258 m 743 1258 l 585 1044 l 500 1044 l 631 1258 "},"ő":{"ha":889,"x_min":0,"x_max":0,"o":"m 833 456 b 371 -12 833 194 633 -12 b 49 304 178 -12 49 114 b 507 774 49 564 243 774 b 833 456 700 774 833 649 m 179 310 b 386 94 179 167 272 94 b 703 449 571 94 703 263 b 489 667 703 596 604 667 b 179 310 303 667 179 499 m 829 1061 l 656 847 l 571 847 l 719 1061 m 604 1061 l 446 847 l 361 847 l 492 1061 "},"Œ":{"ha":1511,"x_min":0,"x_max":0,"o":"m 1115 869 l 1057 538 l 1410 538 l 1392 439 l 1040 439 l 981 100 l 1374 100 l 1356 0 l 836 0 l 871 199 b 468 -10 776 64 629 -10 b 78 485 206 -10 26 194 b 642 979 129 778 381 979 b 972 775 804 979 925 906 l 1007 968 l 1528 968 l 1508 869 m 632 865 b 208 485 428 865 250 718 b 497 104 167 253 293 104 b 922 485 701 104 881 253 b 632 865 963 718 836 865 "},"œ":{"ha":1500,"x_min":0,"x_max":0,"o":"m 696 382 b 489 667 729 574 621 667 b 186 382 357 667 219 574 b 386 94 151 189 254 94 b 696 382 518 94 661 189 m 1117 667 b 833 425 990 667 871 581 l 1314 425 b 1117 667 1343 581 1247 667 m 56 382 b 511 774 99 622 294 774 b 794 589 649 774 754 706 b 1142 774 874 706 1000 774 b 1443 413 1363 774 1479 618 b 1424 338 1439 386 1432 364 l 818 338 b 1017 94 797 182 886 94 b 1256 235 1132 94 1214 153 l 1392 235 b 997 -12 1328 96 1188 -12 b 721 175 860 -12 758 56 b 367 -12 638 56 506 -12 b 56 382 150 -12 13 140 "},"Ŕ":{"ha":844,"x_min":0,"x_max":0,"o":"m 675 683 b 501 868 696 796 646 868 l 317 868 l 251 497 l 438 497 b 675 683 579 497 656 575 m 519 968 b 806 683 747 968 833 842 b 526 406 783 560 694 442 l 697 0 l 546 0 l 385 396 l 233 396 l 163 0 l 36 0 l 208 968 m 725 1288 l 706 1178 l 381 1019 l 397 1114 "},"ŕ":{"ha":518,"x_min":0,"x_max":0,"o":"m 236 414 l 163 0 l 36 0 l 171 761 l 297 761 l 272 617 b 546 775 332 714 425 775 l 522 644 l 489 644 b 236 414 368 644 268 590 m 578 1086 l 558 976 l 233 818 l 250 913 "},"Ŗ":{"ha":844,"x_min":0,"x_max":0,"o":"m 399 -68 b 393 -183 401 -110 399 -149 b 225 -343 372 -294 315 -343 l 236 -285 b 314 -207 281 -285 304 -257 l 318 -182 l 253 -182 l 272 -68 m 36 0 l 208 968 l 519 968 b 806 683 747 968 833 842 b 526 406 783 560 694 442 l 697 0 l 546 0 l 385 396 l 233 396 l 163 0 m 675 683 b 501 868 696 796 646 868 l 317 868 l 251 497 l 438 497 b 675 683 579 497 656 575 "},"ŗ":{"ha":518,"x_min":0,"x_max":0,"o":"m 146 -68 b 142 -183 150 -110 147 -149 b -26 -343 122 -294 64 -343 l -15 -285 b 64 -207 31 -285 54 -257 l 67 -182 l 0 -182 l 21 -68 m 236 414 l 163 0 l 36 0 l 171 761 l 297 761 l 272 617 b 546 775 332 714 425 775 l 522 644 l 489 644 b 236 414 368 644 268 590 "},"Ř":{"ha":844,"x_min":0,"x_max":0,"o":"m 675 683 b 501 868 696 796 646 868 l 317 868 l 251 497 l 438 497 b 675 683 579 497 656 575 m 519 968 b 806 683 747 968 833 842 b 526 406 783 560 694 442 l 697 0 l 546 0 l 385 396 l 233 396 l 163 0 l 36 0 l 208 968 m 775 1251 l 757 1151 l 544 1036 l 372 1151 l 390 1251 l 563 1133 "},"ř":{"ha":518,"x_min":0,"x_max":0,"o":"m 236 414 l 163 0 l 36 0 l 171 761 l 297 761 l 272 617 b 546 775 332 714 425 775 l 522 644 l 489 644 b 236 414 368 644 268 590 m 628 1050 l 610 950 l 397 835 l 225 950 l 243 1050 l 415 932 "},"Ś":{"ha":808,"x_min":0,"x_max":0,"o":"m 708 256 b 367 -10 703 104 571 -10 b 65 258 176 -10 47 94 l 190 258 b 372 93 185 176 239 93 b 578 246 493 93 572 147 b 125 707 593 479 115 400 b 460 981 126 871 264 981 b 757 732 654 981 764 874 l 625 732 b 453 876 631 803 574 876 b 253 728 339 876 258 821 b 708 256 239 508 724 571 m 701 1288 l 682 1178 l 357 1019 l 374 1114 "},"ś":{"ha":725,"x_min":0,"x_max":0,"o":"m 610 207 b 304 -12 610 71 479 -12 b 33 224 139 -12 17 79 l 157 224 b 311 89 150 146 206 89 b 485 203 411 89 485 129 b 100 556 485 358 100 307 b 390 774 100 686 221 774 b 656 535 556 774 674 678 l 535 535 b 382 672 544 618 481 672 b 226 560 292 672 226 629 b 610 207 226 396 610 446 m 621 1086 l 601 976 l 276 818 l 293 913 "},"Ş":{"ha":808,"x_min":0,"x_max":0,"o":"m 708 256 b 385 -10 703 108 578 -3 l 372 -81 b 526 -218 478 -79 543 -126 b 332 -361 511 -306 431 -361 l 172 -361 l 186 -279 l 321 -279 b 421 -218 381 -279 413 -262 b 343 -158 429 -175 403 -158 l 272 -158 l 300 -6 b 65 258 147 17 50 114 l 190 258 b 372 93 185 176 239 93 b 578 246 493 93 572 147 b 125 707 593 479 115 400 b 460 981 126 871 264 981 b 757 732 654 981 764 874 l 625 732 b 453 876 631 803 574 876 b 253 728 339 876 258 821 b 708 256 239 508 724 571 "},"ş":{"ha":725,"x_min":0,"x_max":0,"o":"m 610 207 b 338 -11 610 79 496 -1 l 326 -81 b 481 -218 432 -79 497 -126 b 286 -361 465 -306 385 -361 l 126 -361 l 140 -279 l 275 -279 b 375 -218 335 -279 367 -262 b 297 -158 383 -175 357 -158 l 226 -158 l 253 -10 b 33 224 115 7 18 94 l 157 224 b 311 89 150 146 206 89 b 485 203 411 89 485 129 b 100 556 485 358 100 307 b 390 774 100 686 221 774 b 656 535 556 774 674 678 l 535 535 b 382 672 544 618 481 672 b 226 560 292 672 226 629 b 610 207 226 396 610 446 "},"Š":{"ha":808,"x_min":0,"x_max":0,"o":"m 708 256 b 367 -10 703 104 571 -10 b 65 258 176 -10 47 94 l 190 258 b 372 93 185 176 239 93 b 578 246 493 93 572 147 b 125 707 593 479 115 400 b 460 981 126 871 264 981 b 757 732 654 981 764 874 l 625 732 b 453 876 631 803 574 876 b 253 728 339 876 258 821 b 708 256 239 508 724 571 m 751 1251 l 733 1151 l 521 1036 l 349 1151 l 367 1251 l 539 1133 "},"š":{"ha":725,"x_min":0,"x_max":0,"o":"m 610 207 b 304 -12 610 71 479 -12 b 33 224 139 -12 17 79 l 157 224 b 311 89 150 146 206 89 b 485 203 411 89 485 129 b 100 556 485 358 100 307 b 390 774 100 686 221 774 b 656 535 556 774 674 678 l 535 535 b 382 672 544 618 481 672 b 226 560 292 672 226 629 b 610 207 226 396 610 446 m 671 1050 l 653 950 l 440 835 l 268 950 l 286 1050 l 458 932 "},"Ţ":{"ha":751,"x_min":0,"x_max":0,"o":"m 149 968 l 803 968 l 785 869 l 521 869 l 368 0 l 350 0 l 336 -81 b 490 -218 442 -79 507 -126 b 296 -361 475 -306 394 -361 l 136 -361 l 150 -279 l 285 -279 b 385 -218 344 -279 376 -262 b 307 -158 393 -175 367 -158 l 236 -158 l 265 0 l 242 0 l 394 869 l 131 869 "},"ţ":{"ha":506,"x_min":0,"x_max":0,"o":"m 179 657 l 82 657 l 100 761 l 199 761 l 232 953 l 360 953 l 326 761 l 524 761 l 506 657 l 307 657 l 228 208 b 315 107 214 133 238 107 l 408 107 l 389 0 l 275 0 b 246 1 265 0 254 0 l 231 -81 b 385 -218 336 -79 401 -126 b 190 -361 369 -306 289 -361 l 31 -361 l 46 -279 l 181 -279 b 279 -218 240 -279 272 -262 b 201 -158 288 -175 261 -158 l 132 -158 l 163 21 b 100 208 106 49 82 107 "},"Ť":{"ha":751,"x_min":0,"x_max":0,"o":"m 149 968 l 803 968 l 785 869 l 521 869 l 368 0 l 242 0 l 394 869 l 131 869 m 719 1251 l 701 1151 l 489 1036 l 317 1151 l 335 1251 l 507 1133 "},"ť":{"ha":510,"x_min":0,"x_max":0,"o":"m 610 1074 b 606 956 611 1025 611 993 b 439 821 588 860 531 821 l 450 879 b 525 929 496 879 519 894 l 529 954 l 461 954 l 483 1074 m 179 657 l 82 657 l 100 761 l 199 761 l 232 953 l 360 953 l 326 761 l 524 761 l 506 657 l 307 657 l 228 208 b 315 107 214 133 238 107 l 408 107 l 389 0 l 275 0 b 100 208 140 0 74 56 "},"Ũ":{"ha":938,"x_min":0,"x_max":0,"o":"m 206 968 l 332 968 l 224 357 b 417 103 193 181 275 103 b 700 357 561 103 668 181 l 808 968 l 935 968 l 826 357 b 396 -10 782 106 596 -10 b 97 357 196 -10 53 106 m 379 1044 b 543 1190 408 1140 471 1190 b 690 1126 617 1190 632 1126 b 761 1186 721 1126 749 1146 l 835 1186 b 669 1042 806 1092 742 1042 b 522 1106 594 1042 578 1106 b 453 1044 492 1106 465 1086 l 379 1044 "},"ũ":{"ha":889,"x_min":0,"x_max":0,"o":"m 711 0 l 585 0 l 604 111 b 340 -11 542 32 440 -11 b 85 315 165 -11 47 97 l 164 761 l 289 761 l 214 332 b 385 99 188 178 257 99 b 644 343 514 99 618 179 l 644 339 l 719 761 l 846 761 m 321 843 b 485 989 350 939 413 989 b 632 925 558 989 574 925 b 703 985 663 925 690 944 l 776 985 b 611 840 747 890 683 840 b 464 904 536 840 519 904 b 394 843 433 904 407 885 l 321 843 "},"Ū":{"ha":938,"x_min":0,"x_max":0,"o":"m 206 968 l 332 968 l 224 357 b 417 103 193 181 275 103 b 700 357 561 103 668 181 l 808 968 l 935 968 l 826 357 b 396 -10 782 106 596 -10 b 97 357 196 -10 53 106 m 364 1186 l 853 1186 l 836 1092 l 347 1092 "},"ū":{"ha":889,"x_min":0,"x_max":0,"o":"m 711 0 l 585 0 l 604 111 b 340 -11 542 32 440 -11 b 85 315 165 -11 47 97 l 164 761 l 289 761 l 214 332 b 385 99 188 178 257 99 b 644 343 514 99 618 179 l 644 339 l 719 761 l 846 761 m 304 985 l 793 985 l 776 890 l 288 890 "},"Ŭ":{"ha":938,"x_min":0,"x_max":0,"o":"m 206 968 l 332 968 l 224 357 b 417 103 193 181 275 103 b 700 357 561 103 668 181 l 808 968 l 935 968 l 826 357 b 396 -10 782 106 596 -10 b 97 357 196 -10 53 106 m 814 1229 b 585 1049 796 1126 713 1049 b 418 1231 457 1049 401 1128 l 422 1254 l 497 1254 b 601 1149 486 1188 513 1149 b 743 1254 690 1149 731 1188 l 818 1254 l 814 1229 "},"ŭ":{"ha":889,"x_min":0,"x_max":0,"o":"m 711 0 l 585 0 l 604 111 b 340 -11 542 32 440 -11 b 85 315 165 -11 47 97 l 164 761 l 289 761 l 214 332 b 385 99 188 178 257 99 b 644 343 514 99 618 179 l 644 339 l 719 761 l 846 761 m 754 1028 b 525 847 736 925 653 847 b 358 1029 397 847 342 926 l 363 1053 l 438 1053 b 542 947 426 986 453 947 b 683 1053 631 947 671 986 l 758 1053 l 754 1028 "},"Ů":{"ha":938,"x_min":0,"x_max":0,"o":"m 206 968 l 332 968 l 224 357 b 417 103 193 181 275 103 b 700 357 561 103 668 181 l 808 968 l 935 968 l 826 357 b 396 -10 782 106 596 -10 b 97 357 196 -10 53 106 m 463 1190 b 633 1336 479 1281 554 1336 b 753 1190 715 1336 768 1281 b 582 1044 736 1100 663 1044 b 463 1190 503 1044 447 1100 m 686 1192 b 621 1269 694 1239 665 1269 b 531 1192 578 1269 539 1239 b 593 1113 522 1144 551 1113 b 686 1192 638 1113 678 1144 "},"ů":{"ha":889,"x_min":0,"x_max":0,"o":"m 711 0 l 585 0 l 604 111 b 340 -11 542 32 440 -11 b 85 315 165 -11 47 97 l 164 761 l 289 761 l 214 332 b 385 99 188 178 257 99 b 644 343 514 99 618 179 l 644 339 l 719 761 l 846 761 m 628 990 b 563 1068 636 1038 607 1068 b 472 990 519 1068 481 1038 b 535 911 464 943 493 911 b 628 990 579 911 619 943 m 404 989 b 575 1135 421 1079 496 1135 b 694 989 657 1135 710 1079 b 524 843 678 899 604 843 b 404 989 444 843 389 899 "},"Ű":{"ha":938,"x_min":0,"x_max":0,"o":"m 206 968 l 332 968 l 224 357 b 417 103 193 181 275 103 b 700 357 561 103 668 181 l 808 968 l 935 968 l 826 357 b 396 -10 782 106 596 -10 b 97 357 196 -10 53 106 m 890 1250 l 717 1036 l 632 1036 l 781 1250 m 665 1250 l 507 1036 l 422 1036 l 553 1250 "},"ű":{"ha":889,"x_min":0,"x_max":0,"o":"m 711 0 l 585 0 l 604 111 b 340 -11 542 32 440 -11 b 85 315 165 -11 47 97 l 164 761 l 289 761 l 214 332 b 385 99 188 178 257 99 b 644 343 514 99 618 179 l 644 339 l 719 761 l 846 761 m 606 1049 l 447 835 l 363 835 l 493 1049 m 831 1049 l 657 835 l 572 835 l 721 1049 "},"Ų":{"ha":938,"x_min":0,"x_max":0,"o":"m 206 968 l 332 968 l 224 357 b 417 103 193 181 275 103 b 700 357 561 103 668 181 l 808 968 l 935 968 l 826 357 b 496 0 789 149 654 33 l 496 0 l 414 -37 b 313 -135 346 -68 319 -100 b 382 -201 306 -178 333 -201 b 476 -183 408 -201 443 -194 l 463 -267 b 351 -286 428 -278 389 -286 b 207 -147 268 -286 189 -249 b 322 -4 215 -96 249 -49 b 97 357 163 22 58 138 "},"ų":{"ha":889,"x_min":0,"x_max":0,"o":"m 711 0 l 711 0 l 711 -1 l 629 -39 b 528 -136 561 -69 535 -101 b 597 -203 521 -179 549 -203 b 692 -185 624 -203 658 -196 l 678 -268 b 567 -287 643 -279 604 -287 b 422 -149 483 -287 404 -250 b 589 22 432 -86 481 -29 l 604 111 b 340 -11 542 32 440 -11 b 85 315 165 -11 47 97 l 164 761 l 289 761 l 214 332 b 385 99 188 178 257 99 b 644 343 514 99 618 179 l 644 339 l 719 761 l 846 761 "},"Ŵ":{"ha":1356,"x_min":0,"x_max":0,"o":"m 132 968 l 268 968 l 335 150 l 711 968 l 854 968 l 932 153 l 1288 968 l 1424 968 l 972 0 l 831 0 l 743 779 l 374 0 l 232 -1 m 942 1049 l 771 1167 l 558 1049 l 575 1149 l 789 1264 l 960 1149 "},"ŵ":{"ha":1139,"x_min":0,"x_max":0,"o":"m 81 761 l 210 761 l 272 122 l 572 761 l 703 761 l 775 126 l 1060 761 l 1185 761 l 813 0 l 682 0 l 607 606 l 315 0 l 185 0 m 839 836 l 668 954 l 456 836 l 472 936 l 686 1051 l 857 936 "},"Ŷ":{"ha":811,"x_min":0,"x_max":0,"o":"m 126 968 l 268 968 l 419 481 l 743 968 l 886 968 l 464 365 l 399 0 l 272 0 l 338 365 m 711 1038 l 540 1156 l 328 1038 l 344 1138 l 558 1253 l 729 1138 "},"ŷ":{"ha":782,"x_min":0,"x_max":0,"o":"m 81 761 l 221 761 l 350 147 l 696 761 l 826 761 l 171 -358 l 39 -358 l 254 8 m 660 836 l 489 954 l 276 836 l 293 936 l 507 1051 l 678 936 "},"Ÿ":{"ha":811,"x_min":0,"x_max":0,"o":"m 126 968 l 268 968 l 419 481 l 743 968 l 886 968 l 464 365 l 399 0 l 272 0 l 338 365 m 413 1065 b 350 1125 376 1065 350 1090 b 438 1211 350 1171 392 1211 b 499 1151 474 1211 499 1185 b 413 1065 499 1104 456 1065 m 639 1065 b 576 1125 601 1065 576 1090 b 664 1211 576 1171 618 1211 b 725 1151 699 1211 725 1185 b 639 1065 725 1104 682 1065 "},"Ź":{"ha":751,"x_min":0,"x_max":0,"o":"m 765 868 l 163 110 l 636 110 l 615 0 l -7 0 l 11 100 l 614 858 l 149 858 l 169 968 l 783 968 m 669 1288 l 650 1178 l 325 1019 l 342 1114 "},"ź":{"ha":632,"x_min":0,"x_max":0,"o":"m 617 658 l 150 104 l 524 104 l 504 0 l -14 0 l 4 104 l 472 658 l 106 658 l 124 761 l 635 761 m 575 1086 l 556 976 l 231 818 l 247 913 "},"Ż":{"ha":751,"x_min":0,"x_max":0,"o":"m 765 868 l 163 110 l 636 110 l 615 0 l -7 0 l 11 100 l 614 858 l 149 858 l 169 968 l 783 968 m 493 1057 b 432 1129 451 1057 425 1089 b 518 1203 439 1169 478 1203 b 578 1129 558 1203 586 1169 b 493 1057 571 1089 533 1057 "},"ż":{"ha":632,"x_min":0,"x_max":0,"o":"m 617 658 l 150 104 l 524 104 l 504 0 l -14 0 l 4 104 l 472 658 l 106 658 l 124 761 l 635 761 m 399 857 b 338 929 357 857 331 889 b 424 1003 344 969 383 1003 b 483 929 464 1003 492 969 b 399 857 476 889 439 857 "},"Ž":{"ha":751,"x_min":0,"x_max":0,"o":"m 765 868 l 163 110 l 636 110 l 615 0 l -7 0 l 11 100 l 614 858 l 149 858 l 169 968 l 783 968 m 719 1251 l 701 1151 l 489 1036 l 317 1151 l 335 1251 l 507 1133 "},"ž":{"ha":632,"x_min":0,"x_max":0,"o":"m 617 658 l 150 104 l 524 104 l 504 0 l -14 0 l 4 104 l 472 658 l 106 658 l 124 761 l 635 761 m 625 1050 l 607 950 l 394 835 l 222 950 l 240 1050 l 413 932 "},"Ə":{"ha":1035,"x_min":0,"x_max":0,"o":"m 454 104 b 840 414 643 104 799 229 l 194 414 b 454 104 160 218 271 104 m 439 -10 b 58 353 217 -10 58 125 b 88 532 58 408 71 475 l 860 532 l 860 533 b 593 865 885 733 775 865 b 261 667 450 865 324 790 l 115 667 b 613 979 206 858 390 979 b 1001 596 846 979 1001 822 b 439 -10 1001 269 772 -10 "},"ƒ":{"ha":461,"x_min":0,"x_max":0,"o":"m 225 826 b 568 1065 274 994 381 1065 l 539 960 b 351 826 432 960 378 922 l 333 761 l 493 761 l 465 658 l 304 658 l 96 -79 b -153 -274 57 -218 -24 -274 l -186 -274 l -156 -169 l -131 -169 b -31 -79 -78 -169 -49 -147 l 178 658 l 79 658 l 107 761 l 207 761 l 225 826 "},"Ǽ":{"ha":1250,"x_min":0,"x_max":0,"o":"m 1035 1296 l 1015 1186 l 690 1028 l 707 1122 m 315 314 l 631 314 l 729 874 m 854 869 l 796 538 l 1147 538 l 1131 440 l 779 440 l 719 100 l 1111 100 l 1093 0 l 575 0 l 613 215 l 243 215 l 83 0 l -56 0 l 665 969 l 1265 969 l 1247 869 "},"ǽ":{"ha":1528,"x_min":0,"x_max":0,"o":"m 1136 667 b 839 429 1007 667 881 579 l 1340 429 b 1136 667 1368 581 1271 667 m 1419 235 b 1036 -12 1357 96 1218 -12 b 779 147 913 -12 813 50 l 754 0 l 635 0 l 661 146 b 349 -12 593 57 481 -12 b 56 383 144 -12 14 147 b 493 774 97 621 282 774 b 744 621 619 774 706 718 l 769 761 l 888 761 l 864 621 b 1175 774 947 728 1054 774 b 1468 413 1392 774 1503 614 b 1449 338 1463 386 1457 364 l 822 338 b 1035 94 807 175 917 94 b 1283 235 1156 94 1243 151 l 1419 235 m 186 383 b 393 99 154 204 254 99 b 701 382 532 99 669 203 b 493 664 733 558 632 664 b 186 383 354 664 217 563 m 1124 1086 l 1104 976 l 779 818 l 796 913 "},"Ș":{"ha":815,"x_min":0,"x_max":0,"o":"m 393 -68 b 389 -183 397 -110 394 -149 b 221 -343 369 -294 311 -343 l 231 -285 b 311 -207 278 -285 301 -257 l 314 -182 l 249 -182 l 268 -68 m 708 256 b 367 -10 703 104 571 -10 b 65 258 176 -10 47 94 l 190 258 b 372 93 185 176 239 93 b 578 246 493 93 572 147 b 125 707 593 479 115 400 b 460 981 126 871 264 981 b 757 732 654 981 764 874 l 625 732 b 453 876 631 803 574 876 b 253 728 339 876 258 821 b 708 256 239 508 724 571 "},"ș":{"ha":725,"x_min":0,"x_max":0,"o":"m 347 -68 b 343 -183 350 -110 349 -149 b 174 -343 322 -294 264 -343 l 185 -285 b 264 -207 231 -285 254 -257 l 267 -182 l 201 -182 l 221 -68 m 610 207 b 304 -12 610 71 479 -12 b 33 224 139 -12 17 79 l 157 224 b 311 89 150 146 206 89 b 485 203 411 89 485 129 b 100 556 485 358 100 307 b 390 774 100 686 221 774 b 656 535 556 774 674 678 l 535 535 b 382 672 544 618 481 672 b 226 560 292 672 226 629 b 610 207 226 396 610 446 "},"Ț":{"ha":751,"x_min":0,"x_max":0,"o":"m 353 -68 b 347 -183 356 -110 353 -149 b 179 -343 326 -294 269 -343 l 190 -285 b 269 -207 235 -285 260 -257 l 272 -182 l 207 -182 l 226 -68 m 149 968 l 803 968 l 785 869 l 521 869 l 368 0 l 242 0 l 394 869 l 131 869 "},"ț":{"ha":506,"x_min":0,"x_max":0,"o":"m 242 -68 b 238 -183 246 -110 243 -149 b 68 -343 217 -294 158 -343 l 79 -285 b 158 -207 125 -285 149 -257 l 163 -182 l 96 -182 l 117 -68 m 179 657 l 82 657 l 100 761 l 199 761 l 232 953 l 360 953 l 326 761 l 524 761 l 506 657 l 307 657 l 228 208 b 315 107 214 133 238 107 l 408 107 l 389 0 l 275 0 b 100 208 140 0 74 56 "},"ə":{"ha":861,"x_min":0,"x_max":0,"o":"m 383 94 b 667 332 508 94 628 179 l 185 332 b 383 94 157 176 253 94 m 360 -12 b 57 349 139 -12 21 143 b 75 424 61 375 67 397 l 683 424 b 478 667 703 579 610 667 b 240 526 364 667 282 608 l 104 526 b 497 774 168 665 308 774 b 806 379 714 774 849 621 b 360 -12 763 139 581 -12 "},"ʼ":{"ha":304,"x_min":0,"x_max":0,"o":"m 110 653 l 247 968 l 389 968 l 200 653 "},"ˆ":{"ha":432,"x_min":0,"x_max":0,"o":"m 485 836 l 314 954 l 101 836 l 118 936 l 332 1051 l 503 936 "},"ˇ":{"ha":432,"x_min":0,"x_max":0,"o":"m 524 1050 l 506 950 l 293 835 l 121 950 l 139 1050 l 311 932 "},"ˉ":{"ha":538,"x_min":0,"x_max":0,"o":"m 128 985 l 617 985 l 600 890 l 111 890 "},"˘":{"ha":444,"x_min":0,"x_max":0,"o":"m 531 1028 b 301 847 513 925 429 847 b 135 1029 174 847 118 926 l 139 1053 l 214 1053 b 318 947 203 986 229 947 b 460 1053 407 947 447 986 l 535 1053 l 531 1028 "},"˙":{"ha":199,"x_min":0,"x_max":0,"o":"m 182 864 b 121 936 140 864 114 896 b 207 1010 128 976 167 1010 b 267 936 247 1010 275 976 b 182 864 260 896 222 864 "},"˚":{"ha":338,"x_min":0,"x_max":0,"o":"m 128 989 b 299 1135 144 1079 219 1135 b 418 989 381 1135 433 1079 b 247 843 401 899 328 843 b 128 989 168 843 113 899 m 351 990 b 286 1068 360 1038 331 1068 b 196 990 243 1068 204 1038 b 258 911 188 943 217 911 b 351 990 303 911 343 943 "},"˛":{"ha":335,"x_min":0,"x_max":0,"o":"m 199 67 l 221 0 l 139 -37 b 38 -135 71 -68 44 -100 b 107 -201 31 -178 58 -201 b 201 -183 133 -201 168 -194 l 188 -267 b 76 -286 153 -278 114 -286 b -68 -147 -7 -286 -86 -249 b 125 36 -57 -81 -3 -19 "},"˜":{"ha":479,"x_min":0,"x_max":0,"o":"m 103 843 b 267 989 132 939 194 989 b 414 925 340 989 356 925 b 485 985 444 925 472 944 l 558 985 b 393 840 529 890 465 840 b 246 904 318 840 301 904 b 176 843 215 904 189 885 l 103 843 "},"˝":{"ha":478,"x_min":0,"x_max":0,"o":"m 568 1049 l 394 835 l 310 835 l 458 1049 m 343 1049 l 185 835 l 100 835 l 231 1049 "},"π":{"ha":986,"x_min":0,"x_max":0,"o":"m 118 761 l 989 761 l 972 663 l 863 663 l 744 0 l 619 0 l 736 663 l 336 663 l 219 0 l 93 0 l 210 663 l 101 663 "},"Ẁ":{"ha":1356,"x_min":0,"x_max":0,"o":"m 132 968 l 268 968 l 335 150 l 711 968 l 854 968 l 932 153 l 1288 968 l 1424 968 l 972 0 l 831 0 l 743 779 l 374 0 l 232 -1 m 576 1294 l 840 1121 l 824 1026 l 557 1185 "},"ẁ":{"ha":1139,"x_min":0,"x_max":0,"o":"m 81 761 l 210 761 l 272 122 l 572 761 l 703 761 l 775 126 l 1060 761 l 1185 761 l 813 0 l 682 0 l 607 606 l 315 0 l 185 0 m 458 1086 l 722 913 l 706 818 l 439 976 "},"Ẃ":{"ha":1356,"x_min":0,"x_max":0,"o":"m 132 968 l 268 968 l 335 150 l 711 968 l 854 968 l 932 153 l 1288 968 l 1424 968 l 972 0 l 831 0 l 743 779 l 374 0 l 232 -1 m 1032 1299 l 1013 1189 l 688 1031 l 704 1125 "},"ẃ":{"ha":1139,"x_min":0,"x_max":0,"o":"m 81 761 l 210 761 l 272 122 l 572 761 l 703 761 l 775 126 l 1060 761 l 1185 761 l 813 0 l 682 0 l 607 606 l 315 0 l 185 0 m 926 1086 l 907 976 l 582 818 l 599 913 "},"Ẅ":{"ha":1356,"x_min":0,"x_max":0,"o":"m 132 968 l 268 968 l 335 150 l 711 968 l 854 968 l 932 153 l 1288 968 l 1424 968 l 972 0 l 831 0 l 743 779 l 374 0 l 232 -1 m 643 1074 b 581 1133 607 1074 581 1099 b 668 1219 581 1179 622 1219 b 729 1160 704 1219 729 1193 b 643 1074 729 1113 686 1074 m 869 1074 b 807 1133 832 1074 807 1099 b 894 1219 807 1179 849 1219 b 956 1160 929 1219 956 1193 b 869 1074 956 1113 913 1074 "},"ẅ":{"ha":1139,"x_min":0,"x_max":0,"o":"m 81 761 l 210 761 l 272 122 l 572 761 l 703 761 l 775 126 l 1060 761 l 1185 761 l 813 0 l 682 0 l 607 606 l 315 0 l 185 0 m 539 864 b 476 924 503 864 476 889 b 564 1010 476 969 518 1010 b 625 950 600 1010 625 983 b 539 864 625 903 582 864 m 765 864 b 703 924 728 864 703 889 b 790 1010 703 969 744 1010 b 851 950 825 1010 851 983 b 765 864 851 903 808 864 "},"Ẽ":{"ha":713,"x_min":0,"x_max":0,"o":"m 710 869 l 317 869 l 258 538 l 610 538 l 593 440 l 242 440 l 181 100 l 575 100 l 557 0 l 36 0 l 208 969 l 728 969 m 265 1044 b 429 1190 294 1140 357 1190 b 576 1126 503 1190 518 1126 b 647 1186 607 1126 635 1146 l 721 1186 b 556 1042 692 1092 628 1042 b 408 1106 481 1042 464 1106 b 339 1044 378 1106 351 1086 l 265 1044 "},"ẽ":{"ha":861,"x_min":0,"x_max":0,"o":"m 478 667 b 194 429 353 667 233 582 l 676 429 b 478 667 704 585 608 667 m 757 235 b 364 -12 693 96 553 -12 b 56 382 147 -12 13 140 b 501 774 99 622 281 774 b 804 413 722 774 840 618 b 786 338 800 386 794 364 l 178 338 b 383 94 158 182 251 94 b 621 235 497 94 579 153 l 757 235 m 306 843 b 469 989 335 939 397 989 b 617 925 543 989 558 925 b 688 985 647 925 675 944 l 761 985 b 596 840 732 890 668 840 b 449 904 521 840 504 904 b 379 843 418 904 392 885 l 306 843 "},"Ỳ":{"ha":811,"x_min":0,"x_max":0,"o":"m 126 968 l 268 968 l 419 481 l 743 968 l 886 968 l 464 365 l 399 0 l 272 0 l 338 365 m 404 1288 l 668 1114 l 651 1019 l 385 1178 "},"ỳ":{"ha":782,"x_min":0,"x_max":0,"o":"m 81 761 l 221 761 l 350 147 l 696 761 l 826 761 l 171 -358 l 39 -358 l 254 8 m 353 1086 l 617 913 l 600 818 l 333 976 "},"Ỹ":{"ha":811,"x_min":0,"x_max":0,"o":"m 126 968 l 268 968 l 419 481 l 743 968 l 886 968 l 464 365 l 399 0 l 272 0 l 338 365 m 317 1044 b 481 1190 346 1140 408 1190 b 628 1126 554 1190 569 1126 b 699 1186 658 1126 686 1146 l 772 1186 b 607 1042 743 1092 679 1042 b 460 1106 532 1042 515 1106 b 390 1044 429 1106 403 1086 l 317 1044 "},"ỹ":{"ha":782,"x_min":0,"x_max":0,"o":"m 81 761 l 221 761 l 350 147 l 696 761 l 826 761 l 171 -358 l 39 -358 l 254 8 m 267 843 b 431 989 296 939 358 989 b 578 925 504 989 519 925 b 649 985 608 925 636 944 l 722 985 b 557 840 693 890 629 840 b 410 904 482 840 465 904 b 340 843 379 904 353 885 l 267 843 "},"–":{"ha":940,"x_min":0,"x_max":0,"o":"m 135 563 l 865 563 l 847 456 l 115 456 "},"—":{"ha":1229,"x_min":0,"x_max":0,"o":"m 135 563 l 1153 563 l 1135 456 l 115 456 "},"‘":{"ha":304,"x_min":0,"x_max":0,"o":"m 336 969 l 199 654 l 57 654 l 246 969 "},"’":{"ha":304,"x_min":0,"x_max":0,"o":"m 110 653 l 247 968 l 389 968 l 200 653 "},"‚":{"ha":258,"x_min":0,"x_max":0,"o":"m 58 175 l 197 175 l -24 -199 l -108 -199 "},"“":{"ha":536,"x_min":0,"x_max":0,"o":"m 336 969 l 199 654 l 57 654 l 246 969 m 563 969 l 425 654 l 283 654 l 472 969 "},"”":{"ha":508,"x_min":0,"x_max":0,"o":"m 283 653 l 421 968 l 563 968 l 374 653 m 57 653 l 194 968 l 336 968 l 147 653 "},"„":{"ha":258,"x_min":0,"x_max":0,"o":"m 58 175 l 197 175 l -24 -199 l -108 -199 "},"†":{"ha":758,"x_min":0,"x_max":0,"o":"m 760 761 l 743 661 l 478 672 l 308 -361 l 182 -361 l 378 672 l 108 661 l 125 761 l 392 750 l 438 1085 l 563 1085 l 492 750 "},"‡":{"ha":760,"x_min":0,"x_max":0,"o":"m 743 661 l 478 672 l 368 51 l 639 64 l 619 -37 l 354 -26 l 308 -361 l 182 -361 l 254 -26 l -14 -37 l 4 64 l 268 51 l 379 672 l 110 661 l 126 761 l 392 750 l 438 1085 l 563 1085 l 492 750 l 761 761 "},"•":{"ha":572,"x_min":0,"x_max":0,"o":"m 265 293 b 126 463 172 293 110 368 b 326 633 143 558 232 633 b 468 463 422 633 485 558 b 265 293 451 368 363 293 "},"…":{"ha":807,"x_min":0,"x_max":0,"o":"m 435 78 b 335 -8 426 29 382 -8 b 264 78 286 -8 256 29 b 365 164 272 126 317 164 b 435 78 413 164 443 126 m 696 78 b 596 -8 688 29 643 -8 b 525 78 547 -8 517 29 b 626 164 533 126 578 164 b 696 78 674 164 704 126 m 175 78 b 75 -8 167 29 122 -8 b 4 78 26 -8 -4 29 b 106 164 13 126 57 164 b 175 78 153 164 183 126 "},"‰":{"ha":1396,"x_min":0,"x_max":0,"o":"m 124 778 b 363 982 146 904 246 982 b 529 778 478 982 551 904 b 290 572 507 651 406 572 b 124 778 174 572 101 651 m 349 904 b 224 778 286 904 238 861 b 304 651 208 694 242 651 b 429 778 365 651 414 694 b 349 904 443 861 410 904 m 788 969 l 913 969 l 179 0 l 53 0 m 440 192 b 679 397 463 319 563 397 b 844 192 793 397 867 319 b 607 -14 822 65 722 -14 b 440 192 490 -14 418 65 m 664 318 b 539 192 603 318 554 276 b 619 67 524 108 558 67 b 744 192 681 67 729 108 b 664 318 758 276 725 318 m 897 192 b 1136 397 919 319 1021 397 b 1303 192 1253 397 1325 319 b 1064 -14 1281 65 1181 -14 b 897 192 950 -14 875 65 m 1122 318 b 999 192 1060 318 1013 276 b 1078 67 982 108 1015 67 b 1203 192 1139 67 1188 108 b 1122 318 1217 276 1183 318 "},"‹":{"ha":389,"x_min":0,"x_max":0,"o":"m 279 167 l 154 167 l 64 410 l 240 653 l 364 653 l 183 410 "},"›":{"ha":389,"x_min":0,"x_max":0,"o":"m 28 167 l 208 410 l 114 653 l 238 653 l 328 410 l 151 167 "},"⁄":{"ha":686,"x_min":0,"x_max":0,"o":"m 676 969 l 803 969 l 68 0 l -58 0 "},"€":{"ha":1126,"x_min":0,"x_max":0,"o":"m 161 485 b 178 553 165 508 171 531 l 61 553 l 76 640 l 211 640 b 732 981 308 846 513 981 b 1128 688 940 981 1089 875 l 978 688 b 713 865 944 800 854 865 b 346 640 560 865 422 782 l 672 640 l 658 553 l 308 553 b 292 485 301 531 296 508 b 283 413 288 460 285 436 l 633 413 l 617 324 l 292 324 b 578 106 319 186 428 106 b 906 282 719 106 833 171 l 1057 282 b 558 -8 951 96 767 -8 b 157 324 340 -8 183 122 l 21 324 l 36 413 l 153 413 b 161 485 154 436 157 460 "},"₺":{"ha":1153,"x_min":0,"x_max":0,"o":"m 442 692 l 699 753 l 682 661 l 425 601 l 401 463 l 653 521 l 636 429 l 385 371 l 338 104 b 444 94 375 96 410 94 b 906 579 715 94 851 269 l 1035 579 b 424 -25 964 179 779 -25 b 190 6 350 -25 272 -14 l 249 339 l 18 285 l 33 376 l 265 431 l 290 569 l 54 515 l 69 603 l 306 660 l 361 975 l 492 975 "},"₽":{"ha":867,"x_min":0,"x_max":0,"o":"m 314 504 l 501 504 b 738 685 646 504 718 576 b 565 868 757 797 710 868 l 379 868 m 68 504 l 189 504 l 271 968 l 583 968 b 867 685 810 968 894 843 b 483 404 842 538 722 404 l 297 404 l 274 271 l 576 271 l 558 169 l 256 169 l 225 0 l 99 0 l 129 169 l 10 169 l 28 271 l 147 271 l 171 404 l 50 404 "},"ℓ":{"ha":342,"x_min":0,"x_max":0,"o":"m 218 1028 l 344 1028 l 163 0 l 36 0 "},"™":{"ha":1085,"x_min":0,"x_max":0,"o":"m 138 978 l 472 978 l 458 900 l 340 900 l 268 489 l 168 489 l 242 900 l 124 900 m 550 978 l 679 978 l 767 607 l 988 978 l 1110 978 l 1022 489 l 929 489 l 992 843 l 776 489 l 706 489 l 619 847 l 556 489 l 464 489 "},"Ω":{"ha":1093,"x_min":0,"x_max":0,"o":"m 72 486 b 649 981 124 776 376 981 b 1051 486 921 981 1103 776 b 781 100 1024 324 928 179 l 965 100 l 947 0 l 567 0 l 585 104 b 922 478 750 144 888 281 b 628 865 964 715 835 865 b 199 478 419 865 240 713 b 404 104 164 281 256 144 l 385 0 l 3 0 l 21 100 l 206 100 b 72 486 88 179 43 324 "},"℮":{"ha":1057,"x_min":0,"x_max":0,"o":"m 915 190 b 468 -10 779 67 629 -10 b 75 460 197 -10 22 158 b 628 972 126 746 331 972 b 1014 522 926 972 1056 754 l 999 438 l 258 438 l 218 204 b 483 75 275 119 353 75 b 869 251 625 75 739 140 l 915 190 m 815 526 l 857 771 b 614 889 811 846 728 889 b 315 756 501 889 396 847 l 275 526 "},"∂":{"ha":794,"x_min":0,"x_max":0,"o":"m 604 450 b 481 668 631 596 581 668 b 167 310 335 668 203 511 b 286 94 142 161 197 94 b 604 450 435 94 571 261 m 39 310 b 494 775 82 554 278 775 b 653 650 578 775 636 743 b 493 951 678 822 642 951 b 379 935 458 951 422 946 l 392 1008 b 525 1028 440 1022 482 1028 b 771 572 732 1028 819 858 b 254 -14 707 211 482 -14 b 39 310 104 -14 0 89 "},"∆":{"ha":944,"x_min":0,"x_max":0,"o":"m 519 963 l 624 963 l 864 99 l 846 0 l -43 0 l -25 99 m 546 818 l 104 99 l 735 99 "},"∏":{"ha":1026,"x_min":0,"x_max":0,"o":"m 156 969 l 1072 969 l 1054 869 l 943 869 l 790 0 l 665 0 l 818 869 l 372 869 l 219 0 l 93 0 l 246 869 l 138 869 "},"∑":{"ha":635,"x_min":0,"x_max":0,"o":"m 154 963 l 696 963 l 679 864 l 244 864 l 547 490 l 531 392 l 92 11 l 528 11 l 510 -87 l -31 -87 l -4 60 l 424 438 l 129 817 "},"−":{"ha":765,"x_min":0,"x_max":0,"o":"m 135 563 l 689 563 l 669 456 l 115 456 "},"∕":{"ha":661,"x_min":0,"x_max":0,"o":"m 613 1308 l 739 1308 l 86 -236 l -39 -236 "},"∙":{"ha":294,"x_min":0,"x_max":0,"o":"m 179 474 b 79 388 171 425 126 388 b 8 474 31 388 0 425 b 110 560 17 522 61 560 b 179 474 157 560 188 522 "},"√":{"ha":1094,"x_min":0,"x_max":0,"o":"m 249 -61 l 129 244 l 29 192 l 3 257 l 219 374 l 329 94 l 1125 1207 l 1217 1207 l 311 -61 "},"∞":{"ha":943,"x_min":0,"x_max":0,"o":"m 685 368 b 818 483 753 368 806 411 b 726 596 831 556 794 596 b 540 482 661 596 590 550 b 685 368 578 421 617 368 m 247 369 b 429 478 311 369 379 413 b 289 597 390 542 351 597 b 156 482 221 597 167 554 b 247 369 142 410 179 369 m 49 482 b 299 689 71 613 181 689 b 500 550 401 689 456 622 b 753 689 558 628 649 690 b 925 483 868 688 947 614 b 674 276 901 353 792 276 b 469 411 572 276 515 340 b 219 276 411 336 322 275 b 49 482 101 278 25 351 "},"∫":{"ha":363,"x_min":0,"x_max":0,"o":"m 308 1082 b 550 1275 347 1221 428 1275 l 582 1275 l 553 1169 l 529 1169 b 433 1082 482 1169 453 1147 l 103 -79 b -140 -274 63 -218 -15 -274 l -172 -274 l -143 -169 l -117 -169 b -25 -79 -67 -169 -43 -146 "},"≈":{"ha":721,"x_min":0,"x_max":0,"o":"m 42 279 b 274 482 92 418 174 482 b 492 392 379 482 411 392 b 600 481 536 392 582 424 l 694 481 b 461 278 646 340 561 278 b 244 368 356 278 326 368 b 135 279 199 368 154 335 l 42 279 m 42 572 b 274 775 92 711 174 775 b 492 685 379 775 411 685 b 600 774 536 685 582 717 l 694 774 b 461 571 646 633 561 571 b 244 661 356 571 326 661 b 135 572 199 661 154 628 l 42 572 "},"≠":{"ha":981,"x_min":0,"x_max":0,"o":"m 261 303 l 124 303 l 143 415 l 376 415 l 569 601 l 176 601 l 196 714 l 685 714 l 822 847 l 918 847 l 781 714 l 918 714 l 899 601 l 665 601 l 472 415 l 865 415 l 846 303 l 357 303 l 219 169 l 124 169 "},"≤":{"ha":710,"x_min":0,"x_max":0,"o":"m 419 294 l 132 560 l 514 826 l 681 826 l 301 561 l 588 294 m 79 225 l 571 225 l 554 129 l 63 129 "},"≥":{"ha":710,"x_min":0,"x_max":0,"o":"m 86 294 l 465 561 l 181 826 l 346 826 l 636 560 l 253 294 m 568 225 l 551 129 l 60 129 l 76 225 "},"◊":{"ha":769,"x_min":0,"x_max":0,"o":"m 460 821 l 735 486 l 340 150 l 65 486 m 438 690 l 196 485 l 363 281 l 604 488 "},"ﬁ":{"ha":793,"x_min":0,"x_max":0,"o":"m 175 657 l 78 657 l 96 761 l 193 761 l 203 815 b 525 1061 233 985 329 1061 l 507 956 b 331 815 393 956 347 914 l 321 761 l 753 761 l 618 0 l 492 0 l 608 657 l 303 657 l 186 0 l 60 0 m 711 885 b 643 971 665 885 633 922 b 742 1057 651 1019 694 1057 b 813 971 789 1057 821 1019 b 711 885 804 922 760 885 "},"ﬂ":{"ha":797,"x_min":0,"x_max":0,"o":"m 175 657 l 78 657 l 96 761 l 193 761 l 203 815 b 525 1061 233 985 329 1061 l 507 956 b 331 815 393 956 347 914 l 321 761 l 481 761 l 463 657 l 303 657 l 186 0 l 60 0 m 675 1028 l 801 1028 l 619 0 l 493 0 "}}}
